<?xml version="1.0" encoding="iso-8859-1"?>
<!-- Generator: Adobe Illustrator 19.0.0, SVG Export Plug-In . SVG Version: 6.00 Build 0)  -->
<svg version="1.1" id="Layer_1" xmlns="http://www.w3.org/2000/svg" xmlns:xlink="http://www.w3.org/1999/xlink" x="0px" y="0px"
	 viewBox="0 0 512.002 512.002" style="enable-background:new 0 0 512.002 512.002;" xml:space="preserve">
<path style="fill:#61CCFF;" d="M351.955,405.091c-46.33-16.888-82.258-69.702-51.752-153.392
	c30.506-83.69,103.82-131.916,149.661-115.206s70.921,100.804,40.415,184.493C459.773,404.676,398.285,421.979,351.955,405.091z"/>
<path style="fill:#FFD77A;" d="M160.049,405.091c46.33-16.888,82.258-69.702,51.752-153.392S107.982,119.783,62.14,136.493
	S-8.781,237.297,21.725,320.987S113.72,421.979,160.049,405.091z"/>
<path style="opacity:0.1;enable-background:new    ;" d="M59.453,297.406C35.87,232.71,45.51,167.782,72.276,133.919
	c-3.499,0.542-6.889,1.389-10.136,2.573c-45.842,16.71-70.921,100.804-40.415,184.492c30.506,83.69,91.994,100.994,138.324,84.106
	c13.088-4.77,25.345-12.41,35.509-22.802C149.502,397.832,89.475,379.767,59.453,297.406z"/>
<path style="opacity:0.1;enable-background:new    ;" d="M452.552,297.406c23.583-64.696,13.943-129.623-12.823-163.486
	c3.499,0.542,6.889,1.389,10.136,2.573c45.842,16.71,70.921,100.804,40.415,184.492c-30.506,83.69-91.994,100.994-138.324,84.106
	c-13.088-4.77-25.345-12.41-35.509-22.802C362.503,397.832,422.53,379.767,452.552,297.406z"/>
<path style="fill:#FFA0C1;" d="M256.002,400.011c52.98,0,108.682-40.092,108.682-135.796S308.426,92.853,256.002,92.853
	S147.32,168.511,147.32,264.215S203.021,400.011,256.002,400.011z"/>
<path style="opacity:0.1;enable-background:new    ;" d="M182.691,264.215c0-84.978,44.355-154.145,90.997-168.582
	c-5.887-1.822-11.81-2.779-17.685-2.779c-52.423,0-108.682,75.657-108.682,171.362s55.7,135.796,108.682,135.796
	c5.888,0,11.81-0.499,17.685-1.51C226.699,390.409,182.691,349.282,182.691,264.215z"/>
<path style="fill:#94D77F;" d="M494.225,419.15c1.693-22.008,17.777-60.1,17.777-60.1c-40.632-4.233-67.719,26.241-67.719,26.241
	c3.386-17.777,24.548-59.254,24.548-59.254c-46.557-4.233-77.031,46.557-77.031,46.557c2.54-35.553,20.315-82.956,20.315-82.956
	c-59.254,7.619-84.649,67.719-84.649,67.719c4.233-38.939,19.469-94.808,19.469-94.808
	c-81.263,14.391-90.935,104.118-90.935,104.118s-9.671-89.728-90.935-104.118c0,0,15.237,55.869,19.47,94.808
	c0,0-25.394-60.1-84.649-67.719c0,0,17.777,47.404,20.315,82.956c0,0-30.473-50.79-77.031-46.557c0,0,21.162,41.478,24.548,59.254
	c0,0-27.087-30.473-67.719-26.241c0,0,16.084,38.092,17.777,60.1H494.225z"/>
<g>
</g>
<g>
</g>
<g>
</g>
<g>
</g>
<g>
</g>
<g>
</g>
<g>
</g>
<g>
</g>
<g>
</g>
<g>
</g>
<g>
</g>
<g>
</g>
<g>
</g>
<g>
</g>
<g>
</g>
</svg>
