<?xml version="1.0" encoding="iso-8859-1"?>
<!-- Generator: Adobe Illustrator 19.0.0, SVG Export Plug-In . SVG Version: 6.00 Build 0)  -->
<!-- It's not only an image, it's an easter-egg-ception  CFl1X-3gg_C3p710n_!  -->
<svg version="1.1" id="Layer_1" xmlns="http://www.w3.org/2000/svg" xmlns:xlink="http://www.w3.org/1999/xlink" x="0px" y="0px"
	 viewBox="0 0 512 512" style="enable-background:new 0 0 512 512;" xml:space="preserve">
<path style="fill:#F2F2F2;" d="M451.101,304.796C451.101,458.979,363.75,512,255.998,512S60.894,458.979,60.894,304.796
	S148.245,0,255.998,0S451.101,150.613,451.101,304.796z"/>
<path style="fill:#E6E6E6;" d="M119.236,304.796c0-139.997,72.018-277.04,165.933-301.075C275.651,1.285,265.911,0,255.998,0
	C148.245,0,60.894,150.613,60.894,304.796S148.245,512,255.997,512c9.915,0,19.654-0.454,29.171-1.389
	C191.254,501.383,119.236,444.792,119.236,304.796z"/>
<path style="fill:#73D8D0;" d="M451.106,304.794c0,57.787-12.265,101.351-33.282,133.246H94.18
	c-21.017-31.895-33.282-75.459-33.282-133.246c0-51.797,9.854-103.192,27.033-148.61l1.517,0.57h333.109l1.517-0.57
	C441.253,201.601,451.106,252.997,451.106,304.794z"/>
<path style="fill:#69CCC2;" d="M152.512,438.04H94.18c-21.017-31.895-33.282-75.459-33.282-133.246
	c0-51.797,9.854-103.192,27.033-148.61l1.517,0.57h56.62c-17.063,45.275-26.839,96.463-26.839,148.04
	C119.229,362.568,131.495,406.145,152.512,438.04z"/>
<path style="fill:#FCC447;" d="M451.106,304.794c0,7.494-0.207,14.742-0.622,21.756h-0.091c-9.815-12.849-24.414-19.28-39-19.28
	c-14.599,0-29.198,6.431-39.013,19.28c-9.802,12.862-24.401,19.293-39,19.293c-14.586,0-29.185-6.431-39-19.293
	c-9.815-12.849-24.401-19.28-39-19.28c-14.586,0-29.185,6.431-39.026,19.28c-9.828,12.862-24.401,19.293-39,19.293
	c-14.586,0-29.159-6.431-39-19.293c-5.238-6.859-11.837-11.889-19.059-15.092c-19.396-8.583-43.344-4.006-57.852,13.756
	c-0.363-6.599-0.545-13.406-0.545-20.421c0-13.938,0.713-27.85,2.087-41.632c15.481-17.192,40.271-20.641,59.512-10.359
	c5.977,3.177,11.41,7.689,15.857,13.51c9.841,12.862,24.414,19.293,39,19.293c14.599,0,29.172-6.431,39-19.293
	c9.841-12.849,24.44-19.28,39.026-19.28c14.599,0,29.185,6.431,39,19.28c9.815,12.862,24.414,19.293,39,19.293
	c14.599,0,29.198-6.431,39-19.293c9.815-12.849,24.414-19.28,39.013-19.28c13.99,0,27.992,5.912,37.781,17.737
	C450.445,278.02,451.106,291.4,451.106,304.794z"/>
<path style="fill:#EAB03D;" d="M119.229,304.794c0,2.243,0.013,4.46,0.065,6.664c-19.396-8.583-43.344-4.006-57.852,13.756
	c-0.363-6.599-0.545-13.406-0.545-20.421c0-13.938,0.713-27.85,2.087-41.632c15.481-17.192,40.271-20.641,59.512-10.359
	C120.357,269.942,119.229,287.342,119.229,304.794z"/>
<g>
	<circle style="fill:#FC675B;" cx="335.728" cy="235.855" r="20.519"/>
	<circle style="fill:#FC675B;" cx="176.266" cy="235.855" r="20.519"/>
</g>
<circle style="fill:#E8564F;" cx="100.288" cy="358.366" r="20.519"/>
<g>
	<circle style="fill:#FC675B;" cx="256.003" cy="358.366" r="20.519"/>
	<circle style="fill:#FC675B;" cx="411.719" cy="358.366" r="20.519"/>
</g>
<g>
</g>
<g>
</g>
<g>
</g>
<g>
</g>
<g>
</g>
<g>
</g>
<g>
</g>
<g>
</g>
<g>
</g>
<g>
</g>
<g>
</g>
<g>
</g>
<g>
</g>
<g>
</g>
<g>
</g>
</svg>
