<svg xmlns="http://www.w3.org/2000/svg" viewBox="0 0 342.14 356.23"><defs><style>.cls-1{fill:none;stroke:#1f3244;stroke-miterlimit:10;stroke-width:1.5px;}.cls-2{fill:#cb473c;}.cls-3{fill:#1f3244;}</style></defs><title>logo-full</title><g id="Calque_2" data-name="Calque 2"><g id="Logo"><g id="logo-2" data-name="logo"><g id="atome"><ellipse class="cls-1" cx="171.9" cy="161.36" rx="49.41" ry="171.94" transform="translate(-62.99 141.03) rotate(-38.24)"/><ellipse class="cls-1" cx="170.93" cy="161.5" rx="171.94" ry="49.41" transform="translate(-42.43 260.38) rotate(-68.24)"/><ellipse class="cls-1" cx="171.07" cy="162.48" rx="171.94" ry="49.41" transform="matrix(0.99, -0.14, 0.14, 0.99, -21.52, 26.19)"/><circle class="cls-2" cx="92.34" cy="284.21" r="5.43" transform="translate(-39.78 16.17) rotate(-8.24)"/><circle class="cls-2" cx="302.76" cy="113.46" r="5.43" transform="translate(-13.13 44.56) rotate(-8.24)"/><circle class="cls-2" cx="114.78" cy="37.82" r="5.43" transform="translate(-4.24 16.84) rotate(-8.24)"/></g><g id="cflix"><path class="cls-2" d="M114.56,165.19l-.07,9.39c-.08,11.28-6.65,18.88-19,22.42s-18.56-1.27-18.58-14.42q0-21.08,0-42.16c0-13.1,6.48-20.51,19-20.38s18.95,6.54,18.86,17.78l-.05,6.87q-6,.43-12,1l.05-7.87c0-5.23-2.5-7.14-6.54-7s-6.6,2.34-6.62,7.86l-.17,41.59c0,5.52,2.47,6.82,6.48,5.84s6.55-3.41,6.58-8.64l.07-10.49Q108.54,166,114.56,165.19Z"/><path class="cls-2" d="M135.2,150.69q8.25-.49,16.53-.76l0,9.37q-8.29.36-16.55,1l-.19,27.77q-6.42.85-12.81,2l.54-69.22,33.71,0,0,9.33q-10.5.09-21,.3Z"/><path class="cls-2" d="M162.51,120.78h12.74q0,27.8,0,55.59,10.62.1,21.22.89l0,9.41a284,284,0,0,0-34.19-.89Q162.44,153.28,162.51,120.78Z"/><path class="cls-2" d="M201.78,120.8l12.74,0,.51,68.07q-6.41-1-12.85-1.67Z"/><path class="cls-2" d="M266.29,121c-4.43,13.06-8.81,25.39-13.15,37.15,4.76,13.81,9.47,28.39,14.08,43.93q-6.52-2.32-13.11-4.31c-3.42-11.15-6.87-21.84-10.35-32.14l-.23,0c-3.39,9.21-6.78,18.1-10.17,26.76q-5.94-1.31-11.93-2.37c4.67-11,9.32-22.32,14-34.12-4.51-12.15-9-23.76-13.58-35l13.2,0q4.85,13.27,9.66,27.39l.23,0c3.17-8.81,6.36-17.91,9.56-27.36Z"/></g><g id="slogan"><path class="cls-2" d="M140.34,314.88h20.23q.12,0,.12.12v20.23a.1.1,0,0,1-.12.12H140.34a.1.1,0,0,1-.12-.12V315Q140.24,314.88,140.34,314.88Zm5.89,5.32q2.95,8.68,3.12,9.3h2.2q0-.13,3.12-9.3h-2q-2.14,6.83-2.14,7.34h-.12q0-.46-2.14-7.34Z"/><path class="cls-3" d="M165.45,322.94h.35q2.48.49,2.49,1a3.14,3.14,0,0,1,1,2.49v.52a3,3,0,0,1-1.85,2.72.59.59,0,0,1-.29.06h-.4q-.25,0-.52-.4a3.06,3.06,0,0,0-.52-.06h-.29a1.44,1.44,0,0,0-1,.4,1.69,1.69,0,0,1-.4.06,3.62,3.62,0,0,1-1.79-2,2.67,2.67,0,0,1-.23-1.1v-.46a3.24,3.24,0,0,1,2.08-2.83A3.2,3.2,0,0,1,165.45,322.94Zm-1.21,3.47q0,1.4,1.16,1.56h.06q1.33,0,1.33-1.16v-1q0-.87-1.27-.87a1.28,1.28,0,0,0-1.27,1.39Zm.64-3.06v.12q0,.09.17.17h1q.16,0,.23-.4h-.75A2.59,2.59,0,0,0,164.87,323.34Z"/><path class="cls-3" d="M170.8,322.88H171a1.82,1.82,0,0,1,1.79,1.39,2.05,2.05,0,0,1,.06.52v.46a10,10,0,0,1-.06,1q.14,1.33.4,1.33h.12q1.68,0,1.68-2.14v-1.16q0-1.39.92-1.39h.35q.43,0,.46.17v1.21a16,16,0,0,1,.35,3.06,12,12,0,0,0,.17,1.79v.06q-.06.17-.35.17h-.52q-.29,0-1-1a.45.45,0,0,1-.23-.4H175a1.28,1.28,0,0,0-.81.4,6.92,6.92,0,0,1-.75.06l-.69-.06q-.38.14-.4.29v.06q1.33.22,1.33.75a.81.81,0,0,1-.52.17h-.17q-1.73-.2-1.73-.81a4.64,4.64,0,0,1-.4-1.68v-2q0-.32-.23-1.85v-.29Q170.57,323,170.8,322.88Z"/><path class="cls-3" d="M180.54,323.05q.12,0,.12.12v.06q0,.26-.4.52v.17h.17q1.62-.12,1.62-.75l1.39.29a3.65,3.65,0,0,0,.81-.23,7.09,7.09,0,0,1,.12,1.1q0,.75-.23.75h-.29a2.25,2.25,0,0,1-1.27-.29q0-.13-.87-.17a1.41,1.41,0,0,0-.69.46,1.36,1.36,0,0,0,1.21.75q2.48.78,2.49,1.79v.4q0,.84-1.21,1.56a3,3,0,0,0-.81.12.44.44,0,0,1-.06-.17.5.5,0,0,0,.06-.29,4.49,4.49,0,0,0-.87-.12h-.06a4.72,4.72,0,0,1-1.16.29h-.06a5.61,5.61,0,0,0-1-.29l-.46.4h-.23a4.29,4.29,0,0,1-.29-1.21v-.23q.12-.58.58-.58h.4a10.4,10.4,0,0,0,2.43.64,1.12,1.12,0,0,0,.81-.46q0-.78-2.66-1.16a2,2,0,0,1-1.39-2.08q.51-1.2,1.16-1.39Z"/><path class="cls-3" d="M196.69,322.65h.12a2.86,2.86,0,0,1,2.54,1.68,5.06,5.06,0,0,1,.29,1.27v.12q0,.58-1.16.58h-3.06v.29q.16,1,1,1h.17q.26,0,2.31-.4a.41.41,0,0,1,.46.46V328q-.53,1.45-1.68,1.44h-.12a.05.05,0,0,0-.06-.06q0-.13.58-.64v-.06H195.3q0,.19.58.29a1,1,0,0,1,.12.46v.12h.81q.12,0,.12.12l-.12.06h-.75q-1.88,0-2.66-2.31a2,2,0,0,1-.06-.52v-1.62q0-1,1.44-2.14A5.9,5.9,0,0,1,196.69,322.65Zm-1.16,2.54h2.25v-.52q-.06-.2-1.33-.29-.68,0-.81.46A.67.67,0,0,1,195.53,325.19Z"/><path class="cls-3" d="M202.67,320.63l.06.12v.52a3.37,3.37,0,0,0,.64,1.33v.87a4.29,4.29,0,0,0,.81.35l.29.52a5.65,5.65,0,0,1-1.1.35v1.68q0,1,.29,1l1.39-.17a2.45,2.45,0,0,1,.17.81q-.09.81-.23.81-.35,0-.4-.46a12.41,12.41,0,0,0-1.68.29q.12.52.52.52.29.23.29.29t-.46.23h-.35q-.92,0-1.16-1.39a2.64,2.64,0,0,1-.06-.69v-.35q0-.84.06-2.6-.75-.14-.75-.29v-.64q0-.29-.06-.87a3.94,3.94,0,0,0,1.21-1.91Q202.51,320.63,202.67,320.63Z"/><path class="cls-3" d="M209.87,322.65H210a2.86,2.86,0,0,1,2.54,1.68,5.06,5.06,0,0,1,.29,1.27v.12q0,.58-1.16.58h-3.06v.29q.16,1,1,1h.17q.26,0,2.31-.4a.41.41,0,0,1,.46.46V328q-.53,1.45-1.68,1.44h-.12a.05.05,0,0,0-.06-.06q0-.13.58-.64v-.06h-2.77q0,.19.58.29a1,1,0,0,1,.12.46v.12H210q.12,0,.12.12l-.12.06h-.75q-1.88,0-2.66-2.31a2,2,0,0,1-.06-.52v-1.62q0-1,1.44-2.14A5.9,5.9,0,0,1,209.87,322.65Zm-1.16,2.54H211v-.52q-.06-.2-1.33-.29-.68,0-.81.46A.67.67,0,0,1,208.71,325.19Z"/><path class="cls-3" d="M216.08,323.05q.12,0,.12.12v.06q0,.26-.4.52v.17H216q1.62-.12,1.62-.75l1.39.29a3.65,3.65,0,0,0,.81-.23,7.09,7.09,0,0,1,.12,1.1q0,.75-.23.75h-.29a2.25,2.25,0,0,1-1.27-.29q0-.13-.87-.17a1.41,1.41,0,0,0-.69.46,1.36,1.36,0,0,0,1.21.75q2.48.78,2.49,1.79v.4q0,.84-1.21,1.56a3,3,0,0,0-.81.12.44.44,0,0,1-.06-.17.5.5,0,0,0,.06-.29,4.49,4.49,0,0,0-.87-.12h-.06a4.72,4.72,0,0,1-1.16.29h-.06a5.61,5.61,0,0,0-1-.29l-.46.4h-.23a4.29,4.29,0,0,1-.29-1.21v-.23q.12-.58.58-.58h.4a10.4,10.4,0,0,0,2.43.64,1.12,1.12,0,0,0,.81-.46q0-.78-2.66-1.16a2,2,0,0,1-1.39-2.08q.51-1.2,1.16-1.39Z"/><path class="cls-3" d="M232.81,322.53H233a3,3,0,0,1,2.54,1.68,3.43,3.43,0,0,1,.4,1.56v.75a3.23,3.23,0,0,1-1.79,3,3.46,3.46,0,0,1-.58.12h-.4a1.8,1.8,0,0,1-1.21-.46v-.06h.46a10.82,10.82,0,0,1,1.33-.29v-.23h-1.33a1.74,1.74,0,0,1-1-.46,12.6,12.6,0,0,0-.4,1.68,2.55,2.55,0,0,0-.58,1.16,3.06,3.06,0,0,0,.64,1.44,1.91,1.91,0,0,1-.81.17H229c-.08,0-.12-.06-.12-.17q.36,0,.52-4.51v-.06q0-4.45-.46-4.45v-.06l.06-.52h.29a1.6,1.6,0,0,1,1.56,1v.06h.35l.87-.4a7.23,7.23,0,0,1,.81-.06h.23v-.23h-.46q-.58-.07-.58-.23v-.17Q232.06,322.58,232.81,322.53Zm-1.62,3.64v.17a3.07,3.07,0,0,0,.4,1.1h1.62q.2,0,.46-1.39a5.28,5.28,0,0,0-.4-1.5h-1.44A2.19,2.19,0,0,0,231.19,326.18Z"/><path class="cls-3" d="M237.69,320.28H238q.87,0,.87.75a5.54,5.54,0,0,1,.23,2.08v.64q0,2.12-.23,5.14.58.1.58.52a2,2,0,0,1-.69.29h-.17q-1.33-.07-1.33-.23.06-.46.4-.46.06-1.16.06-1.73v-4a13.06,13.06,0,0,0-.23-2.77Z"/><path class="cls-3" d="M241,322.88h.23a1.82,1.82,0,0,1,1.79,1.39,2.05,2.05,0,0,1,.06.52v.46a10,10,0,0,1-.06,1q.14,1.33.4,1.33h.12q1.68,0,1.68-2.14v-1.16q0-1.39.92-1.39h.35q.43,0,.46.17v1.21a16,16,0,0,1,.35,3.06,12,12,0,0,0,.17,1.79v.06q-.06.17-.35.17h-.52q-.29,0-1-1a.45.45,0,0,1-.23-.4h-.23a1.28,1.28,0,0,0-.81.4,6.93,6.93,0,0,1-.75.06l-.69-.06q-.38.14-.4.29v.06q1.33.22,1.33.75a.81.81,0,0,1-.52.17h-.17q-1.73-.2-1.73-.81a4.63,4.63,0,0,1-.4-1.68v-2q0-.32-.23-1.85v-.29C240.73,323.05,240.8,323,241,322.88Z"/><path class="cls-3" d="M250.7,323.05c.08,0,.12,0,.12.12v.06q0,.26-.4.52v.17h.17q1.62-.12,1.62-.75l1.39.29a3.66,3.66,0,0,0,.81-.23,7.14,7.14,0,0,1,.12,1.1q0,.75-.23.75H254a2.25,2.25,0,0,1-1.27-.29q0-.13-.87-.17a1.41,1.41,0,0,0-.69.46,1.36,1.36,0,0,0,1.21.75q2.48.78,2.49,1.79v.4q0,.84-1.21,1.56a3,3,0,0,0-.81.12.43.43,0,0,1-.06-.17.5.5,0,0,0,.06-.29,4.49,4.49,0,0,0-.87-.12h-.06a4.72,4.72,0,0,1-1.16.29h-.06a5.62,5.62,0,0,0-1-.29l-.46.4H249a4.29,4.29,0,0,1-.29-1.21v-.23q.11-.58.58-.58h.4a10.4,10.4,0,0,0,2.43.64,1.12,1.12,0,0,0,.81-.46q0-.78-2.66-1.16a2,2,0,0,1-1.39-2.08q.5-1.2,1.16-1.39Z"/><path class="cls-3" d="M267.14,322.71h.23a1.94,1.94,0,0,1,1.79,1.21,5,5,0,0,1,.23,1.62q0,.56-.12,2.77h-.06l.35,1v.12c0,.12-.08.17-.23.17a1,1,0,0,1-1-.81,1,1,0,0,0-.75-.46,11.6,11.6,0,0,0-1.73.64,2,2,0,0,0-.23.75h-.06q-1.56-.26-1.56-.64a1.73,1.73,0,0,1-.52-1.1v-.35q0-1.18,2-1.91,2.14,0,2.14-.46l-.29-.64-.29.06h-.46a1.86,1.86,0,0,0-1.39.4h-.64a.63.63,0,0,1-.58-.4v-.12q0-1,.23-1a.89.89,0,0,1,.58.23,5.45,5.45,0,0,0,1.1-.23h.23a7.38,7.38,0,0,1,1.79.29v-.06a2.73,2.73,0,0,0-.87-1Zm-1.91,4.62v.35a1.94,1.94,0,0,0,.81.29,3.21,3.21,0,0,0,1.44-.64v-.87h-.17A2.75,2.75,0,0,0,265.23,327.33Z"/><path class="cls-3" d="M276,319.93h.64q.92,0,.92.35a21.92,21.92,0,0,1,.17,2.66q-.06,2.24-.06,4.16a6.5,6.5,0,0,0,.29,2.14,1.91,1.91,0,0,1-.81.17q-.35,0-.87-.92l-.64-.46q-1.13.4-1.27.69.92,0,.92.23V329a1.52,1.52,0,0,1-1.16.69,3.32,3.32,0,0,1-3.29-3.64V326a3.92,3.92,0,0,1,2-3.29,4.87,4.87,0,0,1,1-.35.74.74,0,0,1,.69.35v.12a.42.42,0,0,0-.12.23q0,.3,1.27.75h.06a.1.1,0,0,0,.12-.12,4.44,4.44,0,0,0-.12-1q.16-1.16.81-1.16v-.4a5.46,5.46,0,0,0-.52-1Zm-3.06,8.55v.06a.43.43,0,0,1,.12.23h.17l.4-.06v-.23Zm.23-2.25q0,1.1.58,1.1c0,.08.19.12.58.12h.23a1.18,1.18,0,0,0,1.1-1.33v-.23q0-1.18-1.56-1.44a1.06,1.06,0,0,0-.87,1.1Z"/><path class="cls-3" d="M284.42,319.93h.64q.92,0,.92.35a21.92,21.92,0,0,1,.17,2.66q-.06,2.24-.06,4.16a6.5,6.5,0,0,0,.29,2.14,1.91,1.91,0,0,1-.81.17q-.35,0-.87-.92l-.64-.46q-1.13.4-1.27.69.92,0,.92.23V329a1.52,1.52,0,0,1-1.16.69,3.32,3.32,0,0,1-3.29-3.64V326a3.92,3.92,0,0,1,2-3.29,4.87,4.87,0,0,1,1-.35.74.74,0,0,1,.69.35v.12a.42.42,0,0,0-.12.23q0,.3,1.27.75h.06a.1.1,0,0,0,.12-.12,4.44,4.44,0,0,0-.12-1q.16-1.16.81-1.16v-.4a5.46,5.46,0,0,0-.52-1Zm-3.06,8.55v.06a.43.43,0,0,1,.12.23h.17l.4-.06v-.23Zm.23-2.25q0,1.1.58,1.1c0,.08.19.12.58.12H283a1.18,1.18,0,0,0,1.1-1.33v-.23q0-1.18-1.56-1.44a1.06,1.06,0,0,0-.87,1.1Z"/><path class="cls-3" d="M289.59,322.65q.17,0,.17.92v1.68q0,1.17-.06,3.18l.29,1.1a3.46,3.46,0,0,1-1,.17h-.23a.56.56,0,0,1-.58-.29v-4.33l.4-1q0-.2-.87-.64a1.24,1.24,0,0,1,1.27-.81Zm-.69-2.6H289q.64.46.64.64v.12q-.41.64-.58.64a.88.88,0,0,1-.75-.87v-.17Z"/><path class="cls-3" d="M293.9,323h.35c.08,0,.12,0,.12.12v.06q-.69.29-.69.52a2.58,2.58,0,0,0,.69.12h1a1.58,1.58,0,0,1,1,.35,5,5,0,0,0,.52-.29h.17a2.22,2.22,0,0,1,.52.87v.12q0,.43-.69.87a.46.46,0,0,1-.23.06,9.23,9.23,0,0,1-1.5-.92l-.46-.06q-1.27,0-1.27,1.56a1.5,1.5,0,0,0,1.16,1.62,3.32,3.32,0,0,0,1.85-.87h.17q.69.36.69.75V328q0,1.07-1.56,1.62a.05.05,0,0,0-.06-.06,1.32,1.32,0,0,1,.12-.4.43.43,0,0,1-.06-.17h-2.25q.17.29.35.29a.44.44,0,0,1,.17-.06,1.16,1.16,0,0,1,.17.46l-.12.06h-.23q-2.6,0-2.6-3.06v-1.1q0-1.29,2.31-2.49A.59.59,0,0,1,293.9,323Z"/><path class="cls-3" d="M300.69,320.63l.06.12v.52a3.37,3.37,0,0,0,.64,1.33v.87a4.28,4.28,0,0,0,.81.35l.29.52a5.66,5.66,0,0,1-1.1.35v1.68q0,1,.29,1l1.39-.17a2.45,2.45,0,0,1,.17.81q-.09.81-.23.81-.35,0-.4-.46a12.4,12.4,0,0,0-1.68.29q.11.52.52.52c.19.15.29.25.29.29s-.15.17-.46.23h-.35q-.93,0-1.16-1.39a2.63,2.63,0,0,1-.06-.69v-.35q0-.84.06-2.6-.75-.14-.75-.29v-.64q0-.29-.06-.87a4,4,0,0,0,1.21-1.91Q300.53,320.63,300.69,320.63Z"/><path class="cls-2" d="M161.19,335.77h20.23c.08,0,.12,0,.12.12v20.23a.1.1,0,0,1-.12.12H161.19a.1.1,0,0,1-.12-.12V335.89C161.08,335.81,161.12,335.77,161.19,335.77Zm6.13,10q0,3.55,2.83,4.57a9.34,9.34,0,0,0,1.68.17l1.79,2.08h2.49l-2.2-2.49q2.25-1.14,2.25-4.45t-2.49-4.39a7,7,0,0,0-1.85-.29Q167.31,341,167.31,345.77Zm4.39-3.18h.06q2.31,0,2.31,2.95V346q0,2.89-2.31,2.89h-.06q-2.31,0-2.31-2.95v-.46q0-2.27,1.68-2.83A4.56,4.56,0,0,1,171.7,342.59Z"/><path class="cls-3" d="M183.06,343.77h.23a1.82,1.82,0,0,1,1.79,1.39,2.05,2.05,0,0,1,.06.52v.46a10,10,0,0,1-.06,1q.14,1.33.4,1.33h.12q1.68,0,1.68-2.14v-1.16q0-1.39.92-1.39h.35q.43,0,.46.17v1.21a16,16,0,0,1,.35,3.06,12,12,0,0,0,.17,1.79v.06q-.06.17-.35.17h-.52q-.29,0-1-1a.45.45,0,0,1-.23-.4h-.23a1.28,1.28,0,0,0-.81.4,7,7,0,0,1-.75.06l-.69-.06c-.25.1-.39.19-.4.29v.06q1.33.22,1.33.75a.81.81,0,0,1-.52.17h-.17q-1.73-.2-1.73-.81a4.64,4.64,0,0,1-.4-1.68v-2q0-.32-.23-1.85V344Q182.83,343.92,183.06,343.77Z"/><path class="cls-3" d="M194.19,343.54h.12a2.86,2.86,0,0,1,2.54,1.68,5.06,5.06,0,0,1,.29,1.27v.12q0,.58-1.16.58h-3.06v.29q.16,1,1,1h.17q.26,0,2.31-.4a.41.41,0,0,1,.46.46v.29q-.53,1.44-1.68,1.44h-.12a.05.05,0,0,0-.06-.06q0-.13.58-.64v-.06H192.8c0,.12.19.22.58.29a1,1,0,0,1,.12.46v.12h.81c.08,0,.12,0,.12.12l-.12.06h-.75q-1.88,0-2.66-2.31a2,2,0,0,1-.06-.52v-1.62q0-1,1.44-2.14A5.89,5.89,0,0,1,194.19,343.54ZM193,346.09h2.25v-.52q-.06-.2-1.33-.29-.68,0-.81.46A.67.67,0,0,1,193,346.09Z"/><path class="cls-3" d="M206.29,344.06h.64a1.13,1.13,0,0,1,1,.4.71.71,0,0,1-.46.23,10.27,10.27,0,0,1,1.39,3.35h.17q.46,0,.46-1,1.05-3,2-3h.69q.09,0,.23.23a22,22,0,0,0-2.37,5.14,5,5,0,0,1-.64,1.16h-.52q-.88-.66-2.49-5.37a2.94,2.94,0,0,1-.64-1A1.55,1.55,0,0,1,206.29,344.06Z"/><path class="cls-3" d="M217.19,343.83h.35q2.48.49,2.49,1a3.14,3.14,0,0,1,1,2.49v.52a3,3,0,0,1-1.85,2.72.59.59,0,0,1-.29.06h-.4q-.25,0-.52-.4a3.06,3.06,0,0,0-.52-.06h-.29a1.44,1.44,0,0,0-1,.4,1.71,1.71,0,0,1-.4.06,3.62,3.62,0,0,1-1.79-2,2.67,2.67,0,0,1-.23-1.1V347a3.24,3.24,0,0,1,2.08-2.83A3.2,3.2,0,0,1,217.19,343.83ZM216,347.3q0,1.4,1.16,1.56h.06q1.33,0,1.33-1.16v-1q0-.87-1.27-.87a1.28,1.28,0,0,0-1.27,1.39Zm.64-3.06v.12q0,.09.17.17h1q.16,0,.23-.4h-.75A2.58,2.58,0,0,0,216.61,344.24Z"/><path class="cls-3" d="M222.53,343.77h.23a1.82,1.82,0,0,1,1.79,1.39,2.05,2.05,0,0,1,.06.52v.46a10,10,0,0,1-.06,1q.14,1.33.4,1.33h.12q1.68,0,1.68-2.14v-1.16q0-1.39.92-1.39H228q.43,0,.46.17v1.21a16,16,0,0,1,.35,3.06,12,12,0,0,0,.17,1.79v.06q-.06.17-.35.17h-.52q-.29,0-1-1a.45.45,0,0,1-.23-.4h-.23a1.28,1.28,0,0,0-.81.4,7,7,0,0,1-.75.06l-.69-.06c-.25.1-.39.19-.4.29v.06q1.33.22,1.33.75a.81.81,0,0,1-.52.17h-.17q-1.73-.2-1.73-.81a4.64,4.64,0,0,1-.4-1.68v-2q0-.32-.23-1.85V344Q222.3,343.92,222.53,343.77Z"/><path class="cls-3" d="M232.27,343.95c.08,0,.12,0,.12.12v.06q0,.26-.4.52v.17h.17q1.62-.12,1.62-.75l1.39.29a3.67,3.67,0,0,0,.81-.23,7.09,7.09,0,0,1,.12,1.1q0,.75-.23.75h-.29a2.25,2.25,0,0,1-1.27-.29q0-.13-.87-.17a1.41,1.41,0,0,0-.69.46,1.36,1.36,0,0,0,1.21.75q2.48.78,2.49,1.79v.4q0,.84-1.21,1.56a3,3,0,0,0-.81.12.44.44,0,0,1-.06-.17.5.5,0,0,0,.06-.29,4.46,4.46,0,0,0-.87-.12h-.06a4.72,4.72,0,0,1-1.16.29h-.06a5.57,5.57,0,0,0-1-.29l-.46.4h-.23a4.29,4.29,0,0,1-.29-1.21V349q.12-.58.58-.58h.4a10.4,10.4,0,0,0,2.43.64,1.12,1.12,0,0,0,.81-.46q0-.78-2.66-1.16a2,2,0,0,1-1.39-2.08q.51-1.2,1.16-1.39Z"/><path class="cls-3" d="M249.41,343.6h.06a3,3,0,0,1,1.79,1,3.89,3.89,0,0,1,.35,1.68v1.85q0,1.66.58,2.08,0,.19-.87.35h-.23q-.92,0-.92-.23v-.64a1.12,1.12,0,0,1-.64-1.16v-.87q0-2.2-.46-2.2h-.23a1.31,1.31,0,0,0-1.27.69,20.5,20.5,0,0,0-.23,3,1.65,1.65,0,0,1-.52.52V350a.49.49,0,0,1,.4.29v.06a.86.86,0,0,1-.69.29h-.29q-1.16,0-1.16-.23a1,1,0,0,1,.46-.69,12.89,12.89,0,0,0,.12-1.79v-2.49a4.24,4.24,0,0,1-.46-1.27,1.91,1.91,0,0,1,.75-.12h.4q.92.59.92,1v.29a3.65,3.65,0,0,0,.92-.58,7.82,7.82,0,0,1,1.21-.29v-.12q-.23,0-.75-.52v-.06A3.94,3.94,0,0,1,249.41,343.6Z"/><path class="cls-3" d="M256.83,343.54h.12a2.86,2.86,0,0,1,2.54,1.68,5,5,0,0,1,.29,1.27v.12q0,.58-1.16.58h-3.06v.29q.16,1,1,1h.17q.26,0,2.31-.4a.41.41,0,0,1,.46.46v.29q-.53,1.44-1.68,1.44h-.12a.05.05,0,0,0-.06-.06q0-.13.58-.64v-.06h-2.77c0,.12.19.22.58.29a1,1,0,0,1,.12.46v.12h.81c.08,0,.12,0,.12.12l-.12.06h-.75q-1.88,0-2.66-2.31a2.05,2.05,0,0,1-.06-.52v-1.62q0-1,1.44-2.14A5.89,5.89,0,0,1,256.83,343.54Zm-1.16,2.54h2.25v-.52q-.06-.2-1.33-.29-.68,0-.81.46A.67.67,0,0,1,255.68,346.09Z"/><path class="cls-3" d="M268.88,341.17h.29q.87,0,.87.75a5.52,5.52,0,0,1,.23,2.08v.64q0,2.12-.23,5.14.58.1.58.52a2,2,0,0,1-.69.29h-.17q-1.33-.07-1.33-.23.06-.46.4-.46.06-1.16.06-1.73v-4a13.06,13.06,0,0,0-.23-2.77Z"/><path class="cls-3" d="M275.27,343.54h.12a2.86,2.86,0,0,1,2.54,1.68,5,5,0,0,1,.29,1.27v.12q0,.58-1.16.58H274v.29q.16,1,1,1h.17q.26,0,2.31-.4a.41.41,0,0,1,.46.46v.29q-.53,1.44-1.68,1.44h-.12a.05.05,0,0,0-.06-.06q0-.13.58-.64v-.06h-2.77c0,.12.19.22.58.29a1,1,0,0,1,.12.46v.12h.81c.08,0,.12,0,.12.12l-.12.06h-.75q-1.88,0-2.66-2.31a2.05,2.05,0,0,1-.06-.52v-1.62q0-1,1.44-2.14A5.89,5.89,0,0,1,275.27,343.54Zm-1.16,2.54h2.25v-.52q-.06-.2-1.33-.29-.68,0-.81.46A.67.67,0,0,1,274.11,346.09Z"/><path class="cls-3" d="M289.46,343.89h.35c.08,0,.12,0,.12.12v.06q-.69.29-.69.52a2.58,2.58,0,0,0,.69.12h1a1.58,1.58,0,0,1,1,.35,5.11,5.11,0,0,0,.52-.29h.17a2.22,2.22,0,0,1,.52.87v.12q0,.43-.69.87a.46.46,0,0,1-.23.06,9.29,9.29,0,0,1-1.5-.92l-.46-.06q-1.27,0-1.27,1.56a1.5,1.5,0,0,0,1.16,1.62,3.32,3.32,0,0,0,1.85-.87h.17q.69.36.69.75v.12q0,1.07-1.56,1.62a.05.05,0,0,0-.06-.06,1.32,1.32,0,0,1,.12-.4.45.45,0,0,1-.06-.17h-2.25q.17.29.35.29a.45.45,0,0,1,.17-.06,1.15,1.15,0,0,1,.17.46l-.12.06h-.23q-2.6,0-2.6-3.06v-1.1q0-1.29,2.31-2.49A.59.59,0,0,1,289.46,343.89Z"/><path class="cls-3" d="M294.86,344.06h.52q1,0,1.44,1.79h.06a13.35,13.35,0,0,1,2.49-1.5,1.26,1.26,0,0,1,.46.75v.17q0,.9-2.6,1.27H297q0,3.12-.46,3.12l-.12.17s.16.15.35.46a.48.48,0,0,1-.46.29h-.46q-1.33,0-1.33-.29.64-.59.64-2.77a11.62,11.62,0,0,0-.46-3.29Q294.69,344.15,294.86,344.06Z"/><path class="cls-3" d="M304.6,343.83h.35q2.48.49,2.49,1a3.14,3.14,0,0,1,1,2.49v.52a3,3,0,0,1-1.85,2.72.59.59,0,0,1-.29.06h-.4q-.25,0-.52-.4a3,3,0,0,0-.52-.06h-.29a1.44,1.44,0,0,0-1,.4,1.71,1.71,0,0,1-.4.06,3.62,3.62,0,0,1-1.79-2,2.68,2.68,0,0,1-.23-1.1V347a3.24,3.24,0,0,1,2.08-2.83A3.2,3.2,0,0,1,304.6,343.83Zm-1.21,3.47q0,1.4,1.16,1.56h.06q1.33,0,1.33-1.16v-1q0-.87-1.27-.87a1.28,1.28,0,0,0-1.27,1.39Zm.64-3.06v.12q0,.09.17.17h1c.11,0,.18-.14.23-.4h-.75A2.58,2.58,0,0,0,304,344.24Z"/><path class="cls-3" d="M310.23,344.29h2l.12.06a6.74,6.74,0,0,0-.29,1.16,7.54,7.54,0,0,0,1,2.6,3,3,0,0,1,.06.52h.17a17.78,17.78,0,0,0,1-2.14q1.39-.51,1.39-1a4,4,0,0,1-.46-1.16h1.27q.52,0,.52.29a71.34,71.34,0,0,0-3.87,8q-.62,1.16-1.44,1.16a.1.1,0,0,0-.12-.12h-1.62c-.15,0-.27-.25-.35-.75V352q0-.19.81-.23l1.1.06a1.46,1.46,0,0,0,.58-1v-.23a20.63,20.63,0,0,0-1.79-3.7l-.06-.29v-.06l.58-.29a2.94,2.94,0,0,0-1-1.79v-.12Zm.17,8.58q0,.3.92.4a.87.87,0,0,0,.81-.4Z"/><path class="cls-3" d="M321.76,343.54h.12a2.86,2.86,0,0,1,2.54,1.68,5,5,0,0,1,.29,1.27v.12q0,.58-1.16.58h-3.06v.29q.16,1,1,1h.17q.26,0,2.31-.4a.41.41,0,0,1,.46.46v.29q-.53,1.44-1.68,1.44h-.12a.05.05,0,0,0-.06-.06q0-.13.58-.64v-.06h-2.77c0,.12.19.22.58.29a1,1,0,0,1,.12.46v.12h.81c.08,0,.12,0,.12.12l-.12.06h-.75q-1.88,0-2.66-2.31a2.05,2.05,0,0,1-.06-.52v-1.62q0-1,1.44-2.14A5.89,5.89,0,0,1,321.76,343.54Zm-1.16,2.54h2.25v-.52q-.06-.2-1.33-.29-.68,0-.81.46A.67.67,0,0,1,320.61,346.09Z"/><path class="cls-3" d="M326.7,344.06h.12q.39,0,.75.75,1.79.17,2.54.17.1,0,.69-.69l.75-.12.06.12a2.69,2.69,0,0,1-.81,2.14,23,23,0,0,0-2.25,2.54V349H330a6.84,6.84,0,0,0,1.56-.35,3.61,3.61,0,0,1,.23,1.1V350q0,.64-.17.64h-.46a.87.87,0,0,1-.87-.4,5.81,5.81,0,0,0-1.73-.17h-.87a1.71,1.71,0,0,0-1.1.58h-.12a.48.48,0,0,1-.46-.29v-.12q0-1,2.95-3.7a1.33,1.33,0,0,1,.23-.4,9.83,9.83,0,0,0-1.44-.17h-1.39q-.23,0-.23-1v-.06Q326.2,344.06,326.7,344.06Z"/><path class="cls-3" d="M199.31,321v.22H197.7l-1.23-1.48-1.21,1.48h-1.59V321l2.2-2.27h1.21Z"/></g></g></g></g></svg>