<svg xmlns="http://www.w3.org/2000/svg" viewBox="0 0 342.14 323.01"><defs><style>.cls-1{fill:none;stroke:#1f3244;stroke-miterlimit:10;stroke-width:1.5px;}.cls-2{fill:#cb473c;}</style></defs><title>logo</title><g id="Calque_2" data-name="Calque 2"><g id="Logo"><g id="logo-2" data-name="logo"><g id="atome"><ellipse class="cls-1" cx="171.9" cy="161.36" rx="49.41" ry="171.94" transform="translate(-62.99 141.03) rotate(-38.24)"/><ellipse class="cls-1" cx="170.93" cy="161.5" rx="171.94" ry="49.41" transform="translate(-42.43 260.38) rotate(-68.24)"/><ellipse class="cls-1" cx="171.07" cy="162.48" rx="171.94" ry="49.41" transform="matrix(0.99, -0.14, 0.14, 0.99, -21.52, 26.19)"/><circle class="cls-2" cx="92.34" cy="284.21" r="5.43" transform="translate(-39.78 16.17) rotate(-8.24)"/><circle class="cls-2" cx="302.76" cy="113.46" r="5.43" transform="translate(-13.13 44.56) rotate(-8.24)"/><circle class="cls-2" cx="114.78" cy="37.82" r="5.43" transform="translate(-4.24 16.84) rotate(-8.24)"/></g><g id="cflix"><path class="cls-2" d="M114.56,165.19l-.07,9.39c-.08,11.28-6.65,18.88-19,22.42s-18.56-1.27-18.58-14.42q0-21.08,0-42.16c0-13.1,6.48-20.51,19-20.38s18.95,6.54,18.86,17.78l-.05,6.87q-6,.43-12,1l.05-7.87c0-5.23-2.5-7.14-6.54-7s-6.6,2.34-6.62,7.86l-.17,41.59c0,5.52,2.47,6.82,6.48,5.84s6.55-3.41,6.58-8.64l.07-10.49Q108.54,166,114.56,165.19Z"/><path class="cls-2" d="M135.2,150.69q8.25-.49,16.53-.76l0,9.37q-8.29.36-16.55,1l-.19,27.77q-6.42.85-12.81,2l.54-69.22,33.71,0,0,9.33q-10.5.09-21,.3Z"/><path class="cls-2" d="M162.51,120.78h12.74q0,27.8,0,55.59,10.62.1,21.22.89l0,9.41a284,284,0,0,0-34.19-.89Q162.44,153.28,162.51,120.78Z"/><path class="cls-2" d="M201.78,120.8l12.74,0,.51,68.07q-6.41-1-12.85-1.67Z"/><path class="cls-2" d="M266.29,121c-4.43,13.06-8.81,25.39-13.15,37.15,4.76,13.81,9.47,28.39,14.08,43.93q-6.52-2.32-13.11-4.31c-3.42-11.15-6.87-21.84-10.35-32.14l-.23,0c-3.39,9.21-6.78,18.1-10.17,26.76q-5.94-1.31-11.93-2.37c4.67-11,9.32-22.32,14-34.12-4.51-12.15-9-23.76-13.58-35l13.2,0q4.85,13.27,9.66,27.39l.23,0c3.17-8.81,6.36-17.91,9.56-27.36Z"/></g></g></g></g></svg>