<svg xmlns="http://www.w3.org/2000/svg" viewBox="0 0 190.31 82.01"><defs><style>.cls-1{fill:#cb473c;}</style></defs><title>logo-light</title><g id="Calque_2" data-name="Calque 2"><g id="Logo"><g id="logo-2" data-name="logo"><g id="cflix"><path class="cls-1" d="M37.64,45.15l-.07,9.39c-.08,11.28-6.65,18.88-19,22.42S0,75.7,0,62.55Q0,41.47,0,20.39C0,7.29,6.48-.12,19,0S37.94,6.54,37.85,17.78l-.05,6.87q-6,.43-12,1l.05-7.87c0-5.23-2.5-7.14-6.54-7s-6.6,2.34-6.62,7.86L12.5,60.19C12.48,65.71,15,67,19,66s6.55-3.41,6.58-8.64l.07-10.49Q31.62,45.94,37.64,45.15Z"/><path class="cls-1" d="M58.28,30.65q8.25-.49,16.53-.76l0,9.37q-8.29.36-16.55,1L58,68q-6.42.85-12.81,2L45.75.79l33.71,0,0,9.33q-10.5.09-21,.3Z"/><path class="cls-1" d="M85.6.74H98.34q0,27.8,0,55.59,10.62.1,21.22.89l0,9.41a284,284,0,0,0-34.19-.89Q85.53,33.25,85.6.74Z"/><path class="cls-1" d="M124.87.76l12.74,0,.51,68.07q-6.41-1-12.85-1.67Z"/><path class="cls-1" d="M189.38.92c-4.43,13.06-8.81,25.39-13.15,37.15C181,51.89,185.7,66.47,190.31,82q-6.52-2.32-13.11-4.31c-3.42-11.15-6.87-21.84-10.35-32.14l-.23,0c-3.39,9.21-6.78,18.1-10.17,26.76Q150.5,71,144.52,69.91c4.67-11,9.32-22.32,14-34.12-4.51-12.15-9-23.76-13.58-35l13.2,0Q163,14.1,167.78,28.22l.23,0c3.17-8.81,6.36-17.91,9.56-27.36Z"/></g></g></g></g></svg>