<svg xmlns="http://www.w3.org/2000/svg" viewBox="0 0 344.14 325.01"><defs><style>.cls-1,.cls-3{fill:none;stroke-miterlimit:10;}.cls-1{stroke:#d3d3d3;stroke-width:3.5px;}.cls-2{fill:#d3d3d3;}.cls-3{stroke:#1f3244;stroke-width:1.5px;}.cls-4{fill:#cb473c;}</style></defs><title>logo-background</title><g id="Calque_2" data-name="Calque 2"><g id="Logo"><g id="atome"><ellipse class="cls-1" cx="172.9" cy="162.36" rx="49.41" ry="171.94" transform="translate(-63.39 141.86) rotate(-38.24)"/><ellipse class="cls-1" cx="171.93" cy="162.5" rx="171.94" ry="49.41" transform="translate(-42.73 261.94) rotate(-68.24)"/><ellipse class="cls-1" cx="172.07" cy="163.48" rx="171.94" ry="49.41" transform="matrix(0.99, -0.14, 0.14, 0.99, -21.65, 26.35)"/><circle class="cls-2" cx="92.94" cy="285.21" r="6.85" transform="translate(-39.92 16.26) rotate(-8.24)"/><circle class="cls-2" cx="303.36" cy="114.46" r="6.85" transform="translate(-13.27 44.66) rotate(-8.24)"/><circle class="cls-2" cx="115.38" cy="38.82" r="6.85" transform="translate(-4.37 16.94) rotate(-8.24)"/></g><g id="logo-2" data-name="logo"><g id="atome-2" data-name="atome"><ellipse class="cls-3" cx="172.5" cy="162.36" rx="49.41" ry="171.94" transform="translate(-63.48 141.61) rotate(-38.24)"/><ellipse class="cls-3" cx="171.53" cy="162.5" rx="171.94" ry="49.41" transform="translate(-42.99 261.56) rotate(-68.24)"/><ellipse class="cls-3" cx="171.67" cy="163.48" rx="171.94" ry="49.41" transform="matrix(0.99, -0.14, 0.14, 0.99, -21.66, 26.29)"/><circle class="cls-4" cx="92.94" cy="285.21" r="5.43" transform="translate(-39.92 16.26) rotate(-8.24)"/><circle class="cls-4" cx="303.36" cy="114.46" r="5.43" transform="translate(-13.27 44.66) rotate(-8.24)"/><circle class="cls-4" cx="115.38" cy="38.82" r="5.43" transform="translate(-4.37 16.94) rotate(-8.24)"/></g><g id="cflix"><path class="cls-4" d="M115.16,166.19l-.07,9.39c-.08,11.28-6.65,18.88-19,22.42s-18.56-1.27-18.58-14.42q0-21.08,0-42.16c0-13.1,6.48-20.51,19-20.38s18.95,6.54,18.86,17.78l-.05,6.87q-6,.43-12,1l.05-7.87c0-5.23-2.5-7.14-6.54-7s-6.6,2.34-6.62,7.86L90,181.22c0,5.52,2.47,6.82,6.48,5.84s6.55-3.41,6.58-8.64l.07-10.49Q109.14,167,115.16,166.19Z"/><path class="cls-4" d="M135.79,151.69q8.25-.49,16.53-.76l0,9.37q-8.29.36-16.55,1l-.19,27.77q-6.42.85-12.81,2l.54-69.22,33.71,0,0,9.33q-10.5.09-21,.3Z"/><path class="cls-4" d="M163.11,121.78h12.74q0,27.8,0,55.59,10.62.1,21.22.89l0,9.41a284,284,0,0,0-34.19-.89Q163,154.28,163.11,121.78Z"/><path class="cls-4" d="M202.38,121.8l12.74,0,.51,68.07q-6.41-1-12.85-1.67Z"/><path class="cls-4" d="M266.89,122c-4.43,13.06-8.81,25.39-13.15,37.15,4.76,13.81,9.47,28.39,14.08,43.93q-6.52-2.32-13.11-4.31c-3.42-11.15-6.87-21.84-10.35-32.14l-.23,0c-3.39,9.21-6.78,18.1-10.17,26.76Q228,192,222,190.94c4.67-11,9.32-22.32,14-34.12-4.51-12.15-9-23.76-13.58-35l13.2,0q4.85,13.27,9.66,27.39l.23,0c3.17-8.81,6.36-17.91,9.56-27.36Z"/></g></g></g></g></svg>