<svg xmlns="http://www.w3.org/2000/svg" viewBox="0 0 191.56 41.35"><defs><style>.cls-1{fill:#cb473c;}.cls-2{fill:#dcdada;}</style></defs><title>slogan-white</title><g id="Calque_2" data-name="Calque 2"><g id="Logo"><g id="logo_white" data-name="logo white"><g id="slogan"><path class="cls-1" d="M.12,0H20.34q.12,0,.12.12V20.34a.1.1,0,0,1-.12.12H.12A.1.1,0,0,1,0,20.34V.12Q0,0,.12,0ZM6,5.32Q9,14,9.13,14.62h2.2q0-.13,3.12-9.3h-2q-2.14,6.83-2.14,7.34h-.12q0-.46-2.14-7.34Z"/><path class="cls-2" d="M25.23,8.06h.35q2.48.49,2.49,1a3.14,3.14,0,0,1,1,2.49V12a3,3,0,0,1-1.85,2.72.59.59,0,0,1-.29.06h-.4q-.25,0-.52-.4a3.06,3.06,0,0,0-.52-.06h-.29a1.44,1.44,0,0,0-1,.4,1.69,1.69,0,0,1-.4.06,3.62,3.62,0,0,1-1.79-2,2.67,2.67,0,0,1-.23-1.1v-.46a3.24,3.24,0,0,1,2.08-2.83A3.2,3.2,0,0,1,25.23,8.06ZM24,11.53q0,1.4,1.16,1.56h.06q1.33,0,1.33-1.16V11q0-.87-1.27-.87A1.28,1.28,0,0,0,24,11.47Zm.64-3.06v.12q0,.09.17.17h1q.16,0,.23-.4h-.75A2.59,2.59,0,0,0,24.65,8.47Z"/><path class="cls-2" d="M30.57,8h.23A1.82,1.82,0,0,1,32.6,9.39a2.05,2.05,0,0,1,.06.52v.46a10,10,0,0,1-.06,1q.14,1.33.4,1.33h.12q1.68,0,1.68-2.14V9.45q0-1.39.92-1.39h.35q.43,0,.46.17V9.45a16,16,0,0,1,.35,3.06A12,12,0,0,0,37,14.3v.06q-.06.17-.35.17h-.52q-.29,0-1-1a.45.45,0,0,1-.23-.4h-.23a1.28,1.28,0,0,0-.81.4,6.92,6.92,0,0,1-.75.06l-.69-.06q-.38.14-.4.29v.06q1.33.22,1.33.75a.81.81,0,0,1-.52.17h-.17Q31,14.62,31,14a4.64,4.64,0,0,1-.4-1.68v-2q0-.32-.23-1.85V8.24Q30.34,8.15,30.57,8Z"/><path class="cls-2" d="M40.31,8.18q.12,0,.12.12v.06q0,.26-.4.52V9h.17q1.62-.12,1.62-.75l1.39.29A3.65,3.65,0,0,0,44,8.35a7.09,7.09,0,0,1,.12,1.1q0,.75-.23.75H43.6a2.25,2.25,0,0,1-1.27-.29q0-.13-.87-.17a1.41,1.41,0,0,0-.69.46A1.36,1.36,0,0,0,42,11q2.48.78,2.49,1.79v.4q0,.84-1.21,1.56a3,3,0,0,0-.81.12.44.44,0,0,1-.06-.17.5.5,0,0,0,.06-.29,4.49,4.49,0,0,0-.87-.12h-.06a4.72,4.72,0,0,1-1.16.29h-.06a5.61,5.61,0,0,0-1-.29l-.46.4h-.23a4.29,4.29,0,0,1-.29-1.21v-.23q.12-.58.58-.58h.4a10.4,10.4,0,0,0,2.43.64,1.12,1.12,0,0,0,.81-.46q0-.78-2.66-1.16a2,2,0,0,1-1.39-2.08q.51-1.2,1.16-1.39Z"/><path class="cls-2" d="M56.46,7.77h.12a2.86,2.86,0,0,1,2.54,1.68,5.06,5.06,0,0,1,.29,1.27v.12q0,.58-1.16.58H55.19v.29q.16,1,1,1h.17q.26,0,2.31-.4a.41.41,0,0,1,.46.46v.29q-.53,1.45-1.68,1.44h-.12a.05.05,0,0,0-.06-.06q0-.13.58-.64v-.06H55.08q0,.19.58.29a1,1,0,0,1,.12.46v.12h.81q.12,0,.12.12l-.12.06h-.75q-1.88,0-2.66-2.31a2,2,0,0,1-.06-.52V10.37q0-1,1.44-2.14A5.9,5.9,0,0,1,56.46,7.77Zm-1.16,2.54h2.25V9.8q-.06-.2-1.33-.29-.68,0-.81.46A.67.67,0,0,1,55.31,10.32Z"/><path class="cls-2" d="M62.45,5.75l.06.12v.52a3.37,3.37,0,0,0,.64,1.33v.87a4.29,4.29,0,0,0,.81.35l.29.52a5.65,5.65,0,0,1-1.1.35v1.68q0,1,.29,1l1.39-.17a2.45,2.45,0,0,1,.17.81q-.09.81-.23.81-.35,0-.4-.46a12.41,12.41,0,0,0-1.68.29q.12.52.52.52.29.23.29.29t-.46.23h-.35q-.92,0-1.16-1.39a2.64,2.64,0,0,1-.06-.69V12.4q0-.84.06-2.6-.75-.14-.75-.29V8.87q0-.29-.06-.87A3.94,3.94,0,0,0,61.93,6.1Q62.29,5.75,62.45,5.75Z"/><path class="cls-2" d="M69.64,7.77h.12A2.86,2.86,0,0,1,72.3,9.45a5.06,5.06,0,0,1,.29,1.27v.12q0,.58-1.16.58H68.37v.29q.16,1,1,1h.17q.26,0,2.31-.4a.41.41,0,0,1,.46.46v.29q-.53,1.45-1.68,1.44h-.12a.05.05,0,0,0-.06-.06q0-.13.58-.64v-.06H68.25q0,.19.58.29a1,1,0,0,1,.12.46v.12h.81q.12,0,.12.12l-.12.06H69q-1.88,0-2.66-2.31a2,2,0,0,1-.06-.52V10.37q0-1,1.44-2.14A5.9,5.9,0,0,1,69.64,7.77Zm-1.16,2.54h2.25V9.8q-.06-.2-1.33-.29-.68,0-.81.46A.67.67,0,0,1,68.48,10.32Z"/><path class="cls-2" d="M75.85,8.18q.12,0,.12.12v.06q0,.26-.4.52V9h.17q1.62-.12,1.62-.75l1.39.29a3.65,3.65,0,0,0,.81-.23,7.09,7.09,0,0,1,.12,1.1q0,.75-.23.75h-.29a2.25,2.25,0,0,1-1.27-.29q0-.13-.87-.17a1.41,1.41,0,0,0-.69.46,1.36,1.36,0,0,0,1.21.75Q80,11.73,80,12.74v.4q0,.84-1.21,1.56a3,3,0,0,0-.81.12.44.44,0,0,1-.06-.17.5.5,0,0,0,.06-.29,4.49,4.49,0,0,0-.87-.12h-.06a4.72,4.72,0,0,1-1.16.29h-.06a5.61,5.61,0,0,0-1-.29l-.46.4h-.23a4.29,4.29,0,0,1-.29-1.21v-.23q.12-.58.58-.58h.4a10.4,10.4,0,0,0,2.43.64,1.12,1.12,0,0,0,.81-.46q0-.78-2.66-1.16a2,2,0,0,1-1.39-2.08q.51-1.2,1.16-1.39Z"/><path class="cls-2" d="M92.58,7.66h.17A3,3,0,0,1,95.3,9.33a3.43,3.43,0,0,1,.4,1.56v.75a3.23,3.23,0,0,1-1.79,3,3.46,3.46,0,0,1-.58.12h-.4a1.8,1.8,0,0,1-1.21-.46v-.06h.46A10.82,10.82,0,0,1,93.51,14v-.23H92.18a1.74,1.74,0,0,1-1-.46,12.6,12.6,0,0,0-.4,1.68,2.55,2.55,0,0,0-.58,1.16,3.06,3.06,0,0,0,.64,1.44,1.91,1.91,0,0,1-.81.17H88.77c-.08,0-.12-.06-.12-.17q.36,0,.52-4.51V13q0-4.45-.46-4.45V8.47l.06-.52h.29a1.6,1.6,0,0,1,1.56,1V9H91l.87-.4a7.23,7.23,0,0,1,.81-.06h.23V8.29h-.46q-.58-.07-.58-.23V7.89Q91.83,7.7,92.58,7.66ZM91,11.3v.17a3.07,3.07,0,0,0,.4,1.1H93q.2,0,.46-1.39a5.28,5.28,0,0,0-.4-1.5H91.6A2.19,2.19,0,0,0,91,11.3Z"/><path class="cls-2" d="M97.47,5.4h.29q.87,0,.87.75a5.54,5.54,0,0,1,.23,2.08v.64q0,2.12-.23,5.14.58.1.58.52a2,2,0,0,1-.69.29h-.17Q97,14.75,97,14.59q.06-.46.4-.46.06-1.16.06-1.73v-4a13.06,13.06,0,0,0-.23-2.77Z"/><path class="cls-2" d="M100.73,8H101a1.82,1.82,0,0,1,1.79,1.39,2.05,2.05,0,0,1,.06.52v.46a10,10,0,0,1-.06,1q.14,1.33.4,1.33h.12q1.68,0,1.68-2.14V9.45q0-1.39.92-1.39h.35q.43,0,.46.17V9.45a16,16,0,0,1,.35,3.06,12,12,0,0,0,.17,1.79v.06q-.06.17-.35.17h-.52q-.29,0-1-1a.45.45,0,0,1-.23-.4h-.23a1.28,1.28,0,0,0-.81.4,6.93,6.93,0,0,1-.75.06l-.69-.06q-.38.14-.4.29v.06q1.33.22,1.33.75a.81.81,0,0,1-.52.17h-.17q-1.73-.2-1.73-.81a4.63,4.63,0,0,1-.4-1.68v-2q0-.32-.23-1.85V8.24C100.5,8.18,100.58,8.1,100.73,8Z"/><path class="cls-2" d="M110.47,8.18c.08,0,.12,0,.12.12v.06q0,.26-.4.52V9h.17Q112,8.93,112,8.29l1.39.29a3.66,3.66,0,0,0,.81-.23,7.14,7.14,0,0,1,.12,1.1q0,.75-.23.75h-.29a2.25,2.25,0,0,1-1.27-.29q0-.13-.87-.17a1.41,1.41,0,0,0-.69.46,1.36,1.36,0,0,0,1.21.75q2.48.78,2.49,1.79v.4q0,.84-1.21,1.56a3,3,0,0,0-.81.12.43.43,0,0,1-.06-.17.5.5,0,0,0,.06-.29,4.49,4.49,0,0,0-.87-.12h-.06a4.72,4.72,0,0,1-1.16.29h-.06a5.62,5.62,0,0,0-1-.29l-.46.4h-.23a4.29,4.29,0,0,1-.29-1.21v-.23q.11-.58.58-.58h.4a10.4,10.4,0,0,0,2.43.64,1.12,1.12,0,0,0,.81-.46q0-.78-2.66-1.16a2,2,0,0,1-1.39-2.08q.5-1.2,1.16-1.39Z"/><path class="cls-2" d="M126.91,7.83h.23A1.94,1.94,0,0,1,128.94,9a5,5,0,0,1,.23,1.62q0,.56-.12,2.77H129l.35,1v.12c0,.12-.08.17-.23.17a1,1,0,0,1-1-.81,1,1,0,0,0-.75-.46,11.6,11.6,0,0,0-1.73.64,2,2,0,0,0-.23.75h-.06q-1.56-.26-1.56-.64a1.73,1.73,0,0,1-.52-1.1v-.35q0-1.18,2-1.91,2.14,0,2.14-.46l-.29-.64-.29.06h-.46a1.86,1.86,0,0,0-1.39.4h-.64a.63.63,0,0,1-.58-.4V9.68q0-1,.23-1a.89.89,0,0,1,.58.23,5.45,5.45,0,0,0,1.1-.23h.23a7.38,7.38,0,0,1,1.79.29V8.87a2.73,2.73,0,0,0-.87-1ZM125,12.45v.35a1.94,1.94,0,0,0,.81.29,3.21,3.21,0,0,0,1.44-.64v-.87h-.17A2.75,2.75,0,0,0,125,12.45Z"/><path class="cls-2" d="M135.79,5.06h.64q.92,0,.92.35a21.92,21.92,0,0,1,.17,2.66q-.06,2.24-.06,4.16a6.5,6.5,0,0,0,.29,2.14,1.91,1.91,0,0,1-.81.17q-.35,0-.87-.92l-.64-.46q-1.13.4-1.27.69.92,0,.92.23v.06a1.52,1.52,0,0,1-1.16.69,4.86,4.86,0,0,1-2-.69,4.86,4.86,0,0,1-1.27-2.95v-.06a3.92,3.92,0,0,1,2-3.29,4.87,4.87,0,0,1,1-.35.74.74,0,0,1,.69.35v.12a.42.42,0,0,0-.12.23q0,.3,1.27.75h.06a.1.1,0,0,0,.12-.12,4.44,4.44,0,0,0-.12-1q.16-1.16.81-1.16v-.4a5.46,5.46,0,0,0-.52-1Zm-3.06,8.55v.06a.43.43,0,0,1,.12.23H133l.4-.06v-.23Zm.23-2.25q0,1.1.58,1.1c0,.08.19.12.58.12h.23a1.18,1.18,0,0,0,1.1-1.33V11q0-1.18-1.56-1.44a1.06,1.06,0,0,0-.87,1.1Z"/><path class="cls-2" d="M144.19,5.06h.64q.92,0,.92.35a21.92,21.92,0,0,1,.17,2.66q-.06,2.24-.06,4.16a6.5,6.5,0,0,0,.29,2.14,1.91,1.91,0,0,1-.81.17q-.35,0-.87-.92l-.64-.46q-1.13.4-1.27.69.92,0,.92.23v.06a1.52,1.52,0,0,1-1.16.69,4.86,4.86,0,0,1-2-.69,4.86,4.86,0,0,1-1.27-2.95v-.06a3.92,3.92,0,0,1,2-3.29,4.87,4.87,0,0,1,1-.35.74.74,0,0,1,.69.35v.12a.42.42,0,0,0-.12.23q0,.3,1.27.75h.06a.1.1,0,0,0,.12-.12,4.44,4.44,0,0,0-.12-1q.16-1.16.81-1.16v-.4a5.46,5.46,0,0,0-.52-1Zm-3.06,8.55v.06a.43.43,0,0,1,.12.23h.17l.4-.06v-.23Zm.23-2.25q0,1.1.58,1.1c0,.08.19.12.58.12h.23a1.18,1.18,0,0,0,1.1-1.33V11q0-1.18-1.56-1.44a1.06,1.06,0,0,0-.87,1.1Z"/><path class="cls-2" d="M149.37,7.77q.17,0,.17.92v1.68q0,1.17-.06,3.18l.29,1.1a3.46,3.46,0,0,1-1,.17h-.23a.56.56,0,0,1-.58-.29V10.2l.4-1q0-.2-.87-.64a1.24,1.24,0,0,1,1.27-.81Zm-.69-2.6h.06q.64.46.64.64v.12q-.41.64-.58.64a.88.88,0,0,1-.75-.87V5.52Z"/><path class="cls-2" d="M153.67,8.12H154c.08,0,.12,0,.12.12v.06q-.69.29-.69.52a2.58,2.58,0,0,0,.69.12h1a1.58,1.58,0,0,1,1,.35,5,5,0,0,0,.52-.29h.17a2.22,2.22,0,0,1,.52.87V10q0,.43-.69.87a.46.46,0,0,1-.23.06A9.23,9.23,0,0,1,155,10l-.46-.06q-1.27,0-1.27,1.56a1.5,1.5,0,0,0,1.16,1.62,3.32,3.32,0,0,0,1.85-.87h.17q.69.36.69.75v.12q0,1.07-1.56,1.62a.05.05,0,0,0-.06-.06,1.32,1.32,0,0,1,.12-.4.43.43,0,0,1-.06-.17h-2.25q.17.29.35.29a.44.44,0,0,1,.17-.06,1.16,1.16,0,0,1,.17.46l-.12.06h-.23q-2.6,0-2.6-3.06v-1.1q0-1.29,2.31-2.49A.59.59,0,0,1,153.67,8.12Z"/><path class="cls-2" d="M160.46,5.75l.06.12v.52a3.37,3.37,0,0,0,.64,1.33v.87a4.28,4.28,0,0,0,.81.35l.29.52a5.66,5.66,0,0,1-1.1.35v1.68q0,1,.29,1l1.39-.17a2.45,2.45,0,0,1,.17.81q-.09.81-.23.81-.35,0-.4-.46a12.4,12.4,0,0,0-1.68.29q.11.52.52.52c.19.15.29.25.29.29s-.15.17-.46.23h-.35q-.93,0-1.16-1.39a2.63,2.63,0,0,1-.06-.69V12.4q0-.84.06-2.6-.75-.14-.75-.29V8.87q0-.29-.06-.87a4,4,0,0,0,1.21-1.91Q160.3,5.75,160.46,5.75Z"/><path class="cls-2" d="M59.08,6.09v.22H57.48L56.24,4.83,55,6.31H53.44V6.08l2.2-2.27h1.21Z"/><path class="cls-1" d="M21,20.89H41.19c.08,0,.12,0,.12.12V41.24a.1.1,0,0,1-.12.12H21a.1.1,0,0,1-.12-.12V21C20.85,20.93,20.89,20.89,21,20.89Zm6.13,10q0,3.55,2.83,4.57a9.34,9.34,0,0,0,1.68.17l1.79,2.08h2.49l-2.2-2.49q2.25-1.14,2.25-4.45t-2.49-4.39a7,7,0,0,0-1.85-.29Q27.09,26.1,27.09,30.89Zm4.39-3.18h.06q2.31,0,2.31,2.95v.46q0,2.89-2.31,2.89h-.06q-2.31,0-2.31-2.95V30.6q0-2.27,1.68-2.83A4.56,4.56,0,0,1,31.48,27.71Z"/><path class="cls-2" d="M42.83,28.9h.23a1.82,1.82,0,0,1,1.79,1.39,2.05,2.05,0,0,1,.06.52v.46a10,10,0,0,1-.06,1q.14,1.33.4,1.33h.12q1.68,0,1.68-2.14V30.34Q47.05,29,48,29h.35q.43,0,.46.17v1.21a16,16,0,0,1,.35,3.06,12,12,0,0,0,.17,1.79v.06q-.06.17-.35.17h-.52q-.29,0-1-1a.45.45,0,0,1-.23-.4H47a1.28,1.28,0,0,0-.81.4,7,7,0,0,1-.75.06l-.69-.06c-.25.1-.39.19-.4.29v.06q1.33.22,1.33.75a.81.81,0,0,1-.52.17H45q-1.73-.2-1.73-.81a4.64,4.64,0,0,1-.4-1.68v-2q0-.32-.23-1.85v-.29Q42.6,29,42.83,28.9Z"/><path class="cls-2" d="M54,28.67h.12a2.86,2.86,0,0,1,2.54,1.68,5.06,5.06,0,0,1,.29,1.27v.12q0,.58-1.16.58H52.69v.29q.16,1,1,1h.17q.26,0,2.31-.4a.41.41,0,0,1,.46.46V34q-.53,1.44-1.68,1.44h-.12a.05.05,0,0,0-.06-.06q0-.13.58-.64v-.06H52.57c0,.12.19.22.58.29a1,1,0,0,1,.12.46v.12h.81c.08,0,.12,0,.12.12l-.12.06h-.75q-1.88,0-2.66-2.31a2,2,0,0,1-.06-.52V31.27q0-1,1.44-2.14A5.89,5.89,0,0,1,54,28.67ZM52.8,31.21h2.25v-.52q-.06-.2-1.33-.29-.68,0-.81.46A.67.67,0,0,1,52.8,31.21Z"/><path class="cls-2" d="M66.07,29.19h.64a1.13,1.13,0,0,1,1,.4.71.71,0,0,1-.46.23,10.27,10.27,0,0,1,1.39,3.35h.17q.46,0,.46-1,1.05-3,2-3H72q.09,0,.23.23a22,22,0,0,0-2.37,5.14,5,5,0,0,1-.64,1.16h-.52q-.88-.66-2.49-5.37a2.94,2.94,0,0,1-.64-1A1.55,1.55,0,0,1,66.07,29.19Z"/><path class="cls-2" d="M77,29h.35q2.48.49,2.49,1a3.14,3.14,0,0,1,1,2.49v.52a3,3,0,0,1-1.85,2.72.59.59,0,0,1-.29.06h-.4q-.25,0-.52-.4a3.06,3.06,0,0,0-.52-.06H76.9a1.44,1.44,0,0,0-1,.4,1.71,1.71,0,0,1-.4.06,3.62,3.62,0,0,1-1.79-2,2.67,2.67,0,0,1-.23-1.1v-.46a3.24,3.24,0,0,1,2.08-2.83A3.2,3.2,0,0,1,77,29Zm-1.21,3.47q0,1.4,1.16,1.56H77q1.33,0,1.33-1.16v-1Q78.29,31,77,31a1.28,1.28,0,0,0-1.27,1.39Zm.64-3.06v.12q0,.09.17.17h1q.16,0,.23-.4h-.75A2.58,2.58,0,0,0,76.38,29.36Z"/><path class="cls-2" d="M82.31,28.9h.23a1.82,1.82,0,0,1,1.79,1.39,2.05,2.05,0,0,1,.06.52v.46a10,10,0,0,1-.06,1q.14,1.33.4,1.33h.12q1.68,0,1.68-2.14V30.34q0-1.39.92-1.39h.35q.43,0,.46.17v1.21a16,16,0,0,1,.35,3.06,12,12,0,0,0,.17,1.79v.06q-.06.17-.35.17h-.52q-.29,0-1-1a.45.45,0,0,1-.23-.4h-.23a1.28,1.28,0,0,0-.81.4,7,7,0,0,1-.75.06l-.69-.06c-.25.1-.39.19-.4.29v.06q1.33.22,1.33.75a.81.81,0,0,1-.52.17h-.17q-1.73-.2-1.73-.81a4.64,4.64,0,0,1-.4-1.68v-2q0-.32-.23-1.85v-.29Q82.08,29,82.31,28.9Z"/><path class="cls-2" d="M92,29.07c.08,0,.12,0,.12.12v.06q0,.26-.4.52v.17h.17q1.62-.12,1.62-.75l1.39.29a3.67,3.67,0,0,0,.81-.23,7.09,7.09,0,0,1,.12,1.1q0,.75-.23.75h-.29a2.25,2.25,0,0,1-1.27-.29q0-.13-.87-.17a1.41,1.41,0,0,0-.69.46,1.36,1.36,0,0,0,1.21.75q2.48.78,2.49,1.79V34q0,.84-1.21,1.56a3,3,0,0,0-.81.12.44.44,0,0,1-.06-.17.5.5,0,0,0,.06-.29,4.46,4.46,0,0,0-.87-.12h-.06a4.72,4.72,0,0,1-1.16.29H92a5.57,5.57,0,0,0-1-.29l-.46.4h-.23a4.29,4.29,0,0,1-.29-1.21V34.1q.12-.58.58-.58h.4a10.4,10.4,0,0,0,2.43.64,1.12,1.12,0,0,0,.81-.46q0-.78-2.66-1.16a2,2,0,0,1-1.39-2.08q.51-1.2,1.16-1.39Z"/><path class="cls-2" d="M109.18,28.72h.06a3,3,0,0,1,1.79,1,3.89,3.89,0,0,1,.35,1.68v1.85q0,1.66.58,2.08,0,.19-.87.35h-.23q-.92,0-.92-.23v-.64a1.12,1.12,0,0,1-.64-1.16v-.87q0-2.2-.46-2.2h-.23a1.31,1.31,0,0,0-1.27.69,20.5,20.5,0,0,0-.23,3,1.65,1.65,0,0,1-.52.52v.23a.49.49,0,0,1,.4.29v.06a.86.86,0,0,1-.69.29H106q-1.16,0-1.16-.23a1,1,0,0,1,.46-.69,12.89,12.89,0,0,0,.12-1.79V30.52a4.24,4.24,0,0,1-.46-1.27,1.91,1.91,0,0,1,.75-.12h.4q.92.59.92,1v.29a3.65,3.65,0,0,0,.92-.58,7.82,7.82,0,0,1,1.21-.29v-.12q-.23,0-.75-.52v-.06A3.94,3.94,0,0,1,109.18,28.72Z"/><path class="cls-2" d="M116.61,28.67h.12a2.86,2.86,0,0,1,2.54,1.68,5,5,0,0,1,.29,1.27v.12q0,.58-1.16.58h-3.06v.29q.16,1,1,1h.17q.26,0,2.31-.4a.41.41,0,0,1,.46.46V34q-.53,1.44-1.68,1.44h-.12a.05.05,0,0,0-.06-.06q0-.13.58-.64v-.06h-2.77c0,.12.19.22.58.29a1,1,0,0,1,.12.46v.12h.81c.08,0,.12,0,.12.12l-.12.06H116q-1.88,0-2.66-2.31a2.05,2.05,0,0,1-.06-.52V31.27q0-1,1.44-2.14A5.89,5.89,0,0,1,116.61,28.67Zm-1.16,2.54h2.25v-.52q-.06-.2-1.33-.29-.68,0-.81.46A.67.67,0,0,1,115.45,31.21Z"/><path class="cls-2" d="M128.66,26.3h.29q.87,0,.87.75a5.52,5.52,0,0,1,.23,2.08v.64q0,2.12-.23,5.14.58.1.58.52a2,2,0,0,1-.69.29h-.17q-1.33-.07-1.33-.23.06-.46.4-.46.06-1.16.06-1.73v-4a13.06,13.06,0,0,0-.23-2.77Z"/><path class="cls-2" d="M135,28.67h.12a2.86,2.86,0,0,1,2.54,1.68,5,5,0,0,1,.29,1.27v.12q0,.58-1.16.58h-3.06v.29q.16,1,1,1h.17q.26,0,2.31-.4a.41.41,0,0,1,.46.46V34q-.53,1.44-1.68,1.44h-.12a.05.05,0,0,0-.06-.06q0-.13.58-.64v-.06h-2.77c0,.12.19.22.58.29a1,1,0,0,1,.12.46v.12h.81c.08,0,.12,0,.12.12l-.12.06h-.75q-1.88,0-2.66-2.31a2.05,2.05,0,0,1-.06-.52V31.27q0-1,1.44-2.14A5.89,5.89,0,0,1,135,28.67Zm-1.16,2.54h2.25v-.52q-.06-.2-1.33-.29-.68,0-.81.46A.67.67,0,0,1,133.89,31.21Z"/><path class="cls-2" d="M149.23,29h.35c.08,0,.12,0,.12.12v.06q-.69.29-.69.52a2.58,2.58,0,0,0,.69.12h1a1.58,1.58,0,0,1,1,.35,5.11,5.11,0,0,0,.52-.29h.17a2.22,2.22,0,0,1,.52.87v.12q0,.43-.69.87a.46.46,0,0,1-.23.06,9.29,9.29,0,0,1-1.5-.92l-.46-.06q-1.27,0-1.27,1.56A1.5,1.5,0,0,0,150,34a3.32,3.32,0,0,0,1.85-.87H152q.69.36.69.75V34q0,1.07-1.56,1.62a.05.05,0,0,0-.06-.06,1.32,1.32,0,0,1,.12-.4.45.45,0,0,1-.06-.17h-2.25q.17.29.35.29a.45.45,0,0,1,.17-.06,1.15,1.15,0,0,1,.17.46l-.12.06h-.23q-2.6,0-2.6-3.06v-1.1q0-1.29,2.31-2.49A.59.59,0,0,1,149.23,29Z"/><path class="cls-2" d="M154.64,29.19h.52q1,0,1.44,1.79h.06a13.35,13.35,0,0,1,2.49-1.5,1.26,1.26,0,0,1,.46.75v.17q0,.9-2.6,1.27h-.23q0,3.12-.46,3.12l-.12.17s.16.15.35.46a.48.48,0,0,1-.46.29h-.46q-1.33,0-1.33-.29.64-.59.64-2.77a11.62,11.62,0,0,0-.46-3.29Q154.46,29.27,154.64,29.19Z"/><path class="cls-2" d="M164.37,29h.35q2.48.49,2.49,1a3.14,3.14,0,0,1,1,2.49v.52a3,3,0,0,1-1.85,2.72.59.59,0,0,1-.29.06h-.4q-.25,0-.52-.4a3,3,0,0,0-.52-.06h-.29a1.44,1.44,0,0,0-1,.4,1.71,1.71,0,0,1-.4.06,3.62,3.62,0,0,1-1.79-2,2.68,2.68,0,0,1-.23-1.1v-.46A3.24,3.24,0,0,1,163,29.3,3.2,3.2,0,0,1,164.37,29Zm-1.21,3.47q0,1.4,1.16,1.56h.06q1.33,0,1.33-1.16v-1q0-.87-1.27-.87a1.28,1.28,0,0,0-1.27,1.39Zm.64-3.06v.12q0,.09.17.17h1c.11,0,.18-.14.23-.4h-.75A2.58,2.58,0,0,0,163.8,29.36Z"/><path class="cls-2" d="M170,29.42h2l.12.06a6.74,6.74,0,0,0-.29,1.16,7.54,7.54,0,0,0,1,2.6,3,3,0,0,1,.06.52h.17a17.78,17.78,0,0,0,1-2.14q1.39-.51,1.39-1a4,4,0,0,1-.46-1.16h1.27q.52,0,.52.29a71.34,71.34,0,0,0-3.87,8q-.62,1.16-1.44,1.16a.1.1,0,0,0-.12-.12h-1.62c-.15,0-.27-.25-.35-.75V37.1q0-.19.81-.23l1.1.06a1.46,1.46,0,0,0,.58-1v-.23a20.63,20.63,0,0,0-1.79-3.7l-.06-.29v-.06l.58-.29a2.94,2.94,0,0,0-1-1.79v-.12Zm.17,8.58q0,.3.92.4a.87.87,0,0,0,.81-.4Z"/><path class="cls-2" d="M181.54,28.67h.12a2.86,2.86,0,0,1,2.54,1.68,5,5,0,0,1,.29,1.27v.12q0,.58-1.16.58h-3.06v.29q.16,1,1,1h.17q.26,0,2.31-.4a.41.41,0,0,1,.46.46V34q-.53,1.44-1.68,1.44h-.12a.05.05,0,0,0-.06-.06q0-.13.58-.64v-.06h-2.77c0,.12.19.22.58.29a1,1,0,0,1,.12.46v.12h.81c.08,0,.12,0,.12.12l-.12.06h-.75q-1.88,0-2.66-2.31a2.05,2.05,0,0,1-.06-.52V31.27q0-1,1.44-2.14A5.89,5.89,0,0,1,181.54,28.67Zm-1.16,2.54h2.25v-.52q-.06-.2-1.33-.29-.68,0-.81.46A.67.67,0,0,1,180.38,31.21Z"/><path class="cls-2" d="M186.48,29.19h.12q.39,0,.75.75,1.79.17,2.54.17.1,0,.69-.69l.75-.12.06.12a2.69,2.69,0,0,1-.81,2.14,23,23,0,0,0-2.25,2.54v.06h1.44a6.84,6.84,0,0,0,1.56-.35,3.61,3.61,0,0,1,.23,1.1v.17q0,.64-.17.64h-.46a.87.87,0,0,1-.87-.4,5.81,5.81,0,0,0-1.73-.17h-.87a1.71,1.71,0,0,0-1.1.58h-.12a.48.48,0,0,1-.46-.29v-.12q0-1,2.95-3.7a1.33,1.33,0,0,1,.23-.4,9.83,9.83,0,0,0-1.44-.17h-1.39q-.23,0-.23-1v-.06Q186,29.19,186.48,29.19Z"/></g></g></g></g></svg>