<?xml version="1.0" encoding="iso-8859-1"?>
<!-- Generator: Adobe Illustrator 18.0.0, SVG Export Plug-In . SVG Version: 6.00 Build 0)  -->
<!DOCTYPE svg PUBLIC "-//W3C//DTD SVG 1.1//EN" "http://www.w3.org/Graphics/SVG/1.1/DTD/svg11.dtd">
<svg version="1.1" id="Capa_1" xmlns="http://www.w3.org/2000/svg" xmlns:xlink="http://www.w3.org/1999/xlink" x="0px" y="0px"
	 viewBox="0 0 439.023 439.023" style="enable-background:new 0 0 439.023 439.023;" xml:space="preserve">
<g>
	<g>
		<path d="M231.266,296.678h-23.508c-2.761,0-5-2.239-5-5c0-2.761,2.239-5,5-5h23.508c2.761,0,5,2.239,5,5
			C236.266,294.439,234.027,296.678,231.266,296.678z"/>
	</g>
	<g>
		<g>
			<g>
				<g>
					<path d="M172.576,197.824c-18.352,0-33.283-14.93-33.283-33.282c0-18.352,14.931-33.282,33.283-33.282
						c18.352,0,33.281,14.93,33.281,33.282C205.857,182.894,190.928,197.824,172.576,197.824z M172.576,141.26
						c-12.838,0-23.283,10.444-23.283,23.282s10.445,23.282,23.283,23.282c12.837,0,23.281-10.444,23.281-23.282
						S185.414,141.26,172.576,141.26z"/>
				</g>
				<g>
					<path d="M172.581,169.543c-1.32,0-2.61-0.53-3.54-1.47c-0.93-0.93-1.46-2.21-1.46-3.53c0-1.32,0.53-2.61,1.46-3.54
						c0.93-0.93,2.22-1.46,3.54-1.46c1.31,0,2.6,0.53,3.53,1.46c0.93,0.93,1.46,2.22,1.46,3.54c0,1.32-0.53,2.6-1.46,3.53
						C175.181,169.013,173.891,169.543,172.581,169.543z"/>
				</g>
			</g>
			<path d="M266.451,131.26c-18.352,0-33.281,14.93-33.281,33.282c0,18.352,14.93,33.282,33.281,33.282
				c18.351,0,33.28-14.93,33.28-33.282C299.731,146.19,284.802,131.26,266.451,131.26z M266.451,141.26
				c9.041,0,16.888,5.184,20.743,12.732h-41.486C249.563,146.444,257.41,141.26,266.451,141.26z M266.451,187.824
				c-12.837,0-23.281-10.444-23.281-23.282c0-0.184,0.01-0.367,0.014-0.55h18.323c-0.021,0.184-0.056,0.365-0.056,0.551
				c0,1.32,0.54,2.6,1.47,3.53c0.93,0.94,2.21,1.47,3.53,1.47c1.32,0,2.6-0.53,3.54-1.47c0.93-0.93,1.46-2.22,1.46-3.53
				c0-0.186-0.034-0.367-0.055-0.551h18.322c0.004,0.183,0.014,0.365,0.014,0.55C289.731,177.379,279.288,187.824,266.451,187.824z"
				/>
		</g>
		<g>
			<g>
				<path d="M204.326,213.346c-0.675,0-1.361-0.138-2.018-0.428c-2.526-1.116-3.669-4.068-2.552-6.594l6.86-15.523
					c1.116-2.525,4.067-3.669,6.594-2.552c2.526,1.116,3.669,4.068,2.552,6.594l-6.86,15.523
					C208.077,212.234,206.246,213.346,204.326,213.346z"/>
			</g>
			<g>
				<path d="M234.698,213.346c-1.92,0-3.751-1.112-4.577-2.981l-6.857-15.523c-1.116-2.526,0.027-5.479,2.553-6.594
					c2.528-1.115,5.479,0.028,6.594,2.553l6.857,15.523c1.116,2.526-0.027,5.479-2.553,6.594
					C236.059,213.208,235.373,213.346,234.698,213.346z"/>
			</g>
		</g>
		<path d="M255.298,219.112h-71.573c-7.742,0-14.04,6.299-14.04,14.042v32.211c0,7.742,6.298,14.041,14.04,14.041h71.573
			c7.743,0,14.043-6.299,14.043-14.041v-32.211C269.341,225.411,263.041,219.112,255.298,219.112z M194.501,229.112h13.009v15.147
			h-13.009V229.112z M244.523,269.406h-13.008v-15.146h13.008V269.406z M259.341,265.365c0,2.228-1.814,4.041-4.043,4.041h-0.774
			v-20.146c0-2.761-2.239-5-5-5h-23.008c-2.761,0-5,2.239-5,5v20.146h-37.791c-2.228,0-4.04-1.813-4.04-4.041v-32.211
			c0-2.229,1.813-4.042,4.04-4.042h0.776v20.147c0,2.761,2.239,5,5,5h23.009c2.761,0,5-2.239,5-5v-20.147h37.788
			c2.229,0,4.043,1.813,4.043,4.042V265.365z"/>
	</g>
	<path d="M394.169,433.395c-8.525-67.335-11.559-84.188-11.683-84.872c-0.066-0.363-0.173-0.717-0.317-1.057
		c-21.29-50.122-63.632-71.235-75.874-76.447v-41.619c4.854-0.934,9.116-3.276,12.717-6.999
		c12.921-13.357,12.408-40.573,12.348-42.667c-0.008-21.525-3.194-31.207-6.758-35.298V98.283c5.279-2.019,9.039-7.132,9.039-13.113
		V69.073c0-2.761-2.239-5-5-5s-5,2.239-5,5v13.906c-2.489-14.667-9.761-27.72-20.156-37.501c2.928-2.573,4.785-6.333,4.785-10.529
		V18.851c0-2.761-2.239-5-5-5s-5,2.239-5,5v16.098c0,1.876-1.29,3.443-3.025,3.896c-9.3-6.334-20.273-10.372-32.104-11.337V5
		c0-2.761-2.239-5-5-5s-5,2.239-5,5v22.265h-67.252V5c0-2.761-2.239-5-5-5c-2.761,0-5,2.239-5,5v22.508
		c-11.49,0.936-22.166,4.778-31.29,10.8c-2.134-0.107-3.842-1.861-3.842-4.022V18.188c0-2.761-2.239-5-5-5s-5,2.239-5,5v16.098
		c0,4.369,2.012,8.268,5.151,10.842c-10.594,9.82-18.006,23.013-20.524,37.857V68.41c0-2.761-2.239-5-5-5c-2.761,0-5,2.239-5,5
		v16.098c0,5.979,3.763,11.086,9.04,13.106v46.824c-3.563,4.092-6.75,13.773-6.758,35.298c-0.06,2.091-0.576,29.308,12.346,42.667
		c3.601,3.723,7.864,6.065,12.719,6.999v41.619c-12.243,5.212-54.586,26.325-75.876,76.447c-0.144,0.339-0.25,0.694-0.317,1.057
		c-0.125,0.684-3.158,17.537-11.684,84.872c-0.18,1.424,0.26,2.857,1.209,3.934c0.949,1.077,2.316,1.694,3.751,1.694h339.395
		c1.436,0,2.802-0.617,3.751-1.694C393.909,436.253,394.35,434.819,394.169,433.395z M124.423,101.889
		c3.91-4.858,20.844-23.693,54.337-32.371c-18.753,9.303-40.739,23.174-54.337,41.599V101.889z M127.209,215.459
		c-8.476-8.748-9.765-28.581-9.547-35.48c0.002-0.056,0.003-0.111,0.003-0.167c0-22.311,3.682-27.939,4.319-28.745
		c1.49-0.888,2.438-2.508,2.438-4.294v-15.169c15.912-42.891,91.287-66.495,92.051-66.729c2.366-0.727,3.845-3.075,3.477-5.522
		c-0.367-2.447-2.469-4.258-4.944-4.258c-47.869,0-76.5,19.201-90.089,31.732c3.634-27.922,27.555-49.562,56.452-49.562h76.285
		c30.253,0,55.063,23.716,56.836,53.532c-41.728-7.172-62.511,2.425-63.414,2.858c-2.081,0.997-3.21,3.289-2.731,5.547
		c0.479,2.258,2.441,3.895,4.748,3.961c26.942,0.77,53.323,12.746,61.508,16.792v26.819c0,1.786,0.949,3.406,2.438,4.294
		c0.638,0.806,4.319,6.434,4.319,28.745c0,0.055,0.001,0.111,0.003,0.166c0.229,6.887-1.039,26.685-9.538,35.472
		c-2.873,2.97-6.317,4.414-10.529,4.414c-2.761,0-5,2.239-5,5v10.01l-6.376-6.251c-1.972-1.934-5.138-1.901-7.071,0.07
		c-1.933,1.972-1.902,5.138,0.07,7.071l13.376,13.115v33.051c0,0.05,0.002,0.136,0.003,0.186c0.013,0.434,0.212,10.737-8.86,20.084
		c-9.839,10.137-26.554,15.277-49.68,15.277h-36.49c-23.127,0-39.843-5.14-49.682-15.277c-1.271-1.309-2.354-2.637-3.287-3.954
		l13.124-14.368c1.862-2.039,1.719-5.202-0.32-7.064c-2.038-1.862-5.201-1.718-7.064,0.32l-10.378,11.362
		c-0.988-3.62-0.941-6.151-0.936-6.345c0.004-0.074,0.005-0.147,0.005-0.221v-57.066c0-2.761-2.239-5-5-5
		C133.522,219.864,130.081,218.423,127.209,215.459z M314.602,100.966v7.89c-6.572-3.028-17.009-7.349-29.39-10.701
		C293.326,98.161,303.132,98.892,314.602,100.966z M269.737,323.395c-6.706,11.38-26.988,19.91-50.226,19.91
		c-23.233,0-43.502-8.529-50.21-19.906c9.124,2.7,19.783,4.077,31.966,4.077h36.49C249.947,327.477,260.611,326.098,269.737,323.395
		z M102.855,301.747l14.813,19.687l-12.93,9.457l-0.389-4.169c-0.256-2.75-2.693-4.766-5.443-4.514
		c-2.749,0.257-4.771,2.693-4.514,5.443l0.944,10.117l-3.475,2.541l-7.108-20.013C90.608,313.047,96.808,306.9,102.855,301.747z
		 M204.067,429.023l-2.894-5.676l43.35-14.102v5.429c0,2.761,2.239,5,5,5s5-2.239,5-5v-8.683l13.729-4.466l5.391,13.387l-4.71,1.749
		c-2.589,0.961-3.908,3.839-2.946,6.428c0.748,2.015,2.657,3.261,4.688,3.261c0.579,0,1.167-0.101,1.74-0.314l4.965-1.844
		l1.945,4.831H204.067z M326.385,352.951c-2.458-1.261-5.472-0.289-6.73,2.168l-9.792,19.099c-0.362,0.706-0.551,1.488-0.551,2.281
		v52.525h-19.207l-3.348-8.314l3.628-1.347c2.589-0.961,3.908-3.839,2.946-6.428c-0.961-2.589-3.84-3.908-6.428-2.946l-3.883,1.442
		l-7.236-17.97c-0.982-2.439-3.684-3.698-6.185-2.887l-15.076,4.904v-4.868c0-2.761-2.239-5-5-5s-5,2.239-5,5v8.121l-52.011,16.919
		c-1.391,0.453-2.514,1.492-3.073,2.843c-0.559,1.352-0.499,2.88,0.166,4.183l3.237,6.348h-63.131v-52.525
		c0-0.794-0.189-1.575-0.551-2.281l-9.792-19.099c-1.26-2.457-4.274-3.428-6.73-2.168c-2.457,1.26-3.428,4.273-2.168,6.73
		l9.241,18.024v51.318H55.49c7.158-56.174,10.239-74.931,10.794-78.171c3.288-7.649,7.142-14.563,11.318-20.822l7.085,19.948
		c0.528,1.488,1.729,2.64,3.238,3.105c0.483,0.148,0.979,0.222,1.473,0.222c1.049,0,2.085-0.33,2.952-0.964l4.07-2.977l0.496,5.315
		c0.242,2.592,2.42,4.536,4.973,4.536c0.155,0,0.313-0.007,0.47-0.022c2.749-0.257,4.771-2.693,4.514-5.443l-1.051-11.263
		l21.842-15.975c1.08-0.789,1.798-1.979,1.994-3.303c0.196-1.323-0.146-2.67-0.951-3.739l-7.41-9.847l7.295-8.749
		c1.768-2.121,1.483-5.274-0.638-7.042c-2.12-1.768-5.274-1.483-7.043,0.638l-5.791,6.945l-4.434-5.892
		c8.82-6.53,16.755-10.89,22.041-13.461c-0.021,2.339,0.393,15.303,11.462,26.873c3.624,3.787,7.957,6.994,12.973,9.626
		c2.655,19.728,29.076,34.743,62.349,34.743c33.274,0,59.696-15.015,62.35-34.743c5.016-2.632,9.349-5.839,12.972-9.625
		c11.072-11.571,11.485-24.536,11.464-26.874c14.424,7.017,48.615,27.325,66.443,68.79c0.208,1.216,0.772,4.616,1.772,11.356
		l-9.387,11.612c-1.657-2.511-2.861-4.335-2.991-4.53c-1.533-2.296-4.638-2.916-6.935-1.382c-2.296,1.533-2.915,4.638-1.382,6.935
		c0.158,0.238,2.145,3.247,4.711,7.138l-8.249,10.204c-0.719,0.89-1.112,1.999-1.112,3.143v15.018l-9.279,0.351
		c-2.759,0.104-4.912,2.426-4.808,5.186c0.102,2.695,2.319,4.811,4.993,4.811c0.064,0,0.128-0.001,0.192-0.003l8.901-0.337v8.671
		h-29.858v-51.318l9.241-18.024C329.813,357.224,328.842,354.21,326.385,352.951z M359.17,429.023v-9.049l7.996-0.302
		c2.759-0.104,4.912-2.426,4.808-5.185c-0.104-2.76-2.428-4.922-5.185-4.808l-7.618,0.288v-12.871l5.139-6.357
		c1.394,2.113,2.718,4.121,3.813,5.782c0.962,1.458,2.554,2.248,4.179,2.248c0.944,0,1.9-0.268,2.748-0.827
		c2.305-1.52,2.941-4.621,1.421-6.927c-0.238-0.361-2.726-4.134-5.565-8.436l5.553-6.869c1.692,12.053,4.008,29.239,7.076,53.314
		H359.17z"/>
</g>
<g>
</g>
<g>
</g>
<g>
</g>
<g>
</g>
<g>
</g>
<g>
</g>
<g>
</g>
<g>
</g>
<g>
</g>
<g>
</g>
<g>
</g>
<g>
</g>
<g>
</g>
<g>
</g>
<g>
</g>
</svg>
