<?xml version="1.0" encoding="iso-8859-1"?>
<!-- Generator: Adobe Illustrator 16.0.0, SVG Export Plug-In . SVG Version: 6.00 Build 0)  -->
<!DOCTYPE svg PUBLIC "-//W3C//DTD SVG 1.1//EN" "http://www.w3.org/Graphics/SVG/1.1/DTD/svg11.dtd">
<svg version="1.1" id="Capa_1" xmlns="http://www.w3.org/2000/svg" xmlns:xlink="http://www.w3.org/1999/xlink" x="0px" y="0px"
	 width="459.58px" height="459.58px" viewBox="0 0 459.58 459.58" style="enable-background:new 0 0 459.58 459.58;"
	 xml:space="preserve">
<g>
	<g>
		<path d="M139.646,424.5c1.335,15.879,15.343,27.716,31.219,26.37l82.578-6.978c4.347-0.36,6.134-3.057,3.986-6.002
			c-2.153-2.945-7.419-5.042-11.766-4.677l-75.746,6.398c-9.661,0.797-18.195-6.389-19.007-16.062l-30.96-366.686
			c-0.82-9.661,6.383-18.192,16.054-19.007l73.263-6.185c4.347-0.363,9.315-3.326,11.093-6.604c1.777-3.281-0.307-5.642-4.662-5.279
			l-80.659,6.81c-15.879,1.343-27.698,15.351-26.354,31.214L139.646,424.5z"/>
		<path d="M378.543,413.024l9.354-367.874c0.4-15.927-12.223-29.206-28.147-29.61l-55.192-1.406
			c-4.362-0.109-9.623,2.285-11.745,5.35c-2.128,3.064-0.311,5.639,4.052,5.751l62.597,1.604
			c9.703,0.229,17.392,8.333,17.138,18.034l-9.354,367.856c-0.244,9.709-8.343,17.402-18.037,17.143l-60.697-1.538
			c-4.356-0.112-6.418,2.366-4.61,5.535c1.817,3.169,6.814,5.829,11.177,5.941l53.842,1.376
			C364.848,441.583,378.137,428.939,378.543,413.024z"/>
		<path d="M277.863,401.163c-2.96-3.199-4.804-0.812-2.32,2.777l1.071,1.563c2.483,3.591,4.515,6.186,4.545,5.789
			c0.015-0.238,0.025-0.472,0.01-0.726l-0.122-1.93C280.875,405.738,279.691,403.137,277.863,401.163z"/>
		<path d="M246.659,406.357c3.331-0.284,5.17-1.711,4.093-3.179c-1.076-1.478-3.89-2.504-6.271-2.306l-4.331,0.36
			c-6.66,0.554-11.621,6.435-11.06,13.102l0.167,1.925c0.559,6.652,6.439,11.623,13.097,11.044l16.62-1.386
			c4.347-0.365,7.002-1.858,5.926-3.336c-1.071-1.479-5.475-2.377-9.821-2.006l-13.197,1.122c-3.555,0.289-6.698-2.361-7.003-5.911
			l-0.162-1.93c-0.3-3.544,2.352-6.697,5.9-6.987C240.622,406.86,243.328,406.631,246.659,406.357z"/>
		<path d="M285.495,40.379c0,0-1.863-0.048-4.169-0.111c-2.31-0.063-5.032,1.137-6.099,2.671c-1.061,1.531,0.772,2.844,4.099,2.922
			l6.027,0.15c1.563,0.048,2.858-1.186,2.899-2.75C288.283,41.705,287.059,40.41,285.495,40.379z"/>
		<path d="M132.836,76.773l27.185,321.911c0.132,1.554,1.5,2.701,3.049,2.574l65.798-5.555c4.344-0.36,9.3-3.9,11.052-7.892
			l19.758-44.863c1.763-3.986,1.438-10.309-0.721-14.102l-36.82-64.811c-2.156-3.793-2.679-10.191-1.178-14.284l23.379-63.508
			c1.508-4.093,1.229-10.618-0.62-14.569l-44.782-95.865c-1.849-3.95-6.865-6.857-11.22-6.495l-52.313,4.416
			C133.854,73.859,132.701,75.217,132.836,76.773z M215.927,264.54l36.714,64.632c2.152,3.794,2.473,10.105,0.711,14.092
			l-17.337,39.217c-1.762,3.991-6.713,7.521-11.064,7.892l-51.674,4.362c-4.347,0.36-8.17-2.859-8.541-7.206L139.361,86.98
			c-0.363-4.344,2.859-8.168,7.206-8.531l36.996-3.113c4.344-0.363,9.384,2.536,11.258,6.477l42.739,90.173
			c1.869,3.94,2.163,10.458,0.655,14.551l-23.456,63.738C213.25,254.353,213.779,260.751,215.927,264.54z"/>
		<path d="M278.869,345.279l-11.375,30.58c-1.519,4.093-2.016,8.693-1.117,10.277c0.909,1.59,5.175,2.966,9.547,3.077l77.86,1.971
			c1.564,0.051,2.859-1.184,2.899-2.747l8.216-322.959c0.031-1.556-1.193-2.854-2.757-2.884l-90.805-2.315
			c-4.361-0.109-8.927,0.553-10.196,1.478c-1.274,0.932-1.457,5.119-0.411,9.354l22.617,91.576
			c1.041,4.235,0.229,10.793-1.823,14.64l-38.344,71.777c-2.052,3.85-2.097,10.115-0.102,13.995l34.927,67.766
			C280.006,334.732,280.392,341.197,278.869,345.279z M272.77,65.96l78.516,2.005c4.361,0.109,7.805,3.738,7.698,8.097
			l-7.673,301.523c-0.112,4.356-3.737,7.805-8.1,7.693l-64.354-1.65c-4.361-0.112-6.683-3.524-5.18-7.628l11.391-31.092
			c1.503-4.099,1.097-10.562-0.899-14.442l-34.708-67.328c-1.995-3.88-1.949-10.146,0.107-13.995l37.963-71.066
			c2.057-3.849,2.863-10.397,1.803-14.632l-22.547-90.027C265.732,69.189,268.408,65.848,272.77,65.96z"/>
		<path d="M83.27,63.802c0.198,0.033,0.396,0.048,0.594,0.048c1.815,0,3.42-1.328,3.712-3.176
			c0.063-0.386,6.462-38.979,32.636-43.016c2.054-0.325,3.461-2.252,3.151-4.306c-0.314-2.054-2.227-3.443-4.296-3.144
			c-31.537,4.86-38.633,47.479-38.917,49.297C79.819,61.542,81.216,63.479,83.27,63.802z"/>
		<path d="M399.932,411.278c-1.198-1.082-4.153-1.133-5.281,0.046c-0.675,0.695-1.066,1.645-1.051,2.686
			c0,0.229,0.346,24.105-10.328,33.962c-3.448,3.179-7.668,4.458-12.838,3.95c-2.097-0.213-3.91,1.311-4.113,3.382
			c-0.208,2.067,1.295,3.9,3.372,4.113c0.99,0.097,1.971,0.163,2.925,0.163c6.114,0,11.416-2.057,15.793-6.084
			c13.157-12.177,12.751-38.531,12.726-39.644C401.105,412.801,400.649,411.917,399.932,411.278z"/>
		<path d="M70.679,36.998c0-2.069-1.684-3.76-3.768-3.76H45.264c-2.084,0-3.768,1.699-3.768,3.76c0,2.085,1.684,3.768,3.768,3.768
			h21.655C68.996,40.766,70.679,39.083,70.679,36.998z"/>
		<path d="M73.964,22.62c0.467,0.183,0.947,0.276,1.422,0.276c1.485,0,2.892-0.894,3.483-2.346c0.79-1.927-0.142-4.124-2.062-4.908
			L39.157,0.287c-1.935-0.797-4.123,0.127-4.913,2.069c-0.792,1.927,0.142,4.123,2.062,4.905L73.964,22.62z"/>
		<path d="M423.622,65.31l-24.486-13.081c-1.833-0.973-4.113-0.276-5.094,1.557c-0.979,1.825-0.294,4.108,1.539,5.096l24.476,13.081
			c0.569,0.31,1.168,0.452,1.768,0.452c1.346,0,2.65-0.729,3.326-1.991C426.14,68.583,425.455,66.297,423.622,65.31z"/>
		<path d="M394.793,42.906c0.727,0.681,1.65,1.021,2.574,1.021c1.006,0,2.006-0.403,2.758-1.201l24.476-26.23
			c1.422-1.523,1.331-3.9-0.183-5.322c-1.523-1.406-3.905-1.328-5.327,0.181l-24.476,26.243
			C393.199,39.115,393.275,41.5,394.793,42.906z"/>
		<path d="M105.329,216.524l-14.363,24.473c-1.051,1.812-0.449,4.108,1.343,5.154c0.599,0.355,1.257,0.518,1.904,0.518
			c1.295,0,2.552-0.66,3.255-1.863l14.361-24.473c1.051-1.81,0.452-4.108-1.341-5.152
			C108.677,214.13,106.379,214.716,105.329,216.524z"/>
		<path d="M418.163,421.926c-1.387,6.357-2.971,10.688-4.443,13.634c-1.95,3.905-6.281,6.307-7.181,7.571
			c-0.528,0.741-0.797,1.681-0.67,2.651c0.238,1.914,1.854,3.301,3.737,3.301c0.157,0,0.314,0,0.473-0.031
			c1.701-0.213,10.43-2.438,15.452-25.517c0.441-2.052-0.843-4.042-2.885-4.483C420.594,418.589,418.604,419.89,418.163,421.926z"/>
	</g>
</g>
<g>
</g>
<g>
</g>
<g>
</g>
<g>
</g>
<g>
</g>
<g>
</g>
<g>
</g>
<g>
</g>
<g>
</g>
<g>
</g>
<g>
</g>
<g>
</g>
<g>
</g>
<g>
</g>
<g>
</g>
</svg>
