<svg xmlns="http://www.w3.org/2000/svg" viewBox="0 0 459.58 459.58"><defs><style>.cls-1{fill:none;stroke:#020202;}.cls-1,.cls-2{stroke-miterlimit:10;stroke-width:3px;}.cls-2{fill:#020202;stroke:#000;}</style></defs><title>Plan de travail 1</title><g id="Calque_1" data-name="Calque 1"><path class="cls-1" d="M242.69,173.66a23.76,23.76,0,0,0-2.45,2q-22.49,26-44.91,52c-2.25,2.62-5.4,5.46-5.77,8.49-.86,7-.27,14.27-.27,21.9A11,11,0,0,0,191,257q22.82-25.1,45.61-50.24a4.52,4.52,0,0,0,1-1.41A93,93,0,0,0,242.69,173.66ZM189.21,298.18c1-1.24,1.38-1.78,1.81-2.3,13.89-16.49,27.51-33.23,41.83-49.33,4.34-4.87,7.54-9.64,8.38-16,.69-5.31,1.49-10.61,2.25-15.91a3.62,3.62,0,0,0-2.66,1q-25,28.59-50,57.24a6.64,6.64,0,0,0-1.53,3.89C189.13,283.56,189.21,290.36,189.21,298.18Zm-1.56,27.91a22.3,22.3,0,0,0,1.73-1.57c13.22-15.66,27-30.86,43.22-43.43,7.42-5.75,11.2-13,14.06-21.24,2-5.7,3.53-11.56,5.28-17.34a3.32,3.32,0,0,0-2.52,1c-18,19.9-35.7,40.08-54.12,59.59C189,309.79,187.11,317,187.65,326.09Zm-2.06,19.18a5.54,5.54,0,0,0,1.27-.31c14.72-9.74,29.31-19.67,44.18-29.19,11.82-7.56,15.12-19.41,18.16-33-2.32,1.64-3.67,2.44-4.85,3.44-17.79,15.05-35.45,30.26-53.4,45.12C186.36,335.14,185.08,339.56,185.59,345.27Z"/><path class="cls-1" d="M309.65,141c1.72-1.07,2.86-1.65,3.85-2.41,14.65-11.37,29.2-22.87,44-34.1a34.26,34.26,0,0,0,10-12.35c3.49-7,7.14-13.92,10.44-21,2.52-5.4,4.6-11,7.23-17.36-2.07.56-2.91.7-3.68,1-2.43.94-4.89,1.81-7.23,2.95-22.07,10.71-40.26,26.64-57.9,43.28a8,8,0,0,0-1.83,4.55c-.67,5.17-.9,10.39-1.6,15.55C312,127.49,310.81,133.85,309.65,141Z"/><path class="cls-1" d="M301.71,97.87a20.94,20.94,0,0,0,2.41-1.8c10.76-10.14,21.39-20.42,32.26-30.43,12.5-11.5,21.59-25,24.77-41.88,1.1-5.86,1.5-11.86,2.21-17.79L361.7,4.8c-7.81,5.34-16.65,9.65-23.2,16.23-13,13-24.69,27.28-36.85,41.1a6.64,6.64,0,0,0-1.81,4.1C300.32,76.75,301.05,87.26,301.71,97.87Z"/><path class="cls-1" d="M230.88,383.44c-5.42,8.31-10.75,16.68-16.33,24.87-.87,1.27-2.83,1.91-4.4,2.57A696.86,696.86,0,0,0,127.79,452c-1.33.78-2.71,1.49-4.06,2.23l-.86-.81c.49-.75.82-1.75,1.51-2.22a233,233,0,0,0,36.4-31.56,5.52,5.52,0,0,0,.88-1c5.67-9.92,16-13.29,25.4-17.77,11.13-5.28,22.37-10.33,33.62-15.38,2.85-1.28,5.89-2.14,8.84-3.2Z"/><path class="cls-1" d="M314.52,180.48c.5-.28,1.28-.64,2-1.12,11.91-8,23.47-16.53,35.78-23.8,18.42-10.88,26.69-28.92,36.05-47.67-11,2.06-21.19,3.92-29.86,9.57-9.07,5.92-17.29,13.14-26.2,19.32-5.87,4.08-10.5,8.41-9.52,16.28a1.12,1.12,0,0,1-.1.42Z"/><path class="cls-1" d="M250.37,228.91c.95-.72,1.5-1.14,2-1.56q22-17.39,43.94-34.8a10.67,10.67,0,0,0,2.68-2.75c6.35-10.92,12.2-22.07,15.08-34.5.33-1.41.4-2.88.65-4.76a9.89,9.89,0,0,0-1.91.81q-29.58,25.61-59.1,51.29a5.45,5.45,0,0,0-1.84,3.23C251.29,213.34,250.88,220.84,250.37,228.91Z"/><path class="cls-1" d="M293.43,73.3l-1.55-.39a8.59,8.59,0,0,0-1.34.94C276.7,88.09,263,102.53,248.93,116.5c-4.54,4.5-7.28,9-6.34,15.47a26,26,0,0,1-.28,5.64c-.48,6.08-1,12.16-1.49,18.39.63-.2,1-.21,1.15-.38q23.78-23,47.5-46c1-1,2.22-2.25,2.3-3.46C292.46,95.21,292.91,84.25,293.43,73.3Z"/><path class="cls-1" d="M255.18,263.13a1.27,1.27,0,0,0,.55-.16q23.41-15.37,46.78-30.79a6.66,6.66,0,0,0,2.45-2.88c3.52-9,7.09-18,10.23-27.19,1.46-4.28,2-8.87,3.07-13.9a17.86,17.86,0,0,0-2.29.93,371.86,371.86,0,0,0-52.91,41.5,5.23,5.23,0,0,0-1.62,2.44C259.3,243.05,257.26,253.06,255.18,263.13Z"/><path class="cls-1" d="M306.35,112.78l-1.28-.59a21.15,21.15,0,0,0-2.34,1.74q-25.05,24.39-50,48.84a5.61,5.61,0,0,0-1.66,3.31c-.49,8.92-.8,17.86-1.17,26.89a10.64,10.64,0,0,0,1.53-1q23.19-21,46.33-42a5.82,5.82,0,0,0,1.87-2.8C301.92,135.74,304.12,124.26,306.35,112.78Z"/><path class="cls-1" d="M316.1,225c29-7.84,69.07-50.85,67.32-72.11-2.66,1.28-5.29,2.45-7.84,3.77-15.16,7.82-30.34,15.6-45.38,23.64-1.58.84-2.85,3.15-3.31,5-2,8-3.43,16.11-5.49,24.07C320,214.58,317.93,219.62,316.1,225Z"/><path class="cls-1" d="M234.55,132.59c-.93.2-1.29.16-1.45.32-12.18,12.79-24.42,25.54-36.45,38.48a13.12,13.12,0,0,0-3.35,6.84c-1.42,11.76-2.43,23.57-3.55,35.37,0,.44.34.91.41,1.09,11.09-13.16,21.58-26.69,33.29-39.06a32.05,32.05,0,0,0,9.2-21.94c.09-2,.48-4,.65-6C233.74,142.7,234.12,137.74,234.55,132.59Z"/><path class="cls-1" d="M315.36,268.46c9.34-4.53,18.66-8.83,27.75-13.56,5.63-2.93,11.93-5.55,16.14-10,8.52-9,15.85-19.15,23.58-28.89.88-1.11,1.17-2.68,1.73-4l-.74-1.5c-6.64.91-13.82.52-19.81,3-12.8,5.3-25,12-37.38,18.33a6.12,6.12,0,0,0-3,3.35C320.83,246,318.21,256.93,315.36,268.46Z"/><path class="cls-2" d="M336.68,450.91l-65.52-34.27a38.76,38.76,0,0,1,4.78-.84c5.49-.3,11-.14,16.47-.79,4-.47,6.46,1.27,9.14,3.63C312.72,428.5,324,438.24,335.2,448c.74.64,1.42,1.34,2.13,2Z"/><path class="cls-1" d="M180.08,373.68c1-.41,1.49-.59,2-.85,13.27-7.1,26.39-14.49,39.86-21.19a33,33,0,0,0,14-12.4q5.16-8.36,10.31-16.73l-.95-.79a11.61,11.61,0,0,0-1.81.77c-17.84,11.35-35.44,23.1-53.61,33.89C182.92,360.49,180.44,365.83,180.08,373.68Z"/><path class="cls-1" d="M235.05,356.63a10.39,10.39,0,0,0-2.2,0q-27.38,13.6-54.73,27.26a4.45,4.45,0,0,0-2.13,2c-1.55,4-2.89,8-4.45,12.46,1.08-.33,1.62-.44,2.12-.66q21.86-9.52,43.7-19.09c1.42-.62,3.08-1.31,3.94-2.47C225.83,370,230.13,363.65,235.05,356.63Z"/><path class="cls-1" d="M290.19,363.26l-1.22-1a19.6,19.6,0,0,0-2.52.59q-23.77,8.94-47.52,17.94c-.79.3-1.83.68-2.16,1.33-3.06,6.07-6,12.2-9.12,18.62a21.41,21.41,0,0,0,2.12-.46q21.73-7.54,43.45-15.12a4.66,4.66,0,0,0,2.22-1.26C280.39,377.08,285.28,370.16,290.19,363.26Z"/><path class="cls-1" d="M269.31,411s.16.41.31.41q14.76-.25,29.51-.59a3.6,3.6,0,0,0,2-.76c8.65-6.81,17.27-13.66,26.78-21.2-14.82-1.75-28.17-.37-41.49,1.64a3.68,3.68,0,0,0-2,1.35C279.32,398.2,274.35,404.58,269.31,411Z"/><path class="cls-1" d="M272.66,394.51l-.74-1a201.8,201.8,0,0,0-44.45,16.19c9.19,1,18.27,1.44,27.35,1.75a4,4,0,0,0,2.72-1C262.65,405.19,267.64,399.83,272.66,394.51Z"/><path class="cls-1" d="M309.65,141c1.16-7.11,2.33-13.48,3.2-19.88.7-5.16.93-10.39,1.6-15.55a8,8,0,0,1,1.83-4.55c17.64-16.64,35.84-32.56,57.9-43.28,2.34-1.13,4.81-2,7.23-2.95.78-.3,1.62-.45,3.68-1-2.63,6.36-4.72,12-7.23,17.36-3.3,7.08-6.94,14-10.44,21a34.26,34.26,0,0,1-10,12.35c-14.75,11.23-29.31,22.73-44,34.1C312.51,139.32,311.38,139.89,309.65,141Z"/><path class="cls-1" d="M301.71,97.87c-.66-10.61-1.39-21.13-1.87-31.65a6.64,6.64,0,0,1,1.81-4.1C313.81,48.31,325.53,34,338.5,21c6.56-6.58,15.4-10.89,23.2-16.23L363.37,6c-.72,5.93-1.11,11.93-2.21,17.79C358,40.67,348.88,54.14,336.39,65.65c-10.87,10-21.5,20.29-32.26,30.43A20.94,20.94,0,0,1,301.71,97.87Z"/></g><g id="Calque_4" data-name="Calque 4"><path d="M152.92,141.91c0-.46,0-.74-.06-1q-2.81-19.63-5.61-39.26a6.21,6.21,0,0,0-2.12-3.94c-3.2-2.84-6.37-5.72-9.55-8.59A307.24,307.24,0,0,0,108.4,66.77,124.66,124.66,0,0,0,78,50.43c-1.22-.43-2.5-.72-3.76-1.07-.07.25-.11.33-.1.38,1.37,4.23,2.39,8.62,4.21,12.65,3.58,8,7.58,15.72,11.47,23.53,2.74,5.51,5.88,10.78,10.51,15,3.44,3.1,6.91,6.18,10.58,9,13.49,10.39,27.06,20.66,40.61,31C151.91,141.18,152.36,141.5,152.92,141.91ZM96,0c.05,1,.09,1.7.13,2.43A125.07,125.07,0,0,0,98.34,23C100.56,33.4,104.59,43,111.6,51.19c4.29,5,8.82,9.78,13.55,14.34C136.79,76.78,148.61,87.84,160.36,99a6.89,6.89,0,0,0,.73.5c-.18-2.37-.35-4.55-.51-6.72-.7-9.47-.74-18.93,1-28.31A5.71,5.71,0,0,0,160,59.3q-5.29-6-10.62-11.94Q135.74,32,122.06,16.75a12.61,12.61,0,0,0-2.61-2.22c-5.59-3.53-11.21-7-16.83-10.5C100.5,2.72,98.36,1.43,96,0Zm53.81,181.71.22-.23-.61-1.3c-1.75-3.75-3.6-7.45-5.22-11.26-3.5-8.22-5.93-16.72-6.23-25.72a5.34,5.34,0,0,0-1.7-3.88,16.7,16.7,0,0,0-1.34-1.16q-8-6.25-16.1-12.48c-4.1-3.17-8.05-6.57-12.37-9.41-9.28-6.11-19.67-9.54-30.54-11.58-2.14-.4-4.29-.72-6.59-1.11.22.43.33.68.46.92q8.34,14.77,16.68,29.55A39.67,39.67,0,0,0,97.7,146.84c4.16,3,8.46,5.88,12.72,8.78,9.87,6.72,19.72,13.47,29.64,20.12C143.23,177.87,146.58,179.73,149.84,181.71Zm-75.09-34.1a6.53,6.53,0,0,0,0,.71,64.62,64.62,0,0,0,6.17,20.49,104.15,104.15,0,0,0,28.64,34.28c10.3,8.17,21.61,14.72,33.37,20.53l4.36,2.13c-.26-.64-.42-1.06-.6-1.46A142.87,142.87,0,0,1,134.61,182a6.83,6.83,0,0,0-4-5.75c-1.9-1-3.77-2-5.65-2.93q-20.36-10.49-40.72-21C81.12,150.79,78,149.25,74.75,147.61Zm74.41,122C148,267,147,264.71,146,262.32a153.45,153.45,0,0,1-8.09-29.1,6.8,6.8,0,0,0-4.09-5.32c-2.41-1.17-4.78-2.42-7.17-3.62-7.9-4-15.78-7.94-23.71-11.84a73.35,73.35,0,0,0-9-4c-5.41-1.8-11-1.6-16.65-1.17a7.94,7.94,0,0,0-1.83.39,1.1,1.1,0,0,0-.8,1.62,24,24,0,0,0,1.23,2.52A173.65,173.65,0,0,0,90.67,233c2.83,3.53,5.49,7.28,9.18,9.95a84.82,84.82,0,0,0,9.69,5.94c10.21,5.46,20.49,10.79,30.75,16.16C143.18,266.59,146.09,268.06,149.16,269.63ZM167,66.85a4.58,4.58,0,0,0-.08.46q.09,17.14.18,34.28a8.33,8.33,0,0,0,2.64,6c1.77,1.78,3.57,3.52,5.39,5.25l29,27.6c2,1.92,4,3.85,6.07,5.82l18.36-16.21ZM83.12,256.17c.17.31.29.59.46.84,2.55,3.94,5,8,7.69,11.81,8.43,12.08,18.77,22.08,31.88,29.06,7.81,4.16,16,7.51,24.15,10.88l7.65,3.18c-.2-.38-.28-.56-.38-.73a86,86,0,0,1-12.36-34.94,3.64,3.64,0,0,0-2.06-3c-7.42-3.58-14.85-7.16-22.3-10.68A68.8,68.8,0,0,0,83.12,256.17Zm69.54-151.35-.24.11.81,4.82c1.58,9.47,3.18,18.94,4.72,28.42a20.71,20.71,0,0,0,7,13c4.61,3.93,9.3,7.78,13.89,11.72,3.3,2.83,6.5,5.77,9.83,8.74l15.18-17.36Zm-12.6,78.09c.27,1.22.48,2.27.74,3.31,1.7,6.78,3.23,13.61,5.17,20.31,2.17,7.5,5.75,14.47,8.89,21.59a5.71,5.71,0,0,0,2.12,2.33c8.45,5.32,17,10.57,25.44,15.83.22.14.47.24,1,.51,0-2.5,0-4.78,0-7.07,0-7.66,0-15.33.09-23a5.06,5.06,0,0,0-2.19-4.37q-15.86-11.85-31.7-23.71A43.52,43.52,0,0,0,140.07,182.92Zm19.62,162.17c-.19-.59-.29-.91-.4-1.23-1.8-5.12-3.62-10.23-5.39-15.36-1-2.89-1.91-5.82-2.88-8.72a6.64,6.64,0,0,0-3.82-4.3c-6.39-2.65-12.77-5.34-19.17-8-6.13-2.5-12.33-4.81-18.91-5.78-5.41-.8-10.83-1.43-16.26-2.12-.23,0-.48.15-.72.22a3,3,0,0,0,.34.89c5,6.06,10,12.16,15.13,18.13a43.18,43.18,0,0,0,14.27,11.2c9.51,4.5,19.36,8.15,29.16,11.92C153.81,343.06,156.64,344,159.68,345.08ZM183.44,205.6c.09-.39.17-.62.19-.85.86-7.5,1.67-15,2.61-22.51a4.62,4.62,0,0,0-1.79-4.47c-4.15-3.5-8.25-7.07-12.42-10.55-8.81-7.38-17.44-15-26.83-21.63l-1.13-.78c.12.7.19,1.14.27,1.59a127.37,127.37,0,0,0,5.83,22.91c3.88,10.31,9.9,19,18.92,25.53,4.2,3,8.31,6.2,12.46,9.31C182.16,204.6,182.75,205.07,183.44,205.6Zm-39.26,28a4.84,4.84,0,0,0,0,.64,113.47,113.47,0,0,0,12,36.06,7.66,7.66,0,0,0,3.33,3.3c5.77,3,11.51,6.07,17.26,9.11,2.11,1.12,4.24,2.21,6.45,3.37a7.89,7.89,0,0,0,.09-.82c0-8.26-.11-16.51-.05-24.77a3.63,3.63,0,0,0-1.87-3.42Q166.5,247.58,151.59,238C149.19,236.52,146.7,235.14,144.17,233.65ZM113.55,339.44l-.36.31c2.74,4.06,5.34,8.22,8.26,12.15,6.4,8.62,14.27,15.47,24.35,19.57,7.54,3.07,15.41,5,23.28,6.9a5.93,5.93,0,0,0,2.07,0c.2,0,.54-.4.51-.57a9,9,0,0,0-.57-2.94q-4.64-8.93-9.46-17.77a7.47,7.47,0,0,0-4.4-3.62c-9.06-2.95-18.07-6-27.13-8.94C124.6,342.7,119.06,341.11,113.55,339.44Zm34.91-61.5a4.83,4.83,0,0,0,0,.49,80.1,80.1,0,0,0,9.76,28,32.79,32.79,0,0,0,21.31,16.38c.66.16,1.33.29,2.06.45.06-.45.13-.76.14-1.06.31-7.37.56-14.75.94-22.12a3.22,3.22,0,0,0-1.75-3.33c-.24-.14-.47-.3-.71-.44-5.09-3-10.15-6.09-15.27-9.05C159.53,284.15,154.05,281.11,148.46,277.94Zm21.37,108.17A146.37,146.37,0,0,0,129,385.3l30.68,24.3Zm8.35-34.69a1.56,1.56,0,0,0,.14-.3c.76-6.25,1.55-12.49,2.25-18.75a2.59,2.59,0,0,0-1.67-2.75L157.51,320c-.17-.08-.36-.11-.76-.23.77,2.75,1.45,5.33,2.23,7.88,2.22,7.22,5.39,13.92,10.47,19.63A12.68,12.68,0,0,0,178.18,351.42Zm-10.27,5.51-.14.2,6.69,12.15,2.17-9.29Z"/><path d="M152.92,141.91c-.56-.41-1-.72-1.44-1.05-13.54-10.32-27.12-20.59-40.61-31-3.66-2.82-7.13-5.91-10.58-9-4.63-4.17-7.77-9.44-10.51-15-3.89-7.81-7.88-15.58-11.47-23.53-1.82-4-2.83-8.42-4.21-12.65,0-.05,0-.12.1-.38,1.26.35,2.53.64,3.76,1.07A124.66,124.66,0,0,1,108.4,66.77a307.24,307.24,0,0,1,27.18,22.34c3.18,2.86,6.35,5.75,9.55,8.59a6.21,6.21,0,0,1,2.12,3.94q2.79,19.64,5.61,39.26C152.9,141.17,152.89,141.45,152.92,141.91Z"/><path d="M96,0c2.33,1.43,4.47,2.72,6.59,4,5.62,3.49,11.24,7,16.83,10.5a12.61,12.61,0,0,1,2.61,2.22Q135.76,32,149.41,47.36q5.32,6,10.62,11.94a5.71,5.71,0,0,1,1.52,5.15c-1.71,9.38-1.68,18.84-1,28.31.16,2.18.33,4.35.51,6.72a6.89,6.89,0,0,1-.73-.5c-11.75-11.14-23.57-22.2-35.21-33.45-4.73-4.57-9.26-9.36-13.55-14.34-7-8.14-11-17.78-13.26-28.23A125.07,125.07,0,0,1,96.16,2.43C96.12,1.7,96.08,1,96,0Z"/><path d="M149.84,181.71c-3.26-2-6.61-3.84-9.77-6-9.92-6.65-19.77-13.4-29.64-20.12-4.26-2.9-8.57-5.74-12.72-8.78A39.67,39.67,0,0,1,86.5,134.06q-8.3-14.79-16.68-29.55c-.13-.24-.25-.49-.46-.92,2.3.38,4.45.71,6.59,1.11,10.87,2,21.25,5.46,30.54,11.58,4.32,2.84,8.27,6.25,12.37,9.41q8.06,6.22,16.1,12.48a16.7,16.7,0,0,1,1.34,1.16,5.34,5.34,0,0,1,1.7,3.88c.3,9,2.73,17.5,6.23,25.72,1.62,3.8,3.47,7.51,5.22,11.26l.61,1.3Z"/><path d="M167,66.85l61.53,63.25L210.22,146.3c-2.06-2-4.06-3.9-6.07-5.82l-29-27.6c-1.81-1.73-3.62-3.48-5.39-5.25a8.33,8.33,0,0,1-2.64-6q-.06-17.14-.18-34.28A4.58,4.58,0,0,1,167,66.85Z"/><path d="M83.12,256.17a68.8,68.8,0,0,1,34.73,6.46c7.45,3.52,14.87,7.1,22.3,10.68a3.64,3.64,0,0,1,2.06,3,86,86,0,0,0,12.36,34.94c.1.17.18.35.38.73l-7.65-3.18c-8.17-3.37-16.33-6.72-24.15-10.88-13.11-7-23.45-17-31.88-29.06C88.58,265,86.13,261,83.58,257,83.41,256.75,83.29,256.48,83.12,256.17Z"/><path d="M152.66,104.82l51.14,49.4-15.18,17.36c-3.33-3-6.53-5.9-9.83-8.74-4.6-3.95-9.28-7.79-13.89-11.72a20.71,20.71,0,0,1-7-13c-1.54-9.48-3.14-18.95-4.72-28.42l-.81-4.82Z"/><path d="M159.68,345.08c-3-1.08-5.88-2-8.66-3.1-9.8-3.77-19.65-7.42-29.16-11.92a43.18,43.18,0,0,1-14.27-11.2c-5.13-6-10.1-12.07-15.13-18.13a3,3,0,0,1-.34-.89c.24-.08.49-.25.72-.22,5.42.69,10.85,1.33,16.26,2.12,6.59,1,12.79,3.28,18.91,5.78,6.41,2.61,12.78,5.31,19.17,8a6.64,6.64,0,0,1,3.82,4.3c1,2.9,1.88,5.82,2.88,8.72,1.77,5.13,3.59,10.24,5.39,15.36C159.39,344.17,159.49,344.5,159.68,345.08Z"/><path d="M183.44,205.6c-.69-.53-1.28-1-1.88-1.45-4.15-3.11-8.26-6.27-12.46-9.31-9-6.52-15-15.23-18.92-25.53a127.37,127.37,0,0,1-5.83-22.91c-.08-.44-.15-.88-.27-1.59l1.13.78c9.39,6.65,18,14.25,26.83,21.63,4.16,3.49,8.26,7.05,12.42,10.55a4.62,4.62,0,0,1,1.79,4.47c-.94,7.49-1.75,15-2.61,22.51C183.6,205,183.53,205.21,183.44,205.6Z"/><path d="M144.17,233.65c2.52,1.49,5,2.87,7.42,4.4q14.93,9.5,29.82,19.07a3.63,3.63,0,0,1,1.87,3.42c-.06,8.25,0,16.51.05,24.77a7.89,7.89,0,0,1-.09.82c-2.21-1.15-4.33-2.25-6.45-3.37-5.75-3-11.49-6.1-17.26-9.11a7.66,7.66,0,0,1-3.33-3.3,113.47,113.47,0,0,1-12-36.06A4.84,4.84,0,0,1,144.17,233.65Z"/><path d="M113.55,339.44c5.51,1.67,11.06,3.26,16.54,5,9.06,2.93,18.08,6,27.13,8.94a7.47,7.47,0,0,1,4.4,3.62q4.82,8.84,9.46,17.77a9,9,0,0,1,.57,2.94c0,.17-.31.55-.51.57a5.93,5.93,0,0,1-2.07,0c-7.87-1.93-15.74-3.83-23.28-6.9-10.08-4.1-17.95-10.95-24.35-19.57-2.92-3.93-5.52-8.09-8.26-12.15Z"/><path d="M148.46,277.94c5.6,3.16,11.07,6.2,16.49,9.34,5.12,3,10.18,6,15.27,9.05.24.14.47.3.71.44a3.22,3.22,0,0,1,1.75,3.33c-.38,7.37-.64,14.75-.94,22.12,0,.31-.08.61-.14,1.06-.73-.16-1.4-.29-2.06-.45a32.79,32.79,0,0,1-21.31-16.38,80.1,80.1,0,0,1-9.76-28A4.83,4.83,0,0,1,148.46,277.94Z"/><path d="M169.83,386.11l-10.14,23.5L129,385.3A146.37,146.37,0,0,1,169.83,386.11Z"/><path d="M178.18,351.42a12.68,12.68,0,0,1-8.73-4.15c-5.07-5.71-8.25-12.41-10.47-19.63-.78-2.55-1.45-5.13-2.23-7.88.4.12.59.16.76.23l21.39,9.64a2.59,2.59,0,0,1,1.67,2.75c-.7,6.25-1.49,12.5-2.25,18.75A1.56,1.56,0,0,1,178.18,351.42Z"/><path d="M167.91,356.93l8.72,3.06-2.17,9.29-6.69-12.15Z"/></g><g id="Calque_3" data-name="Calque 3"><path class="cls-1" d="M240.24,175.7a23.77,23.77,0,0,1,2.45-2A97.32,97.32,0,0,1,240.53,195h22q25.14-21.88,50.34-43.68a9.9,9.9,0,0,1,1.91-.81c-.25,1.88-.33,3.35-.65,4.76-2.88,12.44-8.73,23.59-15.08,34.5a10.67,10.67,0,0,1-2.68,2.75L293.22,195h13.91c2.91-2,5.85-4,8.84-5.89a17.86,17.86,0,0,1,2.29-.93c-.51,2.36-.89,4.63-1.31,6.81h7.71c.7-3.25,1.42-6.51,2.22-9.73.47-1.87,1.74-4.18,3.31-5,15-8,30.22-15.82,45.38-23.64,1.64-.84,3.31-1.63,5-2.42l.3-31.55c-7,13.13-15.07,24.95-28.57,32.92-12.32,7.28-23.88,15.83-35.78,23.8-.71.47-1.49.84-2,1.12l8.15-27a1.12,1.12,0,0,0,.1-.42c-1-7.87,3.64-12.2,9.52-16.28,8.91-6.19,17.13-13.4,26.2-19.32,6.7-4.37,14.32-6.47,22.5-8.15l.44-46.5c-1.16,2.86-2.31,5.6-3.56,8.28-3.3,7.08-6.94,14-10.44,21a34.26,34.26,0,0,1-10,12.35c-14.75,11.23-29.31,22.73-44,34.1-1,.77-2.13,1.34-3.85,2.41,1.16-7.11,2.33-13.48,3.2-19.88.7-5.16.93-10.39,1.6-15.55a8,8,0,0,1,1.83-4.55c17.64-16.64,35.84-32.56,57.9-43.28,2.34-1.13,4.81-2,7.23-2.95l.09,0,.09-9.91H353.38a87.26,87.26,0,0,1-17,20.83c-10.87,10-21.5,20.29-32.26,30.43a20.94,20.94,0,0,1-2.41,1.8c-.66-10.61-1.39-21.13-1.87-31.65a6.64,6.64,0,0,1,1.81-4.1c5-5.74,10-11.54,15-17.31H234.55V182.27Z"/><path class="cls-1" d="M360.25,195h19.93l.27-28.57C376.56,175.43,369.2,185.62,360.25,195Z"/><path class="cls-1" d="M359.25,244.89c-4.21,4.45-10.51,7.08-16.14,10-9.09,4.73-18.41,9-27.75,13.56,2.84-11.53,5.46-22.45,8.31-33.31a6.12,6.12,0,0,1,3-3.35c12.38-6.29,24.58-13,37.38-18.33,4.87-2,10.52-2.14,16-2.6l.05-5.38H349.22c-10.84,9.28-22.7,16.65-33.12,19.47,1.84-5.34,3.93-10.38,5.29-15.61.33-1.28.65-2.57,1-3.86H314c-2.84,8-5.95,15.89-9,23.8a6.66,6.66,0,0,1-2.45,2.88Q279.16,247.64,255.73,263a1.27,1.27,0,0,1-.55.16c2.08-10.07,4.12-20.07,6.26-30.06a5.23,5.23,0,0,1,1.62-2.44q14.26-13.29,29.66-25.14H280l-27.59,21.85c-.54.43-1.1.84-2,1.56.52-8.07.93-15.57,1.55-23.05a3,3,0,0,1,.06-.36H237.56a5.17,5.17,0,0,1-.93,1.26L234.55,209V222.8l6.27-7.17a3.62,3.62,0,0,1,2.66-1c-.75,5.3-1.56,10.6-2.25,15.91-.72,5.53-3.22,9.85-6.68,14.07v15.51q7.42-8.28,14.86-16.53a3.32,3.32,0,0,1,2.52-1c-1.74,5.79-3.3,11.64-5.28,17.34-2.59,7.48-6,14.14-12.11,19.61v15.07l9.8-8.32c1.18-1,2.53-1.8,4.85-3.44-2.72,12.13-5.65,22.87-14.65,30.42v15q4.45-2.87,8.92-5.72a11.61,11.61,0,0,1,1.81-.77l.95.79q-5.15,8.37-10.31,16.73-.66,1.06-1.38,2v15.35h.5l-.5.72v29.22q1.1-2.22,2.21-4.43c.33-.65,1.37-1,2.16-1.33q23.75-9,47.52-17.94a19.6,19.6,0,0,1,2.52-.59l1.22,1c-4.91,6.9-9.79,13.81-14.76,20.67a4.66,4.66,0,0,1-2.22,1.26q-19.32,6.75-38.66,13.45v7.72a199.24,199.24,0,0,1,37.38-12.83l.74,1c-5,5.32-10,10.68-15.11,15.93a4,4,0,0,1-2.72,1c-6.75-.23-13.49-.52-20.28-1.07v30.82l40.83-22.36-4.21-2.2a38.76,38.76,0,0,1,4.78-.84c1.77-.1,3.55-.14,5.33-.19l8.36-4.58q-10,.21-20,.38c-.15,0-.31-.41-.31-.41,5-6.44,10-12.82,15-19.15a3.68,3.68,0,0,1,2-1.35c13.32-2,26.67-3.39,41.49-1.64L323,392.78l55.65-30.49L380,219.67C373.25,228.26,366.71,237,359.25,244.89Zm-102.1,38.94c.15-7.22,4-10.73,9.3-14.13,14.63-9.39,29.13-19,43.7-28.47,1.2-.78,2.51-1.37,4.45-2.42-2.38,12-5.66,22.78-11.16,32.75a9.71,9.71,0,0,1-3.4,3.76C285.1,283.63,270.09,291.8,255.1,300a20.11,20.11,0,0,1-2.13.84C254.51,294.94,257,289.41,257.15,283.83Zm-.62,32a5.62,5.62,0,0,1,2.16-2.55q24.85-14.74,49.79-29.34a16.46,16.46,0,0,1,2.64-.66c-2.73,7.32-5.08,13.88-7.64,20.37a55.09,55.09,0,0,1-3.34,6.09,26.27,26.27,0,0,1-14.22,12.47c-13.18,5.13-25.94,11.33-38.72,17C250.34,331.27,253.37,323.51,256.52,315.79Zm32.58,34.37a5.7,5.7,0,0,1-2.26,1.25q-23.73,9.09-47.48,18.14c-.91.35-1.86.58-3,.95,3.25-6.65,6.19-12.78,9.28-18.83a6.13,6.13,0,0,1,2.66-2.61q25.82-12,51.72-23.76a5.43,5.43,0,0,1,1.32-.1A52.94,52.94,0,0,1,289.1,350.17Zm.35,29.68c3.06-5.62,6.54-11,8.92-16.77,1.61-3.94,4-5.8,7.8-7,12.42-3.8,24.76-7.86,38-12.09C332.23,366.81,312.87,376.3,289.45,379.85Zm47-47.6c-9.73,4.1-19.58,7.92-29.38,11.85-1.16.46-2.36.81-3.5,1.19,2.45-8,4.76-15.83,7.29-23.58a5,5,0,0,1,2.77-2.36c10.16-4.21,20.2-8.79,30.61-12.26,6.29-2.09,13.17-2.38,19.78-3.48l.66,1.59C356.61,315.54,349.38,326.81,336.48,332.25Zm-26.86-21.44c2.24-6,4.56-11.84,6.62-17.78,1-2.86,2-5.87,2.09-8.84.1-5.65,3.41-8.23,7.84-10.72a102.22,102.22,0,0,1,41-13.25c2.3-.21,4.6-.28,7.55-.46C360.46,287.08,337.53,302.07,309.62,310.81Z"/><path class="cls-1" d="M223.46,175.63c-5.9,6.23-11.49,12.76-17,19.39h17.05V175.58Z"/><path class="cls-1" d="M193.31,178.23a13.12,13.12,0,0,1,3.35-6.84c8.87-9.54,17.86-19,26.85-28.41V44.81H73.15V195H191.51C192.05,189.42,192.63,183.82,193.31,178.23Z"/><path class="cls-1" d="M359.93,29c.47-1.72.89-3.48,1.23-5.28,1.1-5.86,1.5-11.86,2.21-17.79L361.7,4.8c-7.81,5.34-16.65,9.65-23.2,16.23-2.61,2.62-5.16,5.31-7.69,8H60.33V370.5l97.66,52a227.41,227.41,0,0,1-33.61,28.7c-.69.47-1,1.47-1.51,2.22l.86.81c1.35-.74,2.73-1.44,4.06-2.23q20.86-12.29,42.55-22.92l57.29,30.5,164-89.08L394.85,29Z"/><g id="Calque_5" data-name="Calque 5"><path class="cls-1" d="M214.54,408.31c-.87,1.27-2.83,1.91-4.4,2.57q-12.83,5.43-25.42,11.31L223.51,443V394.79C220.56,399.33,217.59,403.84,214.54,408.31Z"/><path class="cls-1" d="M189.29,258.07c0-7.63-.58-14.85.27-21.9.37-3,3.52-5.87,5.77-8.49q9.54-11.12,19.13-22.19H197.81q-3.8,4.61-7.65,9.21c-.07-.18-.45-.65-.41-1.09q.38-4.06.76-8.11H73.15v156.8l93.44,50.16c5.74-5.41,13.35-8.16,20.47-11.54,11.13-5.28,22.37-10.33,33.62-15.38.93-.42,1.88-.78,2.84-1.13V373.08q-1.1,1.52-2.2,3c-.86,1.17-2.52,1.85-3.94,2.47q-21.83,9.6-43.7,19.09c-.5.22-1,.33-2.12.66,1.57-4.45,2.91-8.49,4.45-12.46a4.45,4.45,0,0,1,2.13-2q22.67-11.35,45.38-22.61V350.79c-.52.29-1,.58-1.59.85-13.47,6.7-26.59,14.09-39.86,21.19-.49.26-1,.44-2,.85.37-7.84,2.84-13.19,9.78-17.31,11.38-6.75,22.53-13.88,33.65-21.05V320.66c-12.28,8-24.42,16.21-36.65,24.3a5.54,5.54,0,0,1-1.27.31c-.51-5.71.76-10.13,5.36-13.94,10.92-9.05,21.74-18.23,32.55-27.42V288.62c-12.39,10.9-23.45,23.25-34.13,35.9a22.31,22.31,0,0,1-1.73,1.57c-.55-9.14,1.35-16.29,7.64-23,9.55-10.11,18.91-20.41,28.21-30.75V257.25C212.53,270,201.86,283,191,295.88c-.43.52-.84,1.06-1.81,2.3,0-7.81-.08-14.62.07-21.41a6.64,6.64,0,0,1,1.53-3.89q16.31-18.76,32.69-37.46V221.2Q207.27,239.1,191,257A11,11,0,0,1,189.29,258.07Z"/></g></g></svg>