<?xml version="1.0" encoding="iso-8859-1"?>
<!-- Generator: Adobe Illustrator 19.0.0, SVG Export Plug-In . SVG Version: 6.00 Build 0)  -->
<svg version="1.1" id="Layer_1" xmlns="http://www.w3.org/2000/svg" xmlns:xlink="http://www.w3.org/1999/xlink" x="0px" y="0px"
	 viewBox="0 0 512.002 512.002" style="enable-background:new 0 0 512.002 512.002;" xml:space="preserve">
<g>
	<g>
		<path d="M30.007,265.139c-0.001,0.008,0.001,0.017,0,0.025c-0.002,0.02,0,0.028-0.001,0.045c0.028,0.045,0.057,0.088,0.082,0.134
			C30.076,265.286,30.048,265.218,30.007,265.139z"/>
	</g>
</g>
<g>
	<g>
		<path d="M251.773,163.402c-3.235-0.023-6.562,2.872-9.245,4.407c-4.242,2.426-8.842,4.499-13.221,6.691
			c-9.155,4.583-18.145,9.553-27.193,14.376c-8.403,4.479-17.444,7.697-25.83,12.285c-4.933,2.699-9.722,5.657-14.714,8.25
			c-5.292,2.749-10.916,4.762-16.216,7.49c-7.854,4.042-15.168,8.996-22.473,13.733c-4.626,3-10.552,9.655-5.401,13.861
			c-1.539-0.089-3.074-0.171-4.594-0.199c-10.105-0.193-20.223-0.113-30.324-0.361c-8.706-0.214-17.501-1.885-26.226-1.28
			c-8.975,0.624-17.766,0.205-26.735,0.241c-5.322,0.022-13.112,0.717-14.161,7.021c-1.038,6.232,4.877,7.346,9.893,7.774
			c0.028,0.002,0.054,0.005,0.081,0.007c-0.123,0.52-0.167,1.049-0.31,1.55c-0.003-0.11-0.278,0.359-0.37,0.5
			c-0.209,0.321-0.391,0.678-0.508,1.043c-0.284,0.888-0.263,1.874-0.301,2.793c-0.04,0.986-0.266,1.981-0.164,2.96
			c-1.68,0.014-3.371,0.033-5.116,0.052c-6.385,0.068-17.568-1.38-18.557,7.297c-0.781,6.855,3.646,8.936,8.876,10.088
			c-1.936,9.383-0.519,19.974-1.521,29.376c-1.209,11.347-0.093,23.005-0.565,34.403c-0.48,11.576,0.118,23.051,0.153,34.634
			c0.027,8.524-0.401,17.5,0.93,26.014c-0.421,1.732-0.538,3.486-0.151,4.755c1.294,4.248,6.863,3.374,10.247,3.805
			c6.092,0.775,12.38-0.258,18.672,0.455c6.807,0.771,13.825,0.289,20.68,0.31c15.111,0.046,30.471-1.495,45.613-0.317
			c6.132,0.477,11.979,1.11,18.141,1.124c7.696,0.017,16.659-1.255,24.181,0.311c0.725,0.151,1.415,0.052,2.029-0.205
			c0.172,0.083,0.345,0.151,0.514,0.181c5.636,0.993,11.64,1.499,17.397,1.527c3.496,0.017,6.849-0.428,9.146-2.477
			c5.526,1.23,11.323,0.838,16.917,1.551c3.609,0.459,9.229,1.229,12.94-0.44c5.329,0.875,10.939,1.34,16.342,1.366
			c5.145,0.025,9.985-0.942,11.596-6.562c1.249-4.358,3.262-11.928,0.851-16.242c-1.058-1.894-3.034-2.866-5.23-3.226
			c0.711-3.165,0.319-6.305,0.272-9.6c-0.054-3.777,0.582-7.429,0.621-11.178c0.068-6.497-0.864-12.863-0.821-19.368
			c0.044-6.788,0.587-13.438,0.571-20.246c-0.017-7.489,0.05-14.885,0.588-22.344c0.212-2.933,1.086-5.739,1.286-8.659
			c0.241-3.545-0.827-7.497-0.107-10.984c0.864-4.183,5.466-5.869,3.468-11.011c-2.44-6.278-8.801-7.48-15.155-6.984
			c-1.831,0.012-3.68,0.107-5.538,0.136c-3.34-0.579-7.416-1.049-7.853-1.058c-4.514-0.09-8.747,0.414-13.218,0.715
			c-7.322,0.492-14.769,0.676-22.117,0.485c-2.089-0.408-4.353-0.454-6.618-0.277c-0.002,0-0.006,0-0.008,0
			c-2.854-0.196-5.629-0.502-8.533-1.062c-3.614-0.696-4.049-1.921-4.191-5.11c5.65,0.997,11.889,0.876,17.499,0.978
			c6.154,0.112,12.31,0.389,18.46,0.322c13.94-0.151,27.61,0.851,41.494-0.579c1.509-0.156,1.513-2.195,0-2.351
			c-6.431-0.662-13.208-0.183-19.692-0.183c-7.286,0-14.516-0.452-21.802-0.374c-6.071,0.066-12.387-0.053-18.46-0.322
			c-5.834-0.258-11.768-0.872-17.571,0.093c-0.13-5.721,0.083-11.484-0.588-17.168c4.011,0.231,8.018,0.171,12.003,0.549
			c5.056,0.478,10.297,0.98,15.368,0.56c10.676-0.882,20.926-2.569,31.629-1.794c4.988,0.361,10.612-0.271,15.582-0.967
			c2.155-0.302,4.334-0.517,6.509-0.756c-1.563-1.349-2.339-3.424-2.085-5.376c-0.107,0.007-0.214,0.008-0.322,0.015
			c-4.485,0.321-8.898,0.776-13.385,1.01c-8.727,0.454-17.341,0.02-26.157,0.865c-3.927,0.376-7.832,1.033-11.77,1.279
			c-4.491,0.281-8.816-0.709-13.206-1.515c-8.666-1.59-17.837-1.092-26.658-1.392c-2.72-0.092-11.024,0.344-13.451-1.273
			c0.127-0.095,0.293-0.212,0.514-0.36c0.822-0.55,1.393-1.483,2.208-2.026c1.305-0.87,2.734-1.305,4.008-2.318
			c6.541-5.198,13.581-9.64,21.088-13.445c16.821-8.526,32.757-18.585,49.9-26.374c8.839-4.016,17.46-9.365,25.849-14.207
			c4.331-2.5,8.755-4.776,13.132-7.108c3.675-1.958,7.571-6.509,11.534-7.594C253.543,165.578,253.253,163.413,251.773,163.402z
			 M208.876,279.882c0.384-0.49,1.084-0.759,1.907-0.904c3.292,0.434,6.886-0.224,10.161,0.002c1.995,0.137,3.662,0.086,5.286,1.408
			c2.269,1.845,1.663,3.382,0.467,5.688c-0.095,0.183-0.191,0.348-0.288,0.506c-0.482-0.055-0.949-0.13-1.435-0.24
			c-0.078-0.036-0.156-0.075-0.233-0.129c-0.729-0.515-0.402-1.388-0.905-2.059c-0.66-0.879-1.908-1.01-2.544,0
			c-0.182,0.291-0.263,0.608-0.297,0.932c-0.376,0.633-0.651,1.251-0.478,2.162c0.249,1.316,1.15,2.132,2.312,2.7
			c0.572,0.28,1.212,0.534,1.872,0.707c-0.785,5.139,0.579,10.752-0.398,15.936c-1.001,5.308-1.138,10.927-1.136,16.315
			c0.002,6.289,0.38,12.711,0.022,18.985c-0.33,5.775-1.002,11.408-0.927,17.234c0.081,6.227,0.934,12.111,0.338,18.37
			c-0.5,5.254-1.242,11.725,0.102,16.958c-0.121,0.023-0.239,0.048-0.357,0.075c-3.886-0.608-7.994-1.076-11.703-0.575
			c-0.051-0.766-0.021-1.537,0.01-2.307c0.097-0.286,0.166-0.595,0.169-0.949c0.065-6.196,0.013-12.395,0.007-18.591
			c-0.006-6.187,0.598-12.326,0.61-18.476c0.021-11.166,1.079-22.314,1.073-33.469c-0.003-5.638-0.933-11.176-0.918-16.74
			c0.011-4.096,0.655-9.04-0.125-13.271c1-0.583,1.883-1.434,2.373-2.155c0.706-1.038,0.808-1.949,0.572-3.164
			c-0.072-0.369-0.197-0.694-0.371-0.964c0.023-1.482-2.598-1.886-2.849,0.073c-0.071,0.555,0.243,1.062,0.114,1.62
			c-0.035,0.15-0.105,0.296-0.187,0.439c-0.07,0.093-0.135,0.193-0.214,0.28c-0.201,0.224-0.444,0.401-0.701,0.556
			c-0.549-0.626-1.2-1.045-1.695-1.885C208.037,284.148,207.915,281.109,208.876,279.882z M217.173,399.745
			c1.518-0.039,3.168,0.029,4.809-0.018c0.318,0.125,0.636,0.239,0.956,0.325c0.889,0.242,3.427,0.033,4.177,0.492
			c1.593,0.974,0.257,8.605-0.616,10.564c-1.825,4.1-8.262,3.271-12.183,2.872c-2.522-0.257-5.244-0.353-7.812-0.605
			c-0.549-3.195-0.997-6.919,0.167-9.807C208.631,398.704,212.999,399.854,217.173,399.745z M172.773,384.724
			c-0.054-3.777,0.582-7.429,0.622-11.178c0.068-6.497-0.864-12.863-0.821-19.368c0.044-6.788,0.587-13.438,0.571-20.246
			c-0.017-7.489,0.05-14.885,0.588-22.344c0.212-2.933,1.086-5.738,1.286-8.659c0.242-3.546-0.827-7.497-0.107-10.984
			c0.864-4.183,5.466-5.869,3.468-11.011c-0.244-0.63-0.538-1.196-0.859-1.726c3.622,0.026,7.247,0.051,10.882,0.111
			c4.799,0.08,9.568-0.318,14.366-0.435c-0.288,0.423-0.552,0.868-0.771,1.351c-1.911,4.202-0.075,6.322,2.702,8.988
			c4.251,4.082,1.321,13.281,1.729,18.906c0.492,6.787,0.885,13.744,0.045,20.542c-0.77,6.235,0.068,12.476-0.495,18.717
			c-1.294,14.342-1.028,28.884-0.877,43.308c0.002,0.197,0.028,0.378,0.06,0.555c-0.15,1.506-0.345,3.008-0.032,4.489
			c-5.221,3.092-5.18,10.722-4.5,16.813c-0.495-0.006-1.01-0.006-1.555-0.014c-3.505-0.054-6.828-0.163-10.318-0.401
			c-3.091-0.212-7.595-0.61-11.444,0.118c1.206-4.439,2.57-10.862,0.421-14.705c-1.058-1.894-3.034-2.866-5.23-3.226
			C173.212,391.159,172.82,388.019,172.773,384.724z M153.532,279.882c0.384-0.49,1.084-0.759,1.907-0.904
			c2.224,0.293,4.584,0.091,6.893-0.003c1.66,0.046,3.321,0.095,4.979,0.123c1.276,0.115,2.439,0.366,3.576,1.29
			c2.262,1.839,1.666,3.373,0.478,5.666c-0.787,0.123-1.582,0.363-2.327,0.098c-1.16-0.413-0.764-1.93-1.78-2.639
			c-0.239-0.166-0.605-0.144-0.845,0c-2.176,1.303-1.28,4.476,0.452,5.676c0.666,0.462,1.606,0.769,2.592,0.883
			c-0.992,5.296,0.514,11.137-0.5,16.517c-1.001,5.308-1.138,10.927-1.136,16.315c0.002,6.289,0.38,12.711,0.022,18.985
			c-0.33,5.775-1.002,11.408-0.927,17.234c0.081,6.227,0.934,12.111,0.338,18.37c-0.5,5.254-1.242,11.725,0.102,16.958
			c-0.121,0.023-0.239,0.048-0.357,0.075c-3.886-0.608-7.994-1.076-11.703-0.575c-0.051-0.766-0.021-1.537,0.01-2.307
			c0.097-0.286,0.166-0.595,0.169-0.949c0.065-6.196,0.013-12.395,0.007-18.591c-0.006-6.187,0.598-12.326,0.61-18.476
			c0.021-11.166,1.079-22.314,1.073-33.469c-0.003-5.638-0.933-11.176-0.918-16.74c0.011-4.421,0.742-9.819-0.356-14.252
			c2.327-0.564,4.506-2.367,3.747-5.002c-0.553-1.922-3.186-1.411-3.344,0.453c-0.096,1.123-0.996,1.467-2.068,1.575
			c-0.372-0.353-0.748-0.714-1.061-1.245C152.692,284.148,152.571,281.109,153.532,279.882z M161.829,399.745
			c1.519-0.039,3.168,0.029,4.809-0.018c0.318,0.125,0.636,0.239,0.956,0.325c0.889,0.242,3.427,0.033,4.177,0.492
			c1.593,0.974,0.257,8.605-0.616,10.564c-1.825,4.1-8.262,3.271-12.183,2.872c-2.522-0.257-5.244-0.353-7.812-0.605
			c-0.549-3.195-0.997-6.919,0.167-9.807C153.287,398.704,157.655,399.854,161.829,399.745z M151.083,308.129
			c0.492,6.787,0.885,13.744,0.045,20.542c-0.77,6.235,0.068,12.476-0.495,18.717c-1.294,14.342-1.029,28.884-0.877,43.308
			c0.002,0.197,0.028,0.378,0.06,0.555c-0.15,1.506-0.345,3.008-0.032,4.489c-4.921,2.915-5.17,9.866-4.612,15.757
			c-4.956-1.167-10.821-0.241-15.703-0.232c-6.196,0.012-12.452,0.338-18.6-0.324c-14.065-1.514-28.719-1.02-42.861-0.655
			c-7.019,0.182-14.012,0.618-21.07,0.674c-6.731,0.054-13.362-0.506-20.098-0.585c-4.034-0.047-7.552,0.47-11.53,0.38
			c0.316-3.546,0.093-7.383-0.193-10.807c-0.459-5.494-0.58-10.871-0.563-16.419c0.036-11.959-0.582-23.821-0.073-35.771
			c0.476-11.143-0.623-22.343-0.035-33.472c0.299-5.66,0.228-11.188-0.009-16.862c-0.172-4.1-0.002-8.443-0.586-12.582
			c10.297,1.575,20.899,1.333,31.276,2.148c9.749,0.766,19.3,0.098,29.038,0.121c23.94,0.057,47.704,2.49,71.53-0.497
			c0.399-0.05,0.747-0.172,1.067-0.325c0.63,0.993,1.542,1.921,2.591,2.927C153.604,293.304,150.676,302.503,151.083,308.129z
			 M148.645,277.435c-0.812,0.789-1.499,1.715-1.992,2.799c-0.016,0.036-0.028,0.068-0.043,0.104
			c-0.279-0.046-0.576-0.066-0.912-0.024c-18.07,2.266-36.078,1.849-54.195,0.621c-8.222-0.558-16.695,0.121-24.866,0.514
			c-2.703,0.13-5.385-0.596-8.106-0.473c-2.259,0.103-4.379,0.398-6.668,0.259c-4.482-0.27-8.958-0.605-13.432-0.951
			c-9.246-0.714-18.294-0.425-27.446-2.03c-2.116-0.371-5.83-1.214-4.303-4.044c0.921-1.708,3.592-0.93,5.381-1.08
			c5.046-0.424,10.722-1.388,15.754-0.996c18.407,1.435,36.979,0.867,55.448,1.294c10.603,0.244,21.173,0.977,31.811,1.145
			c10.145,0.16,20.257-0.484,30.369-0.65C146.193,275.617,147.288,276.721,148.645,277.435z M29.947,264.165
			c-0.128-1.356-0.209-1.664,0.012-2.609c0.247-1.058,0.048-1.72-0.023-2.768c-0.016-0.234-0.01-0.458-0.003-0.681
			c7.211,0.676,14.304,1.397,21.652,1.397c0.769,0,1.539-0.001,2.308-0.001c-0.176,1.72-0.3,3.426-0.339,5.168
			c-0.023,1.048-0.248,1.962-0.18,2.841c-0.732-0.001-1.463-0.007-2.195-0.007c-5.519,0-10.875-0.286-16.354-0.688
			c-1.47-0.108-2.902-0.175-4.319-0.219c-0.052-0.439-0.196-0.861-0.419-1.256c0.054,0.258-0.121,0.27-0.082-0.134
			c-0.226-0.361-0.499-0.695-0.868-0.949c0.511,0.351,0.753,0.651,0.869,0.877C30.044,264.823,29.977,264.475,29.947,264.165z
			 M56.385,263.635c-0.047-1.389-0.179-2.759-0.33-4.133c1.165,0,2.328-0.001,3.492-0.002c-0.101,0.434-0.116,0.936-0.172,1.354
			c-0.158,1.194-0.189,2.376-0.273,3.577c-0.069,0.975-0.278,2.054-0.342,3.107c-0.836-0.005-1.672-0.014-2.509-0.017
			C56.284,266.231,56.431,264.943,56.385,263.635z M62.252,259.498l2.808-0.001c-0.233,1.776-0.258,3.639-0.327,5.373
			c-0.033,0.83-0.148,1.795-0.136,2.726c-0.653-0.007-1.305-0.024-1.959-0.03c0.032-1.054,0.018-2.116,0.029-3.134
			C62.684,262.888,62.704,261.075,62.252,259.498z M67.981,259.486c4.811-0.054,9.667-0.732,14.447-0.502
			c6.444,0.311,12.892,0.617,19.342,0.862c-0.16,1.123-0.127,2.33-0.181,3.292c-0.101,1.805-0.372,3.736-0.404,5.608
			c-5.629-0.226-11.253-0.489-16.895-0.7c-5.165-0.194-10.321-0.306-15.478-0.387c0.046-1.668-0.286-3.526-0.355-4.847
			C68.401,261.702,68.333,260.523,67.981,259.486z M107.714,268.975c-0.774-0.025-1.547-0.047-2.32-0.074
			c0.014-0.455,0.016-0.882,0.032-1.226c0.084-1.768-0.102-3.617-0.231-5.382c-0.036-0.493-0.281-1.474-0.399-2.331
			c1.151,0.039,2.301,0.073,3.452,0.107c-0.108,1.848-0.375,3.697-0.444,5.548C107.767,266.637,107.619,267.845,107.714,268.975z
			 M113.438,269.129c-0.65-0.015-1.303-0.024-1.952-0.042c0.052-1.311-0.167-2.729-0.217-3.88c-0.076-1.754-0.217-3.406-0.521-5.07
			c1.192,0.031,2.384,0.043,3.577,0.066c-0.28,1.062-0.423,2.203-0.537,3.151C113.558,265.25,113.264,267.214,113.438,269.129z
			 M117.529,263.013c-0.025-0.909-0.031-1.853-0.185-2.755c8.904,0.122,17.809,0.016,26.715-0.536
			c-0.01,3.241,0.008,6.675,0.37,9.836c-2.891-0.325-5.946-0.141-8.739-0.176c-6.065-0.077-12.131-0.106-18.197-0.181
			C117.703,267.164,117.584,265.042,117.529,263.013z M134.485,247.516c3.735,0.167,7.476,0.236,11.207,0.439
			c-0.676,2.039-1.162,4.125-1.42,6.255c-9.132-0.378-18.386,0.464-27.53,0.538c-10.804,0.088-21.493,0.109-32.25-0.651
			c-5.36-0.379-10.633,0.304-16.008,0.294c-6.016-0.012-12.034,0.007-18.05,0c-4.881-0.006-9.654-0.159-14.511-0.588
			c-1.924-0.169-14.241-0.83-14.945-2.047c-2.201-3.799,9.931-3.038,11.719-2.951c4.993,0.247,10.119,0.053,15.119-0.006
			c4.726-0.057,9.315-0.759,14.042-0.666c5.322,0.103,10.741,0.332,16.039,0.852c10.432,1.023,21.326,0.12,31.801-0.08
			C118.169,248.745,126.287,249.084,134.485,247.516z"/>
	</g>
</g>
<g>
	<g>
		<path d="M55.358,301.61c-0.632-6.278-7.44-4.346-12.141-4.604c-3.592-0.197-12.346-1.548-15.149,1.656
			c-1.524,1.743-1.091,4.479-1.012,6.558c0.15,3.977-0.174,7.812,0.067,11.769c0.214,3.522-0.055,7.204-0.15,10.864
			c-0.503,4.072-2.861,9.753,1.589,11.909c2.403,1.165,7.513,0.708,10.175,0.73c3.909,0.032,8.682-0.102,12.443-1.189
			c4.65-1.344,3.565-6.64,3.86-10.646C55.678,319.955,56.234,310.312,55.358,301.61z M40.146,327.112
			c-0.089,3.083-1.023,6.253-0.86,9.322c-2.322,0.128-5.372,0.324-7.164-0.431c-1.152-0.485-1.725-1.575-2.083-2.909
			c0.473-3.785,0.602-7.621,0.624-11.471c3.08,0.557,6.386,0.724,9.508,0.844C40.169,324.01,40.191,325.555,40.146,327.112z
			 M40.34,317.706c-0.029,0.315-0.036,0.63-0.055,0.943c-3.147-0.174-6.464-0.502-9.623-0.173c-0.021-3.396-0.08-6.796-0.028-10.176
			c0.029-1.854-0.722-4.936,0.413-6.506c1.207-1.671,4.119-1.084,6.141-1.116c1.389-0.022,2.756,0.063,4.117,0.166
			C39.942,306.15,40.822,312.397,40.34,317.706z M49.228,335.498c-1.29,0.784-4.296,0.85-6.627,0.86
			c-0.025-0.262-0.119-0.515-0.27-0.716c-0.013-2.514,0.515-5.122,0.602-7.59c0.065-1.827,0.099-3.652,0.14-5.474
			c2.725,0.097,6.022,0.096,8.546-0.777C51.544,325.116,52.204,333.688,49.228,335.498z M51.517,312.763
			c0,2.058,0.082,4.129,0.109,6.193c-2.836-0.608-5.612-0.318-8.438-0.255c0.024-0.719,0.035-1.441,0.068-2.163
			c0.15-3.215-0.072-6.361,0.156-9.584c0.146-2.068,0.239-4.024-0.129-5.966c0.85,0.061,1.702,0.115,2.561,0.135
			c3.149,0.075,4.997-1.306,5.692,2.155C52.111,306.137,51.518,309.847,51.517,312.763z"/>
	</g>
</g>
<g>
	<g>
		<path d="M98.124,301.61c-0.632-6.278-7.44-4.346-12.141-4.604c-3.592-0.197-12.346-1.548-15.149,1.656
			c-1.524,1.743-1.092,4.479-1.012,6.558c0.151,3.977-0.174,7.812,0.067,11.769c0.214,3.522-0.055,7.204-0.15,10.864
			c-0.503,4.072-2.861,9.753,1.589,11.909c2.403,1.165,7.513,0.708,10.175,0.73c3.909,0.032,8.682-0.102,12.443-1.189
			c4.65-1.344,3.566-6.64,3.86-10.646C98.445,319.955,98.999,310.312,98.124,301.61z M82.911,327.112
			c-0.089,3.083-1.023,6.253-0.86,9.322c-2.322,0.128-5.372,0.324-7.162-0.431c-1.152-0.485-1.725-1.575-2.083-2.909
			c0.473-3.785,0.602-7.621,0.624-11.471c3.08,0.557,6.386,0.724,9.508,0.844C82.935,324.01,82.956,325.555,82.911,327.112z
			 M83.106,317.706c-0.029,0.315-0.036,0.63-0.055,0.943c-3.147-0.174-6.464-0.502-9.623-0.173
			c-0.021-3.396-0.08-6.796-0.028-10.176c0.028-1.854-0.723-4.936,0.413-6.506c1.207-1.671,4.119-1.084,6.141-1.116
			c1.391-0.022,2.756,0.063,4.117,0.166C82.708,306.15,83.588,312.397,83.106,317.706z M91.993,335.498
			c-1.29,0.784-4.297,0.85-6.627,0.86c-0.024-0.262-0.119-0.515-0.27-0.716c-0.013-2.514,0.515-5.122,0.602-7.59
			c0.065-1.827,0.099-3.652,0.14-5.474c2.725,0.097,6.022,0.096,8.546-0.777C94.309,325.116,94.969,333.688,91.993,335.498z
			 M94.282,312.763c0,2.058,0.082,4.129,0.109,6.193c-2.836-0.608-5.612-0.318-8.438-0.255c0.024-0.719,0.035-1.441,0.068-2.163
			c0.15-3.215-0.071-6.361,0.156-9.584c0.146-2.068,0.239-4.024-0.129-5.966c0.85,0.061,1.702,0.115,2.561,0.135
			c3.149,0.075,4.997-1.306,5.692,2.155C94.876,306.137,94.283,309.847,94.282,312.763z"/>
	</g>
</g>
<g>
	<g>
		<path d="M142.042,301.61c-0.632-6.278-7.44-4.346-12.141-4.604c-3.592-0.197-12.346-1.548-15.149,1.656
			c-1.524,1.743-1.091,4.479-1.012,6.558c0.15,3.977-0.174,7.812,0.067,11.769c0.214,3.522-0.055,7.204-0.15,10.864
			c-0.503,4.072-2.861,9.753,1.589,11.909c2.403,1.165,7.513,0.708,10.175,0.73c3.909,0.032,8.682-0.102,12.443-1.189
			c4.65-1.344,3.565-6.64,3.86-10.646C142.363,319.955,142.917,310.312,142.042,301.61z M126.829,327.112
			c-0.089,3.083-1.023,6.253-0.86,9.322c-2.322,0.128-5.372,0.324-7.164-0.431c-1.152-0.485-1.725-1.575-2.083-2.909
			c0.473-3.785,0.602-7.621,0.624-11.471c3.08,0.557,6.386,0.724,9.508,0.844C126.853,324.01,126.874,325.555,126.829,327.112z
			 M127.024,317.706c-0.029,0.315-0.036,0.63-0.055,0.943c-3.147-0.174-6.464-0.502-9.623-0.173
			c-0.021-3.396-0.08-6.796-0.028-10.176c0.028-1.854-0.722-4.936,0.413-6.506c1.207-1.671,4.119-1.084,6.141-1.116
			c1.391-0.022,2.756,0.063,4.117,0.166C126.626,306.15,127.506,312.397,127.024,317.706z M135.911,335.498
			c-1.29,0.784-4.296,0.85-6.627,0.86c-0.025-0.262-0.119-0.515-0.27-0.716c-0.013-2.514,0.514-5.122,0.602-7.59
			c0.065-1.827,0.099-3.652,0.14-5.474c2.725,0.097,6.022,0.096,8.546-0.777C138.227,325.116,138.887,333.688,135.911,335.498z
			 M138.2,312.763c0,2.058,0.082,4.129,0.109,6.193c-2.836-0.608-5.612-0.318-8.438-0.255c0.024-0.719,0.035-1.441,0.068-2.163
			c0.15-3.215-0.072-6.361,0.156-9.584c0.146-2.068,0.239-4.024-0.129-5.966c0.85,0.061,1.702,0.115,2.561,0.135
			c3.149,0.075,4.997-1.306,5.692,2.155C138.794,306.137,138.201,309.847,138.2,312.763z"/>
	</g>
</g>
<g>
	<g>
		<path d="M201.761,302.624c-0.529-5.262-6.237-3.642-10.176-3.859c-3.01-0.166-10.348-1.298-12.698,1.387
			c-1.278,1.461-0.914,3.754-0.849,5.498c0.126,3.332-0.145,6.547,0.055,9.864c0.18,2.952-0.046,6.038-0.126,9.105
			c-0.421,3.414-2.397,8.175,1.332,9.982c2.014,0.975,6.297,0.594,8.528,0.612c3.277,0.028,7.277-0.085,10.429-0.996
			c3.897-1.126,2.989-5.566,3.235-8.923C202.029,318.001,202.494,309.918,201.761,302.624z M189.011,323.999
			c-0.075,2.584-0.857,5.24-0.722,7.814c-1.946,0.107-4.503,0.272-6.004-0.362c-0.965-0.407-1.446-1.32-1.747-2.439
			c0.395-3.172,0.505-6.388,0.523-9.615c2.582,0.467,5.352,0.606,7.97,0.708C189.03,321.399,189.048,322.695,189.011,323.999z
			 M189.172,316.116c-0.024,0.264-0.03,0.527-0.046,0.791c-2.638-0.146-5.418-0.421-8.065-0.144
			c-0.017-2.847-0.066-5.696-0.024-8.53c0.024-1.555-0.604-4.139,0.347-5.455c1.011-1.4,3.452-0.909,5.147-0.935
			c1.165-0.018,2.309,0.054,3.451,0.14C188.839,306.43,189.577,311.666,189.172,316.116z M196.623,331.027
			c-1.081,0.657-3.601,0.713-5.555,0.721c-0.021-0.219-0.099-0.431-0.227-0.6c-0.01-2.108,0.431-4.293,0.504-6.361
			c0.054-1.532,0.083-3.061,0.116-4.589c2.284,0.082,5.048,0.081,7.164-0.651C198.563,322.326,199.117,329.511,196.623,331.027z
			 M198.542,311.97c0,1.725,0.069,3.46,0.091,5.191c-2.378-0.51-4.703-0.266-7.073-0.213c0.021-0.603,0.029-1.207,0.058-1.813
			c0.126-2.695-0.06-5.331,0.13-8.033c0.122-1.734,0.201-3.373-0.108-5.001c0.713,0.052,1.426,0.096,2.147,0.113
			c2.639,0.062,4.189-1.094,4.771,1.806C199.04,306.418,198.542,309.526,198.542,311.97z"/>
	</g>
</g>
<g>
	<g>
		<path d="M201.761,358.826c-0.529-5.262-6.237-3.642-10.176-3.859c-3.01-0.165-10.348-1.298-12.698,1.388
			c-1.278,1.461-0.914,3.754-0.849,5.498c0.126,3.333-0.145,6.547,0.055,9.865c0.18,2.952-0.046,6.038-0.126,9.105
			c-0.421,3.414-2.397,8.175,1.332,9.983c2.014,0.975,6.297,0.594,8.528,0.612c3.277,0.028,7.277-0.085,10.429-0.996
			c3.897-1.126,2.989-5.566,3.235-8.922C202.029,374.203,202.494,366.121,201.761,358.826z M189.011,380.201
			c-0.075,2.584-0.857,5.242-0.722,7.814c-1.946,0.107-4.503,0.272-6.004-0.362c-0.965-0.407-1.446-1.32-1.747-2.439
			c0.395-3.172,0.505-6.388,0.523-9.615c2.582,0.467,5.352,0.607,7.97,0.708C189.03,377.601,189.048,378.897,189.011,380.201z
			 M189.172,372.316c-0.024,0.264-0.03,0.527-0.046,0.791c-2.638-0.146-5.418-0.421-8.065-0.144
			c-0.017-2.847-0.066-5.696-0.024-8.53c0.024-1.554-0.604-4.138,0.347-5.454c1.011-1.4,3.452-0.909,5.147-0.935
			c1.165-0.018,2.309,0.053,3.451,0.138C188.839,362.631,189.577,367.867,189.172,372.316z M196.623,387.229
			c-1.081,0.657-3.601,0.713-5.555,0.721c-0.021-0.219-0.099-0.431-0.227-0.6c-0.01-2.107,0.431-4.293,0.504-6.361
			c0.054-1.532,0.083-3.06,0.116-4.589c2.284,0.082,5.048,0.081,7.164-0.651C198.563,378.528,199.117,385.713,196.623,387.229z
			 M198.542,368.174c0,1.725,0.069,3.46,0.091,5.191c-2.378-0.51-4.703-0.266-7.073-0.213c0.021-0.603,0.029-1.208,0.058-1.813
			c0.126-2.695-0.06-5.331,0.13-8.033c0.122-1.734,0.201-3.372-0.108-5.001c0.713,0.052,1.426,0.096,2.147,0.113
			c2.639,0.062,4.189-1.094,4.771,1.806C199.04,362.621,198.542,365.729,198.542,368.174z"/>
	</g>
</g>
<g>
	<g>
		<path d="M55.358,359.645c-0.632-6.278-7.44-4.346-12.141-4.604c-3.592-0.197-12.346-1.548-15.149,1.656
			c-1.524,1.743-1.091,4.479-1.012,6.558c0.15,3.977-0.174,7.812,0.067,11.769c0.214,3.522-0.055,7.204-0.15,10.864
			c-0.503,4.072-2.861,9.753,1.589,11.909c2.403,1.165,7.513,0.708,10.175,0.731c3.909,0.032,8.682-0.102,12.443-1.189
			c4.65-1.344,3.565-6.64,3.86-10.646C55.678,377.989,56.234,368.348,55.358,359.645z M40.146,385.146
			c-0.089,3.083-1.023,6.253-0.86,9.323c-2.322,0.128-5.372,0.324-7.164-0.431c-1.152-0.485-1.725-1.575-2.083-2.909
			c0.473-3.785,0.602-7.621,0.624-11.471c3.08,0.557,6.386,0.724,9.508,0.844C40.169,382.044,40.191,383.591,40.146,385.146z
			 M40.34,375.74c-0.029,0.315-0.036,0.63-0.055,0.943c-3.147-0.174-6.464-0.502-9.623-0.173c-0.021-3.396-0.08-6.796-0.028-10.178
			c0.029-1.853-0.722-4.935,0.413-6.505c1.207-1.671,4.119-1.084,6.141-1.116c1.389-0.022,2.756,0.063,4.117,0.166
			C39.942,364.184,40.822,370.431,40.34,375.74z M49.228,393.532c-1.29,0.784-4.296,0.85-6.627,0.86
			c-0.025-0.262-0.119-0.515-0.27-0.716c-0.013-2.514,0.515-5.122,0.602-7.59c0.065-1.828,0.099-3.652,0.14-5.474
			c2.725,0.097,6.022,0.096,8.546-0.777C51.544,383.15,52.204,391.723,49.228,393.532z M51.517,370.797
			c0,2.058,0.082,4.129,0.109,6.193c-2.836-0.608-5.612-0.318-8.438-0.255c0.024-0.719,0.035-1.441,0.068-2.163
			c0.15-3.215-0.072-6.361,0.156-9.584c0.146-2.068,0.239-4.024-0.129-5.966c0.85,0.061,1.702,0.115,2.561,0.135
			c3.149,0.075,4.997-1.306,5.692,2.155C52.111,364.172,51.518,367.881,51.517,370.797z"/>
	</g>
</g>
<g>
	<g>
		<path d="M98.124,359.645c-0.632-6.278-7.44-4.346-12.141-4.604c-3.592-0.197-12.346-1.548-15.149,1.656
			c-1.524,1.743-1.092,4.479-1.012,6.558c0.151,3.977-0.174,7.812,0.067,11.769c0.214,3.522-0.055,7.204-0.15,10.864
			c-0.503,4.072-2.861,9.753,1.589,11.909c2.403,1.165,7.513,0.708,10.175,0.731c3.909,0.032,8.682-0.102,12.443-1.189
			c4.65-1.344,3.566-6.64,3.86-10.646C98.445,377.989,98.999,368.348,98.124,359.645z M82.911,385.146
			c-0.089,3.083-1.023,6.253-0.86,9.323c-2.322,0.128-5.372,0.324-7.162-0.431c-1.152-0.485-1.725-1.575-2.083-2.909
			c0.473-3.785,0.602-7.621,0.624-11.471c3.08,0.557,6.386,0.724,9.508,0.844C82.935,382.044,82.956,383.591,82.911,385.146z
			 M83.106,375.74c-0.029,0.315-0.036,0.63-0.055,0.943c-3.147-0.174-6.464-0.502-9.623-0.173c-0.021-3.396-0.08-6.796-0.028-10.178
			c0.028-1.853-0.723-4.935,0.413-6.505c1.207-1.671,4.119-1.084,6.141-1.116c1.391-0.022,2.756,0.063,4.117,0.166
			C82.708,364.184,83.588,370.431,83.106,375.74z M91.993,393.532c-1.29,0.784-4.297,0.85-6.627,0.86
			c-0.024-0.262-0.119-0.515-0.27-0.716c-0.013-2.514,0.515-5.122,0.602-7.59c0.065-1.828,0.099-3.652,0.14-5.474
			c2.725,0.097,6.022,0.096,8.546-0.777C94.309,383.15,94.969,391.723,91.993,393.532z M94.282,370.797
			c0,2.058,0.082,4.129,0.109,6.193c-2.836-0.608-5.612-0.318-8.438-0.255c0.024-0.719,0.035-1.441,0.068-2.163
			c0.15-3.215-0.071-6.361,0.156-9.584c0.146-2.068,0.239-4.024-0.129-5.966c0.85,0.061,1.702,0.115,2.561,0.135
			c3.149,0.075,4.997-1.306,5.692,2.155C94.876,364.172,94.283,367.881,94.282,370.797z"/>
	</g>
</g>
<g>
	<g>
		<path d="M142.042,359.645c-0.632-6.278-7.44-4.346-12.141-4.604c-3.592-0.197-12.346-1.548-15.149,1.656
			c-1.524,1.743-1.091,4.479-1.012,6.558c0.15,3.977-0.174,7.812,0.067,11.769c0.214,3.522-0.055,7.204-0.15,10.864
			c-0.503,4.072-2.861,9.753,1.589,11.909c2.403,1.165,7.513,0.708,10.175,0.731c3.909,0.032,8.682-0.102,12.443-1.189
			c4.65-1.344,3.565-6.64,3.86-10.646C142.363,377.989,142.917,368.348,142.042,359.645z M126.829,385.146
			c-0.089,3.083-1.023,6.253-0.86,9.323c-2.322,0.128-5.372,0.324-7.164-0.431c-1.152-0.485-1.725-1.575-2.083-2.909
			c0.473-3.785,0.602-7.621,0.624-11.471c3.08,0.557,6.386,0.724,9.508,0.844C126.853,382.044,126.874,383.591,126.829,385.146z
			 M127.024,375.74c-0.029,0.315-0.036,0.63-0.055,0.943c-3.147-0.174-6.464-0.502-9.623-0.173
			c-0.021-3.396-0.08-6.796-0.028-10.178c0.028-1.853-0.722-4.935,0.413-6.505c1.207-1.671,4.119-1.084,6.141-1.116
			c1.391-0.022,2.756,0.063,4.117,0.166C126.626,364.184,127.506,370.431,127.024,375.74z M135.911,393.532
			c-1.29,0.784-4.296,0.85-6.627,0.86c-0.025-0.262-0.119-0.515-0.27-0.716c-0.013-2.514,0.514-5.122,0.602-7.59
			c0.065-1.828,0.099-3.652,0.14-5.474c2.725,0.097,6.022,0.096,8.546-0.777C138.227,383.15,138.887,391.723,135.911,393.532z
			 M138.2,370.797c0,2.058,0.082,4.129,0.109,6.193c-2.836-0.608-5.612-0.318-8.438-0.255c0.024-0.719,0.035-1.441,0.068-2.163
			c0.15-3.215-0.072-6.361,0.156-9.584c0.146-2.068,0.239-4.024-0.129-5.966c0.85,0.061,1.702,0.115,2.561,0.135
			c3.149,0.075,4.997-1.306,5.692,2.155C138.794,364.172,138.201,367.881,138.2,370.797z"/>
	</g>
</g>
<g>
	<g>
		<path d="M249.855,179.812c-7.754,4.801-17.129,7.784-25.433,11.591c-8.937,4.098-17.353,9.023-26.163,13.241
			c-8.826,4.226-17.896,7.872-26.593,12.345c-3.724,1.915-7.43,3.483-11.065,5.555c-3.355,1.913-8.026,3.11-10.3,6.444
			c-0.523,0.767-0.306,1.95,0.332,2.578c2.997,2.952,9.564,1.735,13.372,1.719c7.485-0.032,14.943-0.438,22.412-0.48
			c7.689-0.042,15.528-0.533,23.183,0.143c5.771,0.51,12.576,1.563,18.124-0.385c0.484-0.169,0.64-0.859,0.149-1.136
			c-4.577-2.578-10.106-1.974-15.229-2.187c-6.746-0.28-13.465-0.372-20.251-0.395c-6.57-0.022-13.1,0.306-19.658,0.287
			c-3.223-0.009-6.446-0.015-9.669-0.029c-1.115-0.005-4.131,0.292-6.501,0.172c1.63-0.875,3.542-1.704,4.403-2.195
			c1.746-0.994,3.438-2.233,5.205-3.165c4.489-2.371,9.239-4.673,13.852-6.769c7.892-3.586,15.756-7.198,23.529-11.013
			c7.844-3.85,15.368-8.448,23.344-12.172c8.188-3.823,16.165-7.854,23.717-12.841C251.425,180.587,250.69,179.295,249.855,179.812z
			"/>
	</g>
</g>
<g>
	<g>
		<path d="M481.996,265.164c-0.001-0.008,0.001-0.017,0-0.025c-0.042,0.08-0.069,0.148-0.081,0.204
			c0.025-0.046,0.054-0.089,0.082-0.134C481.996,265.192,481.999,265.184,481.996,265.164z"/>
	</g>
</g>
<g>
	<g>
		<path d="M511.912,273.895c-0.988-8.679-12.171-7.23-18.556-7.297c-1.746-0.018-3.437-0.039-5.116-0.052
			c0.103-0.979-0.122-1.974-0.164-2.96c-0.038-0.919-0.016-1.905-0.301-2.793c-0.116-0.364-0.3-0.722-0.507-1.043
			c-0.092-0.142-0.367-0.61-0.37-0.5c-0.143-0.502-0.187-1.03-0.31-1.55c0.027-0.002,0.054-0.005,0.081-0.007
			c5.016-0.428,10.929-1.542,9.893-7.774c-1.049-6.303-8.839-6.999-14.161-7.021c-8.969-0.036-17.76,0.383-26.736-0.241
			c-8.725-0.605-17.52,1.065-26.226,1.28c-10.101,0.249-20.219,0.168-30.324,0.361c-1.52,0.029-3.054,0.111-4.594,0.199
			c5.153-4.206-0.775-10.861-5.401-13.861c-7.305-4.738-14.619-9.69-22.473-13.733c-5.3-2.728-10.924-4.741-16.216-7.49
			c-4.991-2.593-9.781-5.551-14.714-8.25c-8.386-4.588-17.427-7.806-25.83-12.285c-9.048-4.823-18.038-9.792-27.193-14.376
			c-3.918-1.961-8-3.841-11.855-5.948c-2.858-2.934-6.583-5.712-10.069-6.963c0.028-0.14,0.058-0.279,0.052-0.438
			c-0.475-12.252-0.306-24.634,0.151-36.963c6.058,0.627,12.18,0.374,18.257,0.271c7.273-0.123,14.825,0.61,22.057-0.003
			c1.048-0.089,1.706-0.627,2.082-1.585c1.246-3.174,0.551-7.906,0.342-11.324c-0.176-2.885-0.115-5.792-0.316-8.676
			c-0.385-5.534-0.089-9.899-6.189-10.285c-6.314-0.401-12.644-0.513-18.961-0.717c-6.019-0.194-12.409-0.66-18.31,0.805
			c-1.112-0.862-2.598-1.186-4.029-0.69c-2.673,0.927-3.33,3.739-3.177,6.226c0.234,3.776-0.545,7.756-0.627,11.561
			c-0.09,4.192-0.024,8.386-0.03,12.579c-0.02,13.149-0.981,26.359-0.352,39.509c0.001,0.032,0.01,0.059,0.013,0.09
			c-5.789,1.927-11.523,6.132-15.514,9.884c-0.638,0.6,0.054,1.441,0.776,1.333c6.549-0.988,11.682-5.501,18.166-6.505
			c5.974-0.925,12.446,5.917,18.25,7.961c3.722,1.969,7.461,3.929,11.135,6.05c8.389,4.843,17.01,10.191,25.849,14.207
			c17.143,7.789,33.079,17.847,49.9,26.374c7.508,3.806,14.547,8.247,21.088,13.445c1.274,1.012,2.703,1.447,4.008,2.318
			c0.814,0.543,1.386,1.476,2.208,2.026c0.221,0.149,0.387,0.265,0.514,0.36c-2.426,1.617-10.73,1.181-13.451,1.273
			c-8.82,0.3-17.991-0.199-26.657,1.392c-4.391,0.806-8.716,1.796-13.206,1.515c-3.938-0.246-7.843-0.903-11.77-1.279
			c-8.816-0.845-17.43-0.41-26.157-0.865c-4.399-0.229-8.575-0.797-13.005-0.827c-4.444-0.031-9.046-0.047-13.392-0.075
			c-7.813-0.05-15.967,0.166-23.736-0.57c-7.469-0.707-14.63-0.611-22.08,0.318c-5.438,0.679-11.748,0.188-16.475,3.049
			c-0.776,0.469-0.662,1.746,0.258,1.976c5.4,1.347,10.933,1.355,16.444,1.007c8.333-0.527,16.245,0.641,24.53,0.811
			c12.555,0.257,25.36,0.704,37.917-0.612c0.085,0.011,0.172,0.02,0.257,0.032c4.968,0.696,10.593,1.328,15.582,0.967
			c10.703-0.775,20.954,0.912,31.629,1.794c5.071,0.419,10.313-0.082,15.368-0.56c3.985-0.377,7.992-0.317,12.003-0.549
			c-0.671,5.684-0.459,11.447-0.588,17.168c-5.803-0.965-11.736-0.353-17.571-0.093c-6.073,0.27-12.389,0.389-18.46,0.322
			c-7.286-0.08-14.516,0.374-21.802,0.374c-4.513,0-9.166-0.225-13.748-0.143c-5.658-1.979-13.209-0.954-19.056-0.647
			c-5.562,0.292-11.281,0.832-16.83,0.69c-11.884-0.306-24.347-0.73-36.163,0.354c-1.419,0.13-1.418,2.072,0,2.207
			c12.043,1.144,24.032,0.826,36.163,1.23c5.235,0.175,10.652-0.142,15.886-0.469c5.378-0.337,11.808,0.62,17.315-0.421
			c12.767,0.987,25.388,0.169,38.236,0.309c6.15,0.067,12.306-0.21,18.46-0.322c5.61-0.103,11.849,0.018,17.499-0.978
			c-0.142,3.189-0.578,4.413-4.191,5.11c-2.904,0.559-5.68,0.866-8.541,1.062c-2.266-0.176-4.529-0.13-6.618,0.277
			c-7.348,0.19-14.795,0.008-22.117-0.485c-4.473-0.301-8.704-0.805-13.218-0.715c-0.437,0.009-4.513,0.48-7.853,1.058
			c-1.857-0.028-3.707-0.125-5.538-0.136c-2.45-0.191-4.899-0.125-7.127,0.383c-4.024-0.251-8.087-0.273-11.999-0.006
			c-8.505,0.581-16.994-0.389-25.476-0.325c-7.845,0.059-15.593-0.199-23.437-0.273c-6.395-0.06-13.805-1.175-19.732,1.794
			c-0.485,0.243-0.485,1.04,0,1.283c2.869,1.437,5.896,1.721,9.095,1.856c3.587,0.152,7.022,0.665,10.638,0.707
			c8.107,0.091,16.156,0.461,24.273,0.499c9.558,0.045,19.321,0.79,28.96,0.289c-0.12,0.254-0.243,0.504-0.348,0.776
			c-1.998,5.142,2.606,6.827,3.468,11.011c0.719,3.487-0.349,7.438-0.107,10.984c0.199,2.922,1.073,5.726,1.284,8.659
			c0.538,7.459,0.605,14.855,0.588,22.344c-0.016,6.807,0.528,13.458,0.572,20.246c0.042,6.505-0.89,12.871-0.821,19.368
			c0.039,3.748,0.676,7.401,0.621,11.178c-0.047,3.295-0.44,6.435,0.271,9.6c-2.196,0.36-4.172,1.332-5.23,3.226
			c-2.131,3.812-0.807,10.163,0.392,14.598c-0.925,0.005-1.802,0.05-2.478,0.028c-0.928-0.03-1.855-0.036-2.781-0.025
			c-0.046-7.211-0.233-14.426,0.38-21.61c0.526-6.152,0.892-12.448,0.389-18.609c-0.467-5.722-0.341-11.035-5.103-15.115
			c-3.571-3.059-9.078-4.607-13.725-4.596c-12.228,0.03-17.988,11.7-18.12,22.593c-0.152,12.584-0.845,25.488,0.77,38.039
			c-0.952,0.015-1.902,0.02-2.856,0.053c-1.694,0.058-7.617-0.159-8.168,2.476c-0.018,0.086-0.037,0.174-0.054,0.261
			c-0.182,0.869,0.248,1.902,1.198,2.111c8.164,1.786,17.576,1.208,25.875,1.199c4.915-0.006,9.812,0.042,14.733,0.167
			c4.122,0.106,9.181,0.89,13.141-0.532c0.135-0.048,0.257-0.112,0.382-0.172c2.254,1.591,5.303,1.957,8.47,1.941
			c5.403-0.027,11.012-0.491,16.342-1.366c3.712,1.67,9.331,0.899,12.94,0.44c5.594-0.711,11.391-0.321,16.917-1.551
			c2.297,2.048,5.65,2.494,9.146,2.477c5.757-0.029,11.761-0.535,17.397-1.527c0.168-0.03,0.342-0.097,0.514-0.181
			c0.615,0.257,1.304,0.356,2.029,0.205c7.522-1.566,16.485-0.294,24.181-0.311c6.163-0.014,12.01-0.647,18.141-1.124
			c15.142-1.177,30.502,0.363,45.613,0.317c6.855-0.021,13.873,0.462,20.68-0.31c6.292-0.714,12.579,0.321,18.672-0.455
			c3.384-0.431,8.953,0.442,10.247-3.805c0.387-1.271,0.269-3.023-0.151-4.755c1.333-8.514,0.905-17.489,0.93-26.014
			c0.035-11.583,0.633-23.058,0.153-34.634c-0.472-11.4,0.645-23.057-0.565-34.403c-1.002-9.403,0.414-19.993-1.521-29.376
			C508.266,282.831,512.693,280.749,511.912,273.895z M291.729,96.007c1.924,0.136,4.213-0.157,6.046,0.425
			c0.415,0.131,0.685,0.176,0.859,0.178c0.005,0.159,0.055,0.399,0.197,0.766c0.285,0.74,0.421,1.774,0.499,2.826
			c-0.136-0.057-0.286-0.097-0.462-0.099c-4.795-0.074-9.591,0.059-14.379-0.073c-2.322-0.063-4.675,0.239-6.99,0.339
			c0.04-0.901,0.039-1.802,0.032-2.726c-0.003-0.506-0.081-1.803-0.131-2.465C282.179,95.408,286.949,95.667,291.729,96.007z
			 M277.286,102.615c0.029-0.182,0.044-0.362,0.067-0.543c1.596,0.276,3.535-0.002,4.809,0.057
			c5.571,0.253,11.118,0.459,16.708,0.378c0.229-0.003,0.415-0.069,0.576-0.16c0.008,0.18,0.016,0.357,0.025,0.522
			c0.069,1.249,0.195,2.681,0.325,4.2c-0.235-0.024-0.472-0.05-0.703-0.046c-0.753,0.014-1.552-0.105-2.284-0.055
			c-0.052,0.003-0.105,0.023-0.157,0.029c-2.511-0.334-5.51,0.339-7.685,0.339c-4.292,0-8.341-0.862-12.508-0.734
			C276.985,105.32,277.111,103.697,277.286,102.615z M274.242,95.019c0.054,0.002,0.11,0.006,0.164,0.008
			c-0.284,1.704,0.096,3.678-0.012,5.334c-0.081,1.24-0.248,2.678-0.564,3.893c-0.352,1.358-0.09,1.033-1.487,1.14
			c-3.366,0.258-7.09-0.889-10.473-0.284c0.028-0.51,0.047-1.027,0.075-1.537c0.152-2.776,0.485-5.895-0.439-8.59
			C265.61,95.551,270.217,94.837,274.242,95.019z M261.737,107.847c1.781,0.468,3.971,0.339,5.556,0.406
			c1.892,0.081,5.486,0.904,7.446,0.168c4.674,0.769,9.539,1.331,14.227,1.386c2.523,0.03,5.021-0.225,7.563-0.093
			c1.321,0.068,1.806,0.255,2.402-0.077c0.36,0.029,0.717,0.033,1.067,0.001c0.09,1.244,0.167,2.505,0.197,3.758
			c-6.864,1.283-14.627,0.711-21.54,0.865c-3.34,0.074-6.609-0.449-9.95-0.498c-1.681-0.024-3.522-0.203-5.169-0.106
			c-0.627,0.037-1.371,0.231-2.101,0.377C261.536,111.972,261.629,109.905,261.737,107.847z M261.362,115.475
			c1.236,0.342,2.584,0.398,3.858,0.504c4.189,0.349,8.494,0.625,12.697,0.627c4.601,0.002,9.159,0.084,13.754-0.203
			c2.704-0.168,5.767-0.084,8.513-0.619c-0.052,1.593-0.204,3.113-0.531,4.458c-6.732,0.414-13.692-0.16-20.422-0.039
			c-6.023,0.108-12.082,0.346-18.086-0.269C261.206,118.443,261.29,116.963,261.362,115.475z M258.919,102.097
			c-0.523,6.224-0.214,12.484-0.666,18.721c-0.932,12.856-2.234,26.519-1.211,39.412c-0.103,0.213-0.174,0.442-0.197,0.672
			c-0.02,0.001-0.04-0.001-0.06,0c-0.628,0.039-1.264,0.128-1.9,0.239c0.58-12.856,0.235-25.932,0.216-38.795
			c-0.008-5.652,0.129-11.269,0.278-16.9c0.076-2.906,0.467-6.074,0.274-9.094c0.066-0.181,0.137-0.349,0.224-0.488
			C258.698,91.421,259.093,100.023,258.919,102.097z M253.226,378.588c-0.009,11.474-0.135,22.866-0.185,34.353
			c-3.997-0.055-7.997-0.142-12.014-0.128c1.008-9.021,0.054-18.119,0.25-27.199c0.083-3.846,0.061-8.771,0.714-13.489
			c3.034,1.125,7.01,0.838,10.013,0.728c0.492-0.018,0.986-0.024,1.479-0.033C253.348,374.746,253.227,376.671,253.226,378.588z
			 M253.785,363.174c0.097,1.635,0.068,3.278-0.006,4.923c-0.594,0.039-1.186,0.078-1.774,0.114c-2.797,0.171-6.25-0.47-9.254-0.099
			c1.487-6.013,4.592-10.986,11.209-11.825C253.105,358.43,253.644,360.776,253.785,363.174z M270.292,365.435
			c0.146,0.743,0.252,1.502,0.337,2.268c-0.03-0.003-0.058-0.013-0.088-0.015c-4.327-0.324-8.818-0.106-13.247,0.179
			c-0.047-3.882-0.213-7.76-0.702-11.696C262.268,356.381,269.133,359.556,270.292,365.435z M270.326,381.927
			c-0.684,10.11-0.83,20.233-0.869,30.387c-4.019,0.219-8.025,0.566-12.034,0.635c-0.044-10.392-0.145-20.77-0.176-31.139
			c-0.009-3.045,0.037-6.042,0.058-9.021c4.536,0.01,9.079,0.06,13.542-0.759C270.848,375.371,270.54,378.764,270.326,381.927z
			 M377.517,247.516c8.199,1.569,16.316,1.23,24.785,1.391c10.475,0.199,21.369,1.102,31.801,0.08
			c5.298-0.52,10.717-0.749,16.039-0.852c4.727-0.091,9.316,0.61,14.042,0.666c5.001,0.06,10.128,0.253,15.119,0.006
			c1.788-0.089,13.92-0.85,11.719,2.951c-0.704,1.218-13.021,1.877-14.945,2.047c-4.858,0.429-9.63,0.582-14.511,0.588
			c-6.016,0.007-12.034-0.012-18.05,0c-5.376,0.01-10.649-0.675-16.008-0.294c-10.756,0.762-21.446,0.74-32.25,0.651
			c-9.144-0.075-18.398-0.917-27.53-0.538c-0.258-2.13-0.745-4.217-1.42-6.255C370.042,247.752,373.782,247.683,377.517,247.516z
			 M481.497,266.599c-1.417,0.044-2.849,0.112-4.319,0.219c-5.479,0.402-10.835,0.688-16.354,0.688
			c-0.732,0-1.463,0.006-2.195,0.007c0.068-0.879-0.157-1.793-0.18-2.841c-0.039-1.742-0.163-3.449-0.339-5.168
			c0.769,0,1.539,0.001,2.308,0.001c7.348,0,14.441-0.723,21.652-1.397c0.006,0.223,0.012,0.446-0.003,0.681
			c-0.07,1.047-0.269,1.709-0.023,2.768c0.22,0.945,0.138,1.253,0.012,2.609c-0.029,0.31-0.096,0.658-0.059,0.973
			c0.118-0.226,0.359-0.527,0.869-0.877c-0.369,0.253-0.642,0.588-0.868,0.949c0.039,0.402-0.136,0.392-0.082,0.134
			C481.693,265.737,481.549,266.159,481.497,266.599z M455.75,267.521c-0.837,0.003-1.672,0.013-2.509,0.017
			c-0.065-1.055-0.274-2.132-0.342-3.107c-0.084-1.2-0.115-2.382-0.273-3.577c-0.055-0.419-0.07-0.921-0.172-1.354
			c1.165,0.001,2.328,0.001,3.492,0.002c-0.152,1.373-0.282,2.744-0.33,4.134C455.572,264.943,455.719,266.231,455.75,267.521z
			 M449.335,264.431c0.012,1.018-0.003,2.08,0.029,3.134c-0.653,0.006-1.305,0.023-1.959,0.03c0.013-0.93-0.103-1.894-0.135-2.726
			c-0.069-1.733-0.095-3.597-0.327-5.373l2.808,0.001C449.298,261.075,449.319,262.888,449.335,264.431z M444.021,259.486
			c-0.351,1.037-0.42,2.216-0.477,3.325c-0.069,1.321-0.401,3.179-0.355,4.847c-5.156,0.082-10.313,0.194-15.478,0.387
			c-5.643,0.211-11.266,0.474-16.895,0.7c-0.031-1.872-0.302-3.804-0.404-5.608c-0.054-0.96-0.02-2.169-0.181-3.292
			c6.45-0.246,12.898-0.551,19.342-0.862C434.354,258.754,439.209,259.431,444.021,259.486z M406.577,267.675
			c0.016,0.344,0.018,0.77,0.032,1.226c-0.773,0.028-1.546,0.048-2.32,0.074c0.093-1.13-0.053-2.339-0.091-3.359
			c-0.068-1.852-0.334-3.7-0.444-5.548c1.151-0.035,2.301-0.068,3.452-0.107c-0.118,0.859-0.363,1.838-0.399,2.331
			C406.679,264.058,406.493,265.908,406.577,267.675z M398.217,263.355c-0.114-0.948-0.257-2.089-0.537-3.151
			c1.192-0.023,2.384-0.035,3.577-0.066c-0.304,1.664-0.445,3.316-0.521,5.07c-0.05,1.151-0.269,2.569-0.217,3.88
			c-0.65,0.017-1.302,0.027-1.952,0.042C398.738,267.214,398.444,265.25,398.217,263.355z M394.509,269.2
			c-6.065,0.076-12.131,0.104-18.197,0.181c-2.793,0.036-5.848-0.148-8.739,0.176c0.362-3.162,0.38-6.595,0.37-9.836
			c8.905,0.552,17.81,0.66,26.715,0.536c-0.155,0.902-0.16,1.845-0.185,2.755C394.417,265.042,394.3,267.164,394.509,269.2z
			 M341.115,280.388c1.138-0.925,2.299-1.175,3.576-1.29c1.658-0.028,3.318-0.076,4.979-0.123c2.308,0.095,4.67,0.296,6.893,0.003
			c0.823,0.145,1.523,0.414,1.907,0.904c0.96,1.227,0.839,4.266,0.368,5.067c-0.312,0.532-0.688,0.894-1.061,1.245
			c-1.072-0.108-1.973-0.451-2.068-1.575c-0.158-1.864-2.79-2.374-3.344-0.453c-0.759,2.635,1.419,4.438,3.747,5.002
			c-1.099,4.433-0.369,9.832-0.356,14.252c0.015,5.564-0.914,11.102-0.918,16.741c-0.006,11.155,1.053,22.304,1.073,33.469
			c0.012,6.149,0.616,12.288,0.61,18.476c-0.006,6.196-0.058,12.395,0.007,18.591c0.003,0.354,0.073,0.663,0.169,0.949
			c0.031,0.77,0.061,1.542,0.01,2.307c-3.709-0.5-7.817-0.032-11.703,0.575c-0.119-0.027-0.236-0.052-0.357-0.075
			c1.343-5.233,0.602-11.704,0.101-16.958c-0.596-6.26,0.258-12.142,0.338-18.37c0.075-5.826-0.597-11.459-0.927-17.234
			c-0.359-6.275,0.02-12.697,0.022-18.985c0.002-5.388-0.135-11.007-1.136-16.315c-1.014-5.38,0.491-11.221-0.5-16.517
			c0.986-0.114,1.926-0.422,2.592-0.883c1.732-1.2,2.628-4.373,0.452-5.676c-0.241-0.144-0.608-0.166-0.845,0
			c-1.015,0.709-0.62,2.227-1.78,2.639c-0.745,0.265-1.54,0.024-2.327-0.098C339.449,283.761,338.853,282.228,341.115,280.388z
			 M285.771,280.388c1.625-1.321,3.293-1.271,5.287-1.408c3.275-0.225,6.87,0.432,10.161-0.002c0.823,0.145,1.523,0.414,1.907,0.904
			c0.96,1.227,0.839,4.266,0.368,5.067c-0.495,0.841-1.146,1.259-1.695,1.885c-0.258-0.155-0.5-0.332-0.701-0.556
			c-0.08-0.088-0.144-0.186-0.214-0.28c-0.082-0.143-0.152-0.288-0.187-0.439c-0.129-0.557,0.186-1.065,0.114-1.62
			c-0.251-1.959-2.871-1.554-2.849-0.073c-0.174,0.27-0.3,0.596-0.371,0.964c-0.236,1.215-0.135,2.126,0.572,3.164
			c0.49,0.721,1.374,1.572,2.373,2.155c-0.779,4.232-0.135,9.176-0.125,13.271c0.015,5.564-0.914,11.102-0.918,16.74
			c-0.006,11.155,1.053,22.304,1.073,33.469c0.012,6.149,0.616,12.288,0.61,18.476c-0.006,6.196-0.058,12.395,0.007,18.591
			c0.003,0.354,0.073,0.663,0.169,0.949c0.031,0.77,0.061,1.542,0.01,2.307c-3.709-0.5-7.817-0.032-11.703,0.575
			c-0.119-0.027-0.236-0.052-0.357-0.075c1.343-5.233,0.602-11.704,0.102-16.958c-0.596-6.26,0.257-12.142,0.338-18.37
			c0.075-5.826-0.597-11.459-0.927-17.234c-0.359-6.275,0.02-12.697,0.022-18.985c0.002-5.388-0.135-11.007-1.136-16.315
			c-0.977-5.184,0.387-10.796-0.398-15.936c0.66-0.173,1.301-0.427,1.872-0.707c1.161-0.568,2.062-1.384,2.312-2.7
			c0.173-0.911-0.103-1.529-0.478-2.162c-0.035-0.324-0.115-0.641-0.297-0.932c-0.635-1.01-1.884-0.879-2.544,0
			c-0.503,0.671-0.176,1.544-0.905,2.059c-0.077,0.055-0.154,0.093-0.233,0.129c-0.487,0.109-0.954,0.184-1.435,0.24
			c-0.097-0.158-0.194-0.324-0.288-0.506C284.108,283.77,283.502,282.233,285.771,280.388z M305.498,413.374
			c-2.568,0.253-5.291,0.349-7.812,0.605c-3.92,0.399-10.359,1.228-12.183-2.872c-0.872-1.959-2.209-9.59-0.616-10.564
			c0.751-0.459,3.288-0.25,4.177-0.492c0.319-0.088,0.638-0.201,0.956-0.325c1.641,0.047,3.291-0.021,4.809,0.018
			c4.174,0.108,8.541-1.041,10.502,3.822C306.495,406.455,306.048,410.179,305.498,413.374z M334.271,397.55
			c-2.149,3.844-0.785,10.267,0.421,14.705c-3.848-0.728-8.352-0.33-11.444-0.118c-3.49,0.239-6.813,0.347-10.318,0.401
			c-0.545,0.008-1.061,0.009-1.555,0.014c0.68-6.091,0.719-13.721-4.5-16.813c0.313-1.48,0.118-2.983-0.032-4.489
			c0.032-0.176,0.059-0.357,0.06-0.555c0.151-14.424,0.415-28.966-0.877-43.308c-0.563-6.242,0.276-12.481-0.495-18.717
			c-0.839-6.798-0.446-13.757,0.045-20.542c0.408-5.625-2.522-14.824,1.729-18.906c2.776-2.666,4.611-4.786,2.701-8.988
			c-0.219-0.483-0.483-0.928-0.771-1.351c4.799,0.118,9.566,0.514,14.365,0.435c3.637-0.06,7.26-0.085,10.882-0.111
			c-0.319,0.531-0.613,1.096-0.859,1.726c-1.998,5.142,2.606,6.827,3.468,11.011c0.719,3.487-0.349,7.438-0.107,10.983
			c0.199,2.922,1.073,5.726,1.286,8.659c0.538,7.459,0.605,14.855,0.588,22.344c-0.016,6.807,0.528,13.458,0.571,20.246
			c0.042,6.505-0.889,12.871-0.821,19.368c0.039,3.748,0.676,7.401,0.621,11.178c-0.047,3.295-0.44,6.435,0.271,9.6
			C337.305,394.684,335.331,395.656,334.271,397.55z M360.842,413.374c-2.568,0.253-5.291,0.349-7.812,0.605
			c-3.92,0.399-10.359,1.228-12.183-2.872c-0.872-1.959-2.209-9.59-0.616-10.564c0.751-0.459,3.288-0.25,4.177-0.492
			c0.318-0.088,0.638-0.201,0.956-0.325c1.641,0.047,3.291-0.021,4.809,0.018c4.174,0.108,8.541-1.041,10.502,3.822
			C361.839,406.455,361.392,410.179,360.842,413.374z M497.555,314.29c0.588,11.129-0.511,22.329-0.035,33.472
			c0.511,11.949-0.108,23.812-0.073,35.771c0.017,5.547-0.104,10.924-0.563,16.419c-0.286,3.426-0.508,7.262-0.193,10.807
			c-3.978,0.09-7.496-0.428-11.53-0.38c-6.736,0.078-13.366,0.638-20.098,0.585c-7.058-0.057-14.05-0.492-21.07-0.674
			c-14.14-0.367-28.795-0.86-42.861,0.655c-6.148,0.662-12.404,0.336-18.6,0.324c-4.882-0.009-10.747-0.935-15.703,0.232
			c0.558-5.891,0.31-12.842-4.612-15.757c0.313-1.48,0.118-2.983-0.032-4.489c0.032-0.176,0.058-0.357,0.06-0.555
			c0.151-14.424,0.415-28.966-0.877-43.308c-0.563-6.242,0.276-12.481-0.495-18.717c-0.839-6.798-0.446-13.757,0.045-20.542
			c0.408-5.625-2.522-14.824,1.729-18.906c1.048-1.007,1.961-1.936,2.591-2.927c0.319,0.155,0.668,0.276,1.066,0.325
			c23.826,2.987,47.59,0.552,71.53,0.497c9.737-0.023,19.289,0.645,29.038-0.121c10.377-0.814,20.979-0.572,31.276-2.148
			c-0.583,4.138-0.414,8.482-0.586,12.582C497.327,303.103,497.256,308.631,497.555,314.29z M501.02,278.255
			c-9.153,1.605-18.201,1.317-27.446,2.03c-4.475,0.345-8.951,0.681-13.432,0.951c-2.29,0.137-4.41-0.157-6.668-0.259
			c-2.72-0.123-5.403,0.603-8.106,0.473c-8.17-0.393-16.644-1.072-24.866-0.514c-18.117,1.229-36.125,1.644-54.195-0.621
			c-0.337-0.043-0.633-0.022-0.912,0.024c-0.016-0.036-0.027-0.068-0.043-0.104c-0.493-1.085-1.181-2.012-1.992-2.799
			c1.357-0.714,2.452-1.817,3.202-3.511c10.112,0.165,20.224,0.809,30.369,0.65c10.639-0.168,21.207-0.899,31.811-1.145
			c18.469-0.427,37.041,0.141,55.448-1.294c5.033-0.392,10.709,0.572,15.753,0.996c1.789,0.15,4.46-0.627,5.381,1.08
			C506.849,277.041,503.136,277.885,501.02,278.255z"/>
	</g>
</g>
<g>
	<g>
		<path d="M485.031,327.853c-0.095-3.66-0.364-7.342-0.15-10.864c0.241-3.958-0.084-7.793,0.067-11.769
			c0.078-2.079,0.512-4.815-1.012-6.558c-2.803-3.204-11.558-1.853-15.149-1.656c-4.701,0.258-11.509-1.674-12.141,4.604
			c-0.876,8.702-0.322,18.344,0.319,27.047c0.294,4.006-0.789,9.301,3.86,10.646c3.761,1.087,8.533,1.221,12.443,1.189
			c2.662-0.022,7.772,0.434,10.174-0.73C487.892,337.606,485.534,331.926,485.031,327.853z M460.465,303.279
			c0.695-3.461,2.544-2.08,5.693-2.155c0.859-0.021,1.711-0.074,2.561-0.135c-0.368,1.942-0.274,3.897-0.129,5.966
			c0.227,3.223,0.007,6.369,0.156,9.584c0.033,0.721,0.044,1.442,0.067,2.163c-2.826-0.063-5.601-0.354-8.438,0.255
			c0.027-2.064,0.11-4.135,0.11-6.193C460.484,309.848,459.891,306.139,460.465,303.279z M469.403,336.358
			c-2.331-0.01-5.337-0.076-6.627-0.86c-2.977-1.809-2.316-10.382-2.39-13.698c2.524,0.873,5.822,0.874,8.546,0.777
			c0.039,1.823,0.075,3.647,0.14,5.474c0.086,2.469,0.615,5.076,0.602,7.59C469.522,335.842,469.427,336.096,469.403,336.358z
			 M471.717,318.648c-0.02-0.315-0.026-0.628-0.055-0.943c-0.483-5.308,0.397-11.554-0.965-16.863
			c1.362-0.102,2.728-0.188,4.117-0.166c2.022,0.032,4.934-0.555,6.141,1.116c1.135,1.572,0.385,4.654,0.413,6.506
			c0.051,3.381-0.008,6.781-0.028,10.176C478.181,318.145,474.865,318.472,471.717,318.648z M479.879,336.003
			c-1.792,0.755-4.84,0.56-7.162,0.431c0.163-3.069-0.771-6.239-0.86-9.322c-0.045-1.557-0.024-3.102-0.025-4.646
			c3.122-0.12,6.428-0.287,9.508-0.844c0.022,3.851,0.152,7.687,0.624,11.471C481.604,334.428,481.03,335.517,479.879,336.003z"/>
	</g>
</g>
<g>
	<g>
		<path d="M442.265,327.853c-0.095-3.66-0.364-7.342-0.15-10.864c0.241-3.958-0.084-7.793,0.067-11.769
			c0.078-2.079,0.512-4.815-1.012-6.558c-2.803-3.204-11.558-1.853-15.149-1.656c-4.701,0.258-11.509-1.674-12.141,4.604
			c-0.875,8.702-0.321,18.344,0.319,27.047c0.295,4.006-0.789,9.301,3.86,10.646c3.761,1.087,8.533,1.221,12.443,1.189
			c2.662-0.022,7.772,0.434,10.174-0.73C445.126,337.606,442.768,331.926,442.265,327.853z M417.7,303.279
			c0.695-3.461,2.544-2.08,5.692-2.155c0.859-0.021,1.711-0.074,2.561-0.135c-0.368,1.942-0.274,3.897-0.128,5.966
			c0.227,3.223,0.006,6.369,0.156,9.584c0.033,0.721,0.043,1.442,0.067,2.163c-2.826-0.063-5.601-0.354-8.438,0.255
			c0.027-2.064,0.11-4.135,0.11-6.193C417.719,309.848,417.126,306.139,417.7,303.279z M426.637,336.358
			c-2.331-0.01-5.337-0.076-6.627-0.86c-2.977-1.809-2.315-10.382-2.39-13.698c2.524,0.873,5.822,0.874,8.546,0.777
			c0.039,1.823,0.075,3.647,0.139,5.474c0.087,2.469,0.615,5.076,0.602,7.59C426.756,335.842,426.661,336.096,426.637,336.358z
			 M428.951,318.648c-0.02-0.315-0.027-0.628-0.055-0.943c-0.483-5.308,0.398-11.554-0.965-16.863
			c1.363-0.102,2.728-0.188,4.117-0.166c2.022,0.032,4.934-0.555,6.141,1.116c1.136,1.572,0.386,4.654,0.414,6.506
			c0.051,3.381-0.008,6.781-0.029,10.176C435.415,318.145,432.099,318.472,428.951,318.648z M437.114,336.003
			c-1.792,0.755-4.84,0.56-7.164,0.431c0.163-3.069-0.771-6.239-0.86-9.322c-0.045-1.557-0.023-3.102-0.024-4.646
			c3.122-0.12,6.428-0.287,9.508-0.844c0.022,3.851,0.152,7.687,0.624,11.471C438.839,334.428,438.265,335.517,437.114,336.003z"/>
	</g>
</g>
<g>
	<g>
		<path d="M398.348,327.853c-0.095-3.66-0.364-7.342-0.15-10.864c0.241-3.958-0.084-7.793,0.067-11.769
			c0.078-2.079,0.512-4.815-1.012-6.558c-2.803-3.204-11.558-1.853-15.149-1.656c-4.701,0.258-11.509-1.674-12.141,4.604
			c-0.877,8.702-0.322,18.344,0.318,27.047c0.295,4.006-0.789,9.301,3.86,10.646c3.761,1.087,8.533,1.221,12.443,1.189
			c2.662-0.022,7.772,0.434,10.175-0.73C401.209,337.606,398.851,331.926,398.348,327.853z M373.782,303.279
			c0.695-3.461,2.544-2.08,5.693-2.155c0.859-0.021,1.711-0.074,2.561-0.135c-0.368,1.942-0.274,3.897-0.129,5.966
			c0.227,3.223,0.007,6.369,0.156,9.584c0.032,0.721,0.043,1.442,0.067,2.163c-2.826-0.063-5.601-0.354-8.438,0.255
			c0.027-2.064,0.11-4.135,0.11-6.193C373.801,309.848,373.208,306.139,373.782,303.279z M382.719,336.358
			c-2.331-0.01-5.337-0.076-6.627-0.86c-2.977-1.809-2.316-10.382-2.39-13.698c2.524,0.873,5.822,0.874,8.546,0.777
			c0.039,1.823,0.075,3.647,0.14,5.474c0.086,2.469,0.615,5.076,0.602,7.59C382.838,335.842,382.743,336.096,382.719,336.358z
			 M385.034,318.648c-0.02-0.315-0.027-0.628-0.055-0.943c-0.483-5.308,0.398-11.554-0.965-16.863
			c1.362-0.102,2.728-0.188,4.117-0.166c2.022,0.032,4.934-0.555,6.141,1.116c1.135,1.572,0.385,4.654,0.413,6.506
			c0.051,3.381-0.008,6.781-0.028,10.176C391.498,318.145,388.182,318.472,385.034,318.648z M393.196,336.003
			c-1.792,0.755-4.84,0.56-7.164,0.431c0.163-3.069-0.771-6.239-0.86-9.322c-0.045-1.557-0.023-3.102-0.024-4.646
			c3.122-0.12,6.428-0.287,9.508-0.844c0.022,3.851,0.152,7.687,0.624,11.471C394.921,334.428,394.347,335.517,393.196,336.003z"/>
	</g>
</g>
<g>
	<g>
		<path d="M334.033,324.62c-0.08-3.068-0.306-6.154-0.126-9.105c0.202-3.317-0.07-6.532,0.055-9.864
			c0.066-1.742,0.429-4.036-0.849-5.498c-2.349-2.685-9.688-1.553-12.698-1.387c-3.94,0.217-9.647-1.403-10.176,3.859
			c-0.732,7.293-0.266,15.375,0.27,22.669c0.247,3.358-0.662,7.797,3.235,8.923c3.152,0.911,7.152,1.024,10.429,0.996
			c2.231-0.018,6.514,0.363,8.528-0.612C336.432,332.795,334.454,328.033,334.033,324.62z M313.444,304.023
			c0.582-2.901,2.132-1.743,4.771-1.806c0.721-0.017,1.434-0.062,2.147-0.113c-0.308,1.627-0.231,3.266-0.108,5.001
			c0.19,2.701,0.006,5.338,0.13,8.033c0.029,0.603,0.037,1.207,0.058,1.813c-2.369-0.053-4.695-0.296-7.073,0.213
			c0.023-1.731,0.092-3.466,0.091-5.191C313.46,309.528,312.962,306.42,313.444,304.023z M320.935,331.748
			c-1.953-0.008-4.474-0.063-5.555-0.721c-2.495-1.516-1.941-8.702-2.003-11.48c2.116,0.731,4.88,0.732,7.164,0.651
			c0.033,1.528,0.063,3.057,0.116,4.589c0.073,2.068,0.515,4.255,0.504,6.361C321.035,331.317,320.956,331.529,320.935,331.748z
			 M322.875,316.904c-0.016-0.264-0.023-0.527-0.046-0.791c-0.405-4.449,0.333-9.685-0.809-14.134
			c1.141-0.085,2.286-0.158,3.451-0.14c1.695,0.028,4.136-0.465,5.147,0.935c0.952,1.318,0.324,3.902,0.347,5.455
			c0.043,2.834-0.007,5.683-0.024,8.53C328.293,316.483,325.513,316.759,322.875,316.904z M329.718,331.45
			c-1.501,0.633-4.057,0.469-6.004,0.362c0.136-2.572-0.647-5.23-0.722-7.814c-0.038-1.304-0.02-2.6-0.021-3.894
			c2.616-0.1,5.388-0.241,7.97-0.708c0.018,3.227,0.127,6.443,0.523,9.615C331.164,330.13,330.683,331.043,329.718,331.45z"/>
	</g>
</g>
<g>
	<g>
		<path d="M334.033,380.821c-0.08-3.068-0.306-6.154-0.126-9.105c0.202-3.317-0.07-6.532,0.055-9.865
			c0.066-1.742,0.429-4.036-0.849-5.498c-2.349-2.685-9.688-1.553-12.698-1.388c-3.94,0.217-9.647-1.403-10.176,3.859
			c-0.732,7.297-0.266,15.379,0.27,22.674c0.247,3.358-0.662,7.795,3.235,8.922c3.152,0.911,7.152,1.024,10.429,0.996
			c2.231-0.018,6.514,0.363,8.528-0.612C336.432,388.997,334.454,384.235,334.033,380.821z M313.444,360.225
			c0.582-2.901,2.132-1.743,4.771-1.806c0.721-0.017,1.434-0.062,2.147-0.113c-0.308,1.627-0.231,3.266-0.108,5.001
			c0.19,2.701,0.006,5.338,0.13,8.033c0.029,0.603,0.037,1.208,0.058,1.813c-2.369-0.053-4.695-0.296-7.073,0.213
			c0.023-1.729,0.092-3.466,0.091-5.191C313.46,365.73,312.962,362.622,313.444,360.225z M320.935,387.95
			c-1.953-0.008-4.474-0.063-5.555-0.721c-2.495-1.516-1.941-8.702-2.003-11.48c2.116,0.731,4.88,0.732,7.164,0.651
			c0.033,1.528,0.063,3.057,0.116,4.589c0.073,2.068,0.515,4.255,0.504,6.361C321.035,387.519,320.956,387.731,320.935,387.95z
			 M322.875,373.106c-0.016-0.264-0.023-0.527-0.046-0.791c-0.405-4.449,0.333-9.685-0.809-14.134
			c1.141-0.085,2.286-0.158,3.451-0.138c1.695,0.028,4.136-0.465,5.147,0.935c0.952,1.317,0.324,3.901,0.347,5.454
			c0.043,2.834-0.007,5.683-0.024,8.53C328.293,372.685,325.513,372.961,322.875,373.106z M329.718,387.653
			c-1.501,0.633-4.057,0.469-6.004,0.362c0.136-2.573-0.647-5.23-0.722-7.814c-0.038-1.304-0.02-2.6-0.021-3.894
			c2.616-0.1,5.388-0.241,7.97-0.708c0.018,3.227,0.127,6.443,0.523,9.615C331.164,386.332,330.683,387.245,329.718,387.653z"/>
	</g>
</g>
<g>
	<g>
		<path d="M485.031,385.887c-0.095-3.66-0.364-7.341-0.15-10.864c0.241-3.958-0.084-7.793,0.067-11.769
			c0.078-2.079,0.512-4.815-1.012-6.558c-2.803-3.204-11.558-1.853-15.149-1.656c-4.701,0.258-11.509-1.674-12.141,4.604
			c-0.876,8.703-0.322,18.344,0.319,27.048c0.294,4.005-0.789,9.301,3.86,10.646c3.761,1.087,8.533,1.221,12.443,1.189
			c2.662-0.022,7.772,0.434,10.174-0.731C487.892,395.641,485.534,389.96,485.031,385.887z M460.465,361.313
			c0.695-3.461,2.544-2.08,5.693-2.155c0.859-0.021,1.711-0.074,2.561-0.135c-0.368,1.942-0.274,3.897-0.129,5.966
			c0.227,3.223,0.007,6.369,0.156,9.584c0.033,0.721,0.044,1.442,0.067,2.163c-2.826-0.063-5.601-0.354-8.438,0.255
			c0.027-2.064,0.11-4.135,0.11-6.193C460.484,367.882,459.891,364.173,460.465,361.313z M469.403,394.393
			c-2.331-0.01-5.337-0.076-6.627-0.86c-2.977-1.81-2.316-10.383-2.39-13.698c2.524,0.873,5.822,0.874,8.546,0.777
			c0.039,1.823,0.075,3.647,0.14,5.474c0.086,2.469,0.615,5.076,0.602,7.59C469.522,393.878,469.427,394.131,469.403,394.393z
			 M471.717,376.684c-0.02-0.315-0.026-0.628-0.055-0.943c-0.483-5.308,0.397-11.555-0.965-16.863
			c1.362-0.102,2.728-0.188,4.117-0.166c2.022,0.032,4.934-0.555,6.141,1.116c1.135,1.569,0.385,4.651,0.413,6.505
			c0.051,3.381-0.008,6.781-0.028,10.178C478.181,376.181,474.865,376.509,471.717,376.684z M479.879,394.037
			c-1.792,0.755-4.84,0.56-7.162,0.431c0.163-3.069-0.771-6.239-0.86-9.323c-0.045-1.554-0.024-3.1-0.025-4.644
			c3.122-0.12,6.428-0.287,9.508-0.844c0.022,3.851,0.152,7.687,0.624,11.471C481.604,392.462,481.03,393.551,479.879,394.037z"/>
	</g>
</g>
<g>
	<g>
		<path d="M442.265,385.887c-0.095-3.66-0.364-7.341-0.15-10.864c0.241-3.958-0.084-7.793,0.067-11.769
			c0.078-2.079,0.512-4.815-1.012-6.558c-2.803-3.204-11.558-1.853-15.149-1.656c-4.701,0.258-11.509-1.674-12.141,4.604
			c-0.875,8.703-0.321,18.344,0.319,27.048c0.295,4.005-0.789,9.301,3.86,10.646c3.761,1.087,8.533,1.221,12.443,1.189
			c2.662-0.022,7.772,0.434,10.174-0.731C445.126,395.641,442.768,389.96,442.265,385.887z M417.7,361.313
			c0.695-3.461,2.544-2.08,5.692-2.155c0.859-0.021,1.711-0.074,2.561-0.135c-0.368,1.942-0.274,3.897-0.128,5.966
			c0.227,3.223,0.006,6.369,0.156,9.584c0.033,0.721,0.043,1.442,0.067,2.163c-2.826-0.063-5.601-0.354-8.438,0.255
			c0.027-2.064,0.11-4.135,0.11-6.193C417.719,367.882,417.126,364.173,417.7,361.313z M426.637,394.393
			c-2.331-0.01-5.337-0.076-6.627-0.86c-2.977-1.81-2.315-10.383-2.39-13.698c2.524,0.873,5.822,0.874,8.546,0.777
			c0.039,1.823,0.075,3.647,0.139,5.474c0.087,2.469,0.615,5.076,0.602,7.59C426.756,393.878,426.661,394.131,426.637,394.393z
			 M428.951,376.684c-0.02-0.315-0.027-0.628-0.055-0.943c-0.483-5.308,0.398-11.555-0.965-16.863
			c1.363-0.102,2.728-0.188,4.117-0.166c2.022,0.032,4.934-0.555,6.141,1.116c1.136,1.569,0.386,4.651,0.414,6.505
			c0.051,3.381-0.008,6.781-0.029,10.178C435.415,376.181,432.099,376.509,428.951,376.684z M437.114,394.037
			c-1.792,0.755-4.84,0.56-7.164,0.431c0.163-3.069-0.771-6.239-0.86-9.323c-0.045-1.554-0.023-3.1-0.024-4.644
			c3.122-0.12,6.428-0.287,9.508-0.844c0.022,3.851,0.152,7.687,0.624,11.471C438.839,392.462,438.265,393.551,437.114,394.037z"/>
	</g>
</g>
<g>
	<g>
		<path d="M398.348,385.887c-0.095-3.66-0.364-7.341-0.15-10.864c0.241-3.958-0.084-7.793,0.067-11.769
			c0.078-2.079,0.512-4.815-1.012-6.558c-2.803-3.204-11.558-1.853-15.149-1.656c-4.701,0.258-11.509-1.674-12.141,4.604
			c-0.877,8.703-0.322,18.344,0.318,27.048c0.295,4.005-0.789,9.301,3.86,10.646c3.761,1.087,8.533,1.221,12.443,1.189
			c2.662-0.022,7.772,0.434,10.175-0.731C401.209,395.641,398.851,389.96,398.348,385.887z M373.782,361.313
			c0.695-3.461,2.544-2.08,5.693-2.155c0.859-0.021,1.711-0.074,2.561-0.135c-0.368,1.942-0.274,3.897-0.129,5.966
			c0.227,3.223,0.007,6.369,0.156,9.584c0.032,0.721,0.043,1.442,0.067,2.163c-2.826-0.063-5.601-0.354-8.438,0.255
			c0.027-2.064,0.11-4.135,0.11-6.193C373.801,367.882,373.208,364.173,373.782,361.313z M382.719,394.393
			c-2.331-0.01-5.337-0.076-6.627-0.86c-2.977-1.81-2.316-10.383-2.39-13.698c2.524,0.873,5.822,0.874,8.546,0.777
			c0.039,1.823,0.075,3.647,0.14,5.474c0.086,2.469,0.615,5.076,0.602,7.59C382.838,393.878,382.743,394.131,382.719,394.393z
			 M385.034,376.684c-0.02-0.315-0.027-0.628-0.055-0.943c-0.483-5.308,0.398-11.555-0.965-16.863
			c1.362-0.102,2.728-0.188,4.117-0.166c2.022,0.032,4.934-0.555,6.141,1.116c1.135,1.569,0.385,4.651,0.413,6.505
			c0.051,3.381-0.008,6.781-0.028,10.178C391.498,376.181,388.182,376.509,385.034,376.684z M393.196,394.037
			c-1.792,0.755-4.84,0.56-7.164,0.431c0.163-3.069-0.771-6.239-0.86-9.323c-0.045-1.554-0.023-3.1-0.024-4.644
			c3.122-0.12,6.428-0.287,9.508-0.844c0.022,3.851,0.152,7.687,0.624,11.471C394.921,392.462,394.347,393.551,393.196,394.037z"/>
	</g>
</g>
<g>
	<g>
		<path d="M361.702,228.989c-2.274-3.335-6.943-4.531-10.3-6.444c-3.637-2.072-7.341-3.64-11.065-5.555
			c-8.697-4.474-17.767-8.12-26.593-12.345c-8.811-4.218-17.226-9.142-26.163-13.241c-4.045-1.855-8.343-3.516-12.586-5.284
			c-0.611-0.575-1.236-1.129-1.914-1.597c-2.051-1.415-4.665-2.451-6.89-3.612c-3.722-1.943-6.451-3.66-10.831-3.066
			c-4.709,0.638-8.07,3.619-12.297,5.436c-4.17,1.793-7.956,2.833-11.442,5.855c-0.728,0.63,0.201,1.56,0.95,1.231
			c4.119-1.811,8.541-3.013,12.726-4.675c3.829-1.522,7.604-4.18,11.898-4.139c4.675,0.043,9.435,4.004,13.638,5.89
			c1.686,0.756,3.376,1.506,5.122,2.071c3.013,1.539,6.067,3.009,9.151,4.449c7.975,3.724,15.5,8.322,23.344,12.172
			c7.774,3.816,15.637,7.428,23.529,11.013c4.613,2.096,9.364,4.399,13.852,6.769c1.765,0.933,3.458,2.171,5.205,3.165
			c0.862,0.491,2.773,1.32,4.403,2.195c-2.371,0.12-5.386-0.176-6.501-0.172c-3.223,0.014-6.446,0.02-9.669,0.029
			c-6.557,0.018-13.088-0.309-19.658-0.287c-6.787,0.023-13.505,0.115-20.251,0.395c-1.638,0.068-3.318,0.057-4.995,0.09
			c-1.553-0.144-3.112-0.217-4.67-0.3c-1.266-0.068-2.592-0.341-3.841-0.122c-2.751,0.483-5.839,0.071-8.627,0.016
			c-7.077-0.141-14.085,0.078-21.146,0.332c-6.847,0.246-13.731-0.013-20.584,0.047c-6.445,0.057-13.057,0.707-19.466,0.315
			c-1.386-0.085-1.56,1.953-0.317,2.344c5.493,1.732,10.719,1.731,16.459,1.845c7.626,0.151,15.289,0.208,22.916,0.095
			c6.999-0.104,14.024-0.255,21.032-0.407c3.346-0.073,7.232,0.564,10.58-0.28c5.031,1.005,10.746,0.172,15.702-0.265
			c7.655-0.676,15.494-0.186,23.183-0.143c7.469,0.04,14.926,0.447,22.412,0.48c3.808,0.016,10.377,1.233,13.373-1.719
			C362.008,230.938,362.224,229.757,361.702,228.989z"/>
	</g>
</g>
<g>
	<g>
		<path d="M269.241,314.306c-0.199-5.617,0.472-11.344-0.039-16.934c-0.076-0.834-0.59-1.875-1.538-2.02
			c-3.884-0.593-7.821-1.289-11.728-1.702c-3.369-0.355-8.705-1.412-11.81,0.291c-2.716,1.49-2.35,4.786-2.374,7.48
			c-0.008,0.864,0.036,1.754,0.098,2.655c-0.076,1.641-0.098,3.268-0.131,4.805c-0.12,5.458-0.48,10.904-0.519,16.395
			c-0.02,2.716-1.146,8.386,1.688,10.304c2.521,1.705,7.888,1.787,10.876,1.916c2.547,0.11,5.043-0.317,7.578-0.44
			c1.757-0.085,3.767,0.247,5.342-0.73c3.168-1.965,2.591-6.669,2.786-9.787C269.725,322.39,269.388,318.438,269.241,314.306z
			 M255.868,297.553c3.462,0.414,7.01,1.158,9.27,1.588c0.304,4.7,0.168,9.478,0.203,14.223c-3.133-0.265-6.142-0.311-9.302-0.053
			c-0.066-2.951,0.318-5.84,0.287-8.787C256.305,302.58,255.687,299.774,255.868,297.553z M252.448,333.109
			c-0.061-0.006-0.131-0.013-0.19-0.02c-1.326-0.151-4.197-0.427-5.283-0.942c-1.919-0.91-1.099,0.178-1.588-2.656
			c-0.641-3.715-0.201-8.314-0.006-12.172c2.25,0.774,4.78,0.706,7.197,0.457C252.352,322.903,252.115,328.11,252.448,333.109z
			 M253.446,301.527c-0.119,3.346-0.557,6.678-0.636,10.014c-0.017,0.729-0.043,1.463-0.068,2.199
			c-1.156,0.208-2.3,0.393-3.51,0.285c-1.359-0.122-2.456-0.233-3.631-0.292c0.374-4.795,1.013-9.963,0.216-14.707
			c0-0.002,0-0.005,0.001-0.006c1.024-1.673,4.278-1.942,7.963-1.666C253.429,298.673,253.498,300.084,253.446,301.527z
			 M265.045,329.639c-1.251,3.17-5.687,3.757-9.344,3.687c0.397-5.303,0.47-10.643,0.406-15.971
			c2.138-0.253,4.365-0.447,6.465-0.317c1.325,0.082,2.125,0.256,2.851,0.198c0.024,0.664,0.051,1.328,0.09,1.989
			C265.679,321.97,266.083,327.007,265.045,329.639z"/>
	</g>
</g>
<g>
</g>
<g>
</g>
<g>
</g>
<g>
</g>
<g>
</g>
<g>
</g>
<g>
</g>
<g>
</g>
<g>
</g>
<g>
</g>
<g>
</g>
<g>
</g>
<g>
</g>
<g>
</g>
<g>
</g>
</svg>
