<?xml version="1.0" encoding="iso-8859-1"?>
<!-- Generator: Adobe Illustrator 21.0.0, SVG Export Plug-In . SVG Version: 6.00 Build 0)  -->
<svg version="1.1" id="Layer_1_1_" xmlns="http://www.w3.org/2000/svg" xmlns:xlink="http://www.w3.org/1999/xlink" x="0px" y="0px"
	 viewBox="0 0 459.58 459.58" style="enable-background:new 0 0 459.58 459.58;" xml:space="preserve">
<circle cx="227.612" cy="124.462" r="17.542"/>
<path d="M429.343,238.484c4.85,0,8.771-3.921,8.771-8.771s-3.921-8.771-8.771-8.771H394.26V194.63h35.084
	c4.85,0,8.771-3.921,8.771-8.771s-3.921-8.771-8.771-8.771H394.26v-8.771c0-1.14-0.228-2.28-0.675-3.351
	c-0.447-1.079-1.096-2.052-1.903-2.868l-43.846-43.846L233.813,4.23c-3.429-3.429-8.973-3.429-12.402,0L107.389,118.252
	l-43.846,43.846c-0.816,0.807-1.456,1.78-1.903,2.859c-0.447,1.079-0.675,2.219-0.675,3.359v8.771H25.88
	c-4.85,0-8.771,3.921-8.771,8.771s3.921,8.771,8.771,8.771h35.084v26.313H25.88c-4.85,0-8.771,3.921-8.771,8.771
	s3.921,8.771,8.771,8.771h35.084v26.313H25.88c-4.85,0-8.771,3.921-8.771,8.771c0,4.85,3.921,8.771,8.771,8.771h35.084v8.771
	c0,2.333,0.921,4.561,2.57,6.201l157.877,157.877c1.71,1.71,3.956,2.57,6.201,2.57c2.245,0,4.491-0.86,6.201-2.57L391.69,297.311
	c1.649-1.64,2.57-3.868,2.57-6.201v-8.771h35.084c4.85,0,8.771-3.921,8.771-8.771c0-4.85-3.921-8.771-8.771-8.771H394.26v-26.313
	H429.343z M227.612,313.792l-31.453-31.453l31.453-31.453l31.453,31.453L227.612,313.792z M227.612,177.088
	c22.471,0,43.293-5.236,61.133-12.139l-61.133,61.133l-61.133-61.133C184.318,171.852,205.141,177.088,227.612,177.088z
	 M128.079,124.453c16.674-11.788,55.204-35.075,99.533-35.075c44.188,0,82.824,23.313,99.533,35.093
	c-16.674,11.788-55.204,35.075-99.533,35.075C183.424,159.546,144.788,136.233,128.079,124.453z M271.466,269.937l-31.453-31.453
	l101.62-101.62l31.453,31.453L271.466,269.937z M227.612,22.842l61.133,61.133c-17.84-6.903-38.662-12.139-61.133-12.139
	s-43.293,5.236-61.133,12.139L227.612,22.842z M113.59,136.864l101.62,101.62l-31.453,31.453l-101.62-101.62L113.59,136.864z
	 M78.506,189.49l99.05,99.05l37.654,37.654l-48.994,48.994l-87.709-87.709V189.49z M227.612,436.585l-48.994-48.994l48.994-48.994
	l48.994,48.994L227.612,436.585z M376.718,287.479l-87.709,87.709l-48.994-48.994l37.654-37.654l99.05-99.05V287.479z"/>
</svg>
