<?xml version="1.0" encoding="utf-8"?>
<!-- Generator: Adobe Illustrator 21.0.0, SVG Export Plug-In . SVG Version: 6.00 Build 0)  -->
<svg version="1.1" id="Capa_1" xmlns="http://www.w3.org/2000/svg" xmlns:xlink="http://www.w3.org/1999/xlink" x="0px" y="0px"
	 viewBox="0 0 950 950" style="enable-background:new 0 0 950 950;" xml:space="preserve">
<g>
	<path d="M901.3,449.7c-16.7-43.5-35-91.5-64.4-128.3c-22.2-27.8-63.9-51.9-100.7-46.3c-0.5,0.1-3.6,0.7-8.9,1.9
		c1.3,9.2,2,18.6,2,28c0,26.2-5.2,51.7-15.3,75.8c-9.8,23.2-23.8,44-41.7,61.8c-17.9,17.9-38.7,31.9-61.8,41.7
		c-24,10.2-49.5,15.3-75.8,15.3s-51.7-5.2-75.8-15.3c-23.2-9.8-44-23.8-61.8-41.7c-17.9-17.9-31.9-38.7-41.7-61.8
		c-2.4-5.7-4.5-11.5-6.4-17.3c-152.9,35.1-294.7,67.7-303,69.6c-7.3,1.7-16.2,2.7-22.7,6.2c-5.5,2.9-9.5,7.6-9.5,16v381.8
		c0,15,15.9,28.9,35.5,30.9l141.9,14.8l638.3,66.4c58.7,6.1,106.4-25.5,106.4-70.7c0-28.5-19-55.5-47.7-73.2
		c28.8-11.6,47.7-34.7,47.7-63.2c0-28.5-19-55.5-47.7-73.1C972.9,634.5,925,511.4,901.3,449.7z M714.4,875.2L88.7,810.1v-62.5
		l625.7,65.1c58.7,6.1,106.3,25.1,106.3,42.3C820.7,872.2,773.1,881.3,714.4,875.2z M714.4,750.6L88.7,685.4v-62.6L714.4,688
		c58.7,6.1,106.3,25.1,106.3,42.3C820.7,747.6,773.1,756.7,714.4,750.6z M714.4,625.9L88.7,560.8v-62.6l625.7,65.1
		c58.7,6.1,106.3,25.1,106.3,42.4C820.7,623,773.1,632,714.4,625.9z"/>
	<path d="M400,305.1c0,15.8,2.7,30.9,7.7,45c18.5,52.2,68.3,89.7,126.9,89.7c74.4,0,134.6-60.3,134.6-134.6c0-5-0.3-9.9-0.8-14.7
		C661.1,223,604,170.5,534.6,170.5c-7.1,0-14,0.6-20.8,1.6c-4.6-9.4-9.7-18.6-15.2-27.6c-5.5-9.1-11.5-17.9-17.7-26.5
		c-7.6-10.5-15.7-20.7-23.9-30.4c-15.3-18.1-32-35.3-50.3-50.5c-16-13.3-33-26.1-52.2-34.6c-10.8-4.8-23.2-3.3-29.7,7.8
		c-5.5,9.3-3,24.9,7.8,29.7c9,4,17.5,8.9,25.6,14.4c2.3,1.6,4.7,3.2,7,4.9c0.8,0.6,3.8,2.9,4.6,3.5c3.5,2.7,6.9,5.5,10.3,8.4
		c8.8,7.6,17.3,15.7,25.5,24.1c8.5,8.8,16.8,18,24.5,27.5c2.2,2.7,4.4,5.4,6.6,8.2c0,0,0,0,0,0c0.1,0.1,0.2,0.2,0.3,0.3
		c0.9,1.2,1.8,2.4,2.7,3.6c0,0,0.1,0.1,0.1,0.1c3.5,4.8,7,9.6,10.3,14.5c2.3,3.4,4.6,6.9,6.8,10.4c4.4,6.8,8.5,13.8,12.4,20.9
		c0.9,1.7,1.8,3.4,2.7,5.1C429.1,208.5,400,253.4,400,305.1z"/>
</g>
</svg>
