<?xml version="1.0" encoding="iso-8859-1"?>
<!-- Generator: Adobe Illustrator 17.1.0, SVG Export Plug-In . SVG Version: 6.00 Build 0)  -->
<!DOCTYPE svg PUBLIC "-//W3C//DTD SVG 1.1//EN" "http://www.w3.org/Graphics/SVG/1.1/DTD/svg11.dtd">
<svg version="1.1" id="Capa_1" xmlns="http://www.w3.org/2000/svg" xmlns:xlink="http://www.w3.org/1999/xlink" x="0px" y="0px"
	 viewBox="0 0 202.432 202.432" style="enable-background:new 0 0 202.432 202.432;" xml:space="preserve">
<path d="M101.216,202.432c-10.561,0-20.981-1.626-30.973-4.834c-0.002,0-0.004-0.001-0.006-0.002
	c-42.011-13.494-70.237-52.225-70.237-96.379c0-27.302,10.707-52.897,30.148-72.07C49.587,9.979,75.305-0.391,102.659,0.011
	c54.873,0.765,99.631,46.045,99.772,100.939c0.104,40.743-24.046,77.404-61.521,93.398c-0.002,0-0.003,0.001-0.004,0.001
	C128.337,199.713,114.984,202.432,101.216,202.432z M72.74,194.189c9.206,2.816,18.78,4.244,28.477,4.244
	c12.813,0,25.25-2.451,36.989-7.287l0.568-8.671c0.042-0.875,1.28-27.127,1.443-34.268c0.164-7.222,0.001-38.725-0.001-39.042
	c-0.006-1.105,0.885-2.005,1.989-2.011c0.004,0,0.008,0,0.011,0c1.1,0,1.994,0.889,2,1.989c0.002,0.318,0.165,31.876-0.001,39.154
	c-0.126,5.532-0.89,22.381-1.254,30.254c0.605-0.105,1.286-0.199,2.016-0.26c1.619-0.135,8.391-3.998,8.547-8.056
	c0.008-0.203,0.011-0.414,0.011-0.635c0-4.693-1.728-13.426-3.553-22.648l-0.696-3.527c-2.227-11.339-2.674-16.077-2.886-24.554
	c-0.161-6.46-1.802-13.887-2.382-16.33c-1.672-0.906-6.117-3.208-12.425-5.669c-4.227-1.65-8.021-4.067-10.823-6.134
	c-0.063,0.177-0.15,0.347-0.263,0.504c-0.376,0.522-0.98,0.832-1.624,0.832h-2.086l1.087,0.852c0.39,0.305,0.652,0.744,0.737,1.231
	c0.05,0.29,1.251,7.269,2.918,23.028c0.506,4.79,0.684,10.3,0.684,15.673c0,9.869-0.6,19.278-0.861,22.915
	c-0.137,1.906-1.619,3.423-3.526,3.604c-1.894,0.175-3.646-1.025-4.141-2.867c-1.945-7.226-8.728-31.842-14.323-45.212
	c-5.198-12.417-13.074-24.603-15.936-28.863l-6.629,4.309l-0.081,4.582l0.404,10.913c0.002,0.056,0.003,0.112,0.001,0.169
	c-0.01,0.25-0.942,25.188-2.93,41.418c-1.824,14.895-4.158,33.48-4.557,36.645c0.421,1.23,1.558,4.764,2.563,9.798
	C72.422,191.338,72.6,192.652,72.74,194.189z M101.205,4.001c-25.721,0-49.908,9.909-68.247,27.994
	C14.285,50.41,4.001,74.994,4.001,101.217c0,41.39,25.817,77.816,64.567,91.592c-0.085-0.655-0.179-1.24-0.281-1.753
	c-0.618-3.088-1.292-5.599-1.794-7.289c-2.241,1.166-5.78,2.325-9.429,0.806c-5.201-2.167-14.865-11.558-16.987-17.45
	c-0.377-1.047-0.542-2.486-0.541-4.276c0.001-4.3,0.956-10.629,2.222-18.429c0.683-4.21,1.328-8.187,1.462-10.45
	c0.398-6.782,0.403-35.126,0.403-35.412c0-0.822,0.503-1.561,1.269-1.861l9.494-3.729l1.059-7.643l-2.871-12.98
	c-0.031-0.143-0.047-0.288-0.047-0.433c0-0.383,0.11-0.762,0.323-1.089l3.658-5.628l0.14-6.452c0.017-0.742,0.442-1.414,1.105-1.746
	l3.475-1.737v-7.312c0-0.676,0.342-1.306,0.907-1.675l2.104-1.372c-1.388-0.954-2.3-2.552-2.3-4.359V17.684c0-1.104,0.896-2,2-2
	h6.92c1.104,0,2,0.896,2,2v22.855c0,1.936-1.046,3.631-2.602,4.552l1.905,0.889c0.704,0.329,1.154,1.036,1.154,1.813v13.882
	c2.201,0.614,4.811,2.224,5.32,5.668c0.168,1.133,0.233,2.107,0.233,2.938c0,1.256-0.151,2.185-0.329,2.842
	c0.654,1.273,1.368,2.989,1.368,4.419c0,0.262-0.023,0.515-0.077,0.754c-0.098,0.442-0.378,1.249-0.735,2.191l3.357-2.182
	l2.553-4.908l0.437-4.749c-0.715-1.213-2.184-3.947-2.524-6.468c-0.182-1.347-0.266-2.39-0.303-3.138
	c-1.816-1.012-3.928-3.176-3.989-6.942l-0.013-0.794c-0.018-0.985-0.031-1.839-0.031-2.584c-0.001-2.726,0.192-4.017,1.174-5.097
	c0.326-0.358,0.693-0.63,1.066-0.838c-0.596-1.999-1.348-5.121-1.348-8.146c-0.001-1.765,0.255-3.498,0.947-4.954
	c1.969-4.141,6.567-13.811,21.388-13.811c0.065,0,0.131,0,0.197,0c12.919,0.074,17.125,4.738,18.378,8.638
	c0.331,1.031,0.448,1.878,0.448,2.559c0,0.139-0.005,0.271-0.014,0.396c1.043,1.148,2.684,3.311,3.073,5.908
	c0.053,0.353,0.077,0.736,0.077,1.141c0,2.65-1.022,6.229-1.643,8.155c1.026,1.074,2.32,2.956,2.322,5.624
	c0,0.332-0.02,0.676-0.063,1.032c-0.599,4.988-1.735,8.143-3.38,9.375c-0.546,0.409-1.06,0.721-1.496,0.953
	c-0.175,2.225-0.685,6.907-2.006,9.802c-1.316,2.885-3.843,4.635-5.356,5.472l-0.076,2.23l1.837-0.875
	c0.523-0.248,1.124-0.258,1.654-0.03c0.529,0.229,0.935,0.676,1.11,1.226l2.131,6.651c1.458,1.33,7.234,6.357,14.042,9.013
	c8.391,3.275,13.495,6.217,13.709,6.341c0.463,0.269,0.799,0.712,0.933,1.23c0.103,0.396,2.502,9.78,2.708,18.055
	c0.206,8.223,0.642,12.828,2.813,23.883l0.694,3.521c1.941,9.809,3.63,18.346,3.629,23.441c0,0.267-0.005,0.524-0.015,0.772
	c-0.254,6.621-9.179,11.635-12.211,11.888c-0.989,0.083-1.872,0.24-2.539,0.387l-0.003,0.042c0,0.009-0.001,0.019-0.001,0.028
	l-0.433,6.599c34.285-16,56.195-50.332,56.098-88.372c-0.136-52.724-43.124-96.215-95.829-96.949
	C102.136,4.004,101.671,4.001,101.205,4.001z M43.527,162.97c0,1.216,0.094,2.186,0.313,2.797
	c1.562,4.336,10.253,13.234,14.763,15.113c2.835,1.182,5.864-0.465,7.123-1.298c0.513-4.079,2.746-21.876,4.505-36.24
	c1.377-11.243,2.244-26.756,2.644-35.135c-1.574,1.147-3.645,2.032-6.29,2.032c-6.855,0-12.767-5.833-13.015-6.081
	c-0.377-0.377-0.585-0.886-0.586-1.411c0-0.097,0.007-0.195,0.021-0.292l0.722-4.933l-6.105,2.398
	c-0.005,5.835-0.05,28.172-0.41,34.284c-0.145,2.466-0.775,6.354-1.506,10.855C44.798,150.648,43.527,158.486,43.527,162.97z
	 M86.316,79.549c2.499,3.663,11.05,16.6,16.745,30.207c5.559,13.279,12.214,37.27,14.351,45.175
	c0.275-3.937,0.814-12.829,0.813-22.087c0-5.239-0.173-10.595-0.664-15.236c-1.348-12.75-2.409-19.818-2.758-22.014l-4.491-3.519
	h-2.462l-6.644,4.946c-0.524,0.391-1.207,0.5-1.826,0.293c-0.62-0.207-1.101-0.703-1.286-1.33l-4.238-14.325l-6.209-4.67
	L86.316,79.549z M57.118,101.978c1.562,1.334,5.445,4.261,9.467,4.261c3.944,0,5.965-3.234,6.531-4.318l-0.25-6.75
	c-1.801,0.986-4.115,1.721-6.354,0.905c-2.418-0.879-5.711-3.375-7.813-5.098l-0.512,3.697c-0.002,0.008-0.003,0.017-0.004,0.025
	L57.118,101.978z M59.848,86.714c1.847,1.6,5.797,4.789,8.03,5.602c1.377,0.5,3.593-0.849,4.862-1.883l0.086-4.8
	c0-0.078,0.006-0.156,0.016-0.233c0.025-0.205,0.081-0.4,0.163-0.58c1.311-3.059,2.758-6.649,2.923-7.391
	c-0.002-0.39-0.633-1.965-1.311-3.153c-0.203-0.355-0.318-0.708-0.318-1.055c0-0.315,0.096-0.625,0.308-0.923
	c0.063-0.173,0.261-0.809,0.261-2.05c0-0.617-0.049-1.385-0.188-2.319c-0.349-2.355-3.126-2.554-3.442-2.568
	c-1.066-0.05-1.921-0.931-1.921-1.999V49.067l-2.418-1.128l-1.672,1.091v7.464c0,0.758-0.428,1.45-1.105,1.789l-3.501,1.75
	l-0.126,5.815c-0.009,0.372-0.12,0.734-0.323,1.046l-3.512,5.402l2.755,12.458c0.009,0.036,0.018,0.071,0.024,0.107L59.848,86.714z
	 M98.347,82.739l2.77,9.362l4.876-3.63c0.345-0.257,0.764-0.396,1.194-0.396h8.916l-0.736-2.194c-0.001,0-0.001,0-0.001,0
	l-0.001-0.003v0c0-0.002-0.001-0.004-0.002-0.006l0,0c-0.001-0.005-0.003-0.01-0.005-0.015c0-0.001-0.001-0.003-0.001-0.004v0
	l-1.592-4.969l-2.722,1.296c-0.044,0.021-0.09,0.042-0.136,0.06c-0.002,0.001-0.004,0.001-0.006,0.002
	c-0.003,0-0.006,0.002-0.006,0.002c-0.005,0.002-0.011,0.004-0.016,0.006l-3.11,1.202c-0.292,0.112-0.61,0.156-0.916,0.125
	L98.347,82.739z M96.34,78.522l10.432,1.025l1.438-0.555l0.184-5.395c0.027-0.798,0.526-1.503,1.269-1.794
	c0.024-0.01,3.172-1.302,4.406-4.006c1.179-2.583,1.648-7.779,1.729-9.563c0.038-0.844,0.603-1.573,1.41-1.821l0,0
	c-0.002,0,0.716-0.245,1.601-0.909c0.286-0.254,1.256-2.041,1.81-6.652c0.021-0.176,0.03-0.347,0.031-0.512
	c0.001-2.182-1.712-3.361-1.73-3.373c-0.581-0.377-0.911-1.016-0.91-1.679c0-0.226,0.038-0.454,0.118-0.676
	c0.766-2.127,1.852-5.941,1.852-8.029c0-0.226-0.013-0.432-0.039-0.613c-0.284-1.893-2.002-3.803-2.641-4.38
	c-0.434-0.392-0.662-0.939-0.662-1.492c0-0.285,0.06-0.571,0.184-0.838c0.005-0.036,0.012-0.1,0.012-0.196
	c0-0.238-0.042-0.668-0.254-1.328c-1.537-4.785-8.784-5.829-14.593-5.862c-0.059,0-0.116,0-0.175,0
	c-12.292,0-15.855,7.494-17.773,11.528c-0.402,0.846-0.561,1.945-0.562,3.143c-0.001,3.294,1.19,7.331,1.772,8.879
	c0.086,0.228,0.128,0.466,0.128,0.703c0,0.402-0.121,0.8-0.355,1.139c-0.374,0.54-0.988,0.862-1.645,0.862
	c-0.217,0.007-0.57,0.104-0.661,0.188c-0.104,0.225-0.135,1.025-0.135,2.133c0,0.802,0.017,1.765,0.034,2.786l0.014,0.796
	c0.047,2.899,2.083,3.632,2.491,3.75c0.86,0.249,1.477,1.045,1.478,1.933c0,0.036-0.001,0.072-0.003,0.109
	c0,0-0.003,0.073-0.003,0.218c0,0.463,0.031,1.662,0.294,3.601c0.264,1.955,1.745,4.592,2.293,5.443
	c0.209,0.324,0.319,0.701,0.319,1.084c0,0.061-0.003,0.122-0.009,0.183l-0.432,4.689L96.34,78.522z M65.939,19.684v20.855
	c0,0.709,0.576,1.286,1.285,1.286h0.349c0.709,0,1.286-0.577,1.286-1.286V19.684H65.939z M54.882,137.18
	c-0.451,0-0.905-0.152-1.279-0.463l-1-0.833c-0.849-0.707-0.963-1.968-0.257-2.817c0.707-0.848,1.969-0.964,2.817-0.256l1,0.833
	c0.849,0.707,0.964,1.968,0.257,2.817C56.025,136.935,55.456,137.18,54.882,137.18z M54.882,126.882
	c-0.451,0-0.905-0.152-1.279-0.464l-1-0.833c-0.849-0.707-0.963-1.968-0.256-2.817c0.706-0.847,1.968-0.963,2.816-0.255l1,0.833
	c0.849,0.707,0.963,1.968,0.256,2.816C56.024,126.637,55.456,126.882,54.882,126.882z M54.882,116.585
	c-0.451,0-0.905-0.152-1.279-0.463l-1-0.833c-0.849-0.707-0.963-1.968-0.257-2.817c0.707-0.848,1.969-0.963,2.817-0.256l1,0.833
	c0.849,0.707,0.964,1.968,0.257,2.817C56.025,116.339,55.456,116.585,54.882,116.585z"/>
<g>
</g>
<g>
</g>
<g>
</g>
<g>
</g>
<g>
</g>
<g>
</g>
<g>
</g>
<g>
</g>
<g>
</g>
<g>
</g>
<g>
</g>
<g>
</g>
<g>
</g>
<g>
</g>
<g>
</g>
</svg>
