<?xml version="1.0" encoding="utf-8"?>
<!-- Generator: Adobe Illustrator 21.0.0, SVG Export Plug-In . SVG Version: 6.00 Build 0)  -->
<svg version="1.1" id="Capa_1" xmlns="http://www.w3.org/2000/svg" xmlns:xlink="http://www.w3.org/1999/xlink" x="0px" y="0px"
	 viewBox="0 0 192.4 192.4" style="enable-background:new 0 0 192.4 192.4;" xml:space="preserve">
<style type="text/css">
	.st0{fill:none;stroke:#000000;stroke-width:4;stroke-miterlimit:10;}
</style>
<g>
	<g>
		<path class="st0" d="M117.2,42.2c8.2,0,14.9-6.6,14.9-14.7c0-8.1-6.7-14.7-14.9-14.7c-8.3,0-14.9,6.6-14.9,14.7
			C102.2,35.6,108.9,42.2,117.2,42.2z"/>
		<path class="st0" d="M184.5,133.2c-1.6-3-5.4-4.2-8.4-2.5L155.1,142l0-6.5l21.9-12c0.9-0.5-0.9,0.4-1.8,0.9l-20,11v-6.7l21.9-12
			c0.9-0.5-0.9,0.5-1.8,1l-20,11V122l21.9-12c0.9-0.5-0.9,0.5-1.8,1l-20,11l0.2-11H37.2L37,141.8l-20.7-11.1c-3-1.6-6.8-0.5-8.4,2.5
			c-1.6,3-0.5,6.8,2.5,8.4L37,155.9v29.6c0,2.3,1.9,4.2,4.2,4.2h109.7c2.3,0,4.2-1.8,4.2-4.2v-29.4l26.9-14.5
			C185,140,186.2,136.2,184.5,133.2z"/>
		<path class="st0" d="M24.5,90.8l7.1,2.6c1,0.4,2.2,0.3,3.2-0.1c1-0.5,1.8-1.3,2.2-2.4l17.5-47.8l44.7,11.8v40.6H41.2
			c-2.3,0-4.2,1.9-4.2,4.2v5.8h118.1v-5.8c0-2.3-1.9-4.2-4.2-4.2c2-14.1,3-40.2-15-50.5c-0.7-0.4-1.5-0.6-2.2-0.7l0,0H101L58.2,33.1
			L66.3,11c0.8-2.2-0.3-4.6-2.5-5.4L56.7,3c-1-0.4-2.2-0.3-3.2,0.1c-1,0.5-1.8,1.3-2.2,2.4L22,85.5C21.3,87.6,22.4,90,24.5,90.8z
			 M135,58c7.6,9,6.9,26.3,5.1,37.5H135V58z M113.7,51.5c0-1.3,1-2.4,2.3-2.4h2.4c1.3,0,2.4,1.1,2.4,2.4v2.4c0,1.3-1.1,2.3-2.4,2.3
			h-2.4c-1.3,0-2.3-1-2.3-2.3V51.5z M112.3,75.5l2.9-16.2c0.1-0.7,0.8-1.2,1.5-1.2h1c0.7,0,1.4,0.5,1.5,1.2l3,16.2
			c0.2,1.3-0.2,2.6-1.2,3.4l-2.8,2.4c-0.6,0.5-1.4,0.5-2,0l-2.8-2.4C112.5,78.1,112.1,76.8,112.3,75.5z"/>
	</g>
</g>
</svg>
