<?xml version="1.0" encoding="iso-8859-1"?>
<!-- Generator: Adobe Illustrator 18.0.0, SVG Export Plug-In . SVG Version: 6.00 Build 0)  -->
<!DOCTYPE svg PUBLIC "-//W3C//DTD SVG 1.1//EN" "http://www.w3.org/Graphics/SVG/1.1/DTD/svg11.dtd">
<svg version="1.1" id="Capa_1" xmlns="http://www.w3.org/2000/svg" xmlns:xlink="http://www.w3.org/1999/xlink" x="0px" y="0px"
	 viewBox="0 0 466.971 466.971" style="enable-background:new 0 0 466.971 466.971;" xml:space="preserve">
<g>
	<path d="M398.585,68.387C354.485,24.287,295.852,0,233.485,0s-121,24.287-165.099,68.387S0,171.119,0,233.486
		s24.287,121,68.386,165.1c44.1,44.099,102.733,68.386,165.099,68.386s121-24.287,165.1-68.386
		c44.1-44.1,68.386-102.733,68.386-165.1S442.685,112.487,398.585,68.387z M101.619,412.732
		c15.574-26.958,39.298-48.75,67.455-61.91c18.634,14.334,40.733,22.649,64.41,22.649c23.646,0,45.717-8.292,64.336-22.59
		c28.166,13.182,51.9,34.961,67.488,61.883c-37.977,28.048-83.733,43.207-131.822,43.207
		C185.378,455.971,139.605,440.801,101.619,412.732z M113.306,234.16c0.409,11.978,2.021,23.585,4.696,34.651
		c-3.284-0.322-6.428-1.528-9.119-3.579c-3.822-2.912-6.281-7.139-6.924-11.901C100.824,244.929,105.723,237.094,113.306,234.16z
		 M361.498,240.02c2.913,3.822,4.162,8.55,3.519,13.312c-1.135,8.408-7.948,14.664-16.043,15.476
		c2.676-11.066,4.287-22.674,4.696-34.651C356.745,235.338,359.45,237.333,361.498,240.02z M267.844,256.49
		c-1.657,0-3.172-1.252-3.602-2.969l-5.227-21.031h32.271l-12.4,24H267.844z M303.668,232.49h5.823l-12.4,24h-5.823L303.668,232.49z
		 M321.489,233.231v18.407c0,2.352-1.467,4.852-4.185,4.852h-7.832L321.489,233.231z M124.344,221.49
		c0.372-9.114,1.505-17.827,3.414-26h211.46c1.909,8.172,3.042,16.885,3.414,26H124.344z M145.489,232.49h27.037l-12.4,24h-10.454
		c-2.717,0-4.183-2.5-4.183-4.852V232.49z M184.907,232.49h5.823l-12.4,24h-5.823L184.907,232.49z M203.111,232.49h4.849
		l-5.226,21.023c-0.431,1.725-1.946,2.977-3.603,2.977h-8.421L203.111,232.49z M134.698,164.49h197.58l3.19,20H131.507
		L134.698,164.49z M136.452,153.49l7.497-47h179.076l7.497,47H136.452z M134.489,232.49v19.148c0,8.889,6.669,15.852,15.183,15.852
		h49.46c6.741,0,12.61-4.65,14.276-11.316l5.886-23.684h28.386l5.888,23.691c1.665,6.658,7.534,11.309,14.275,11.309h49.46
		c8.515,0,15.185-6.963,15.185-15.852V232.49h10.229c-1.508,57.386-32.42,105.791-74.778,123.134c1.939-2.745,3.574-5.74,4.838-8.95
		c5.159-13.097,3.434-27.752-4.615-39.202c-9.81-13.956-22.125-21.642-34.675-21.642s-24.865,7.686-34.675,21.642
		c-8.048,11.45-9.773,26.105-4.615,39.202c1.265,3.212,2.901,6.208,4.841,8.954c-42.359-17.34-73.272-65.748-74.78-123.137H134.489z
		 M262.543,342.642c-3.87,9.826-12.334,16.989-22.641,19.161c-0.304,0.064-0.609,0.113-0.914,0.168V336.24
		c0-3.037-2.462-5.5-5.5-5.5s-5.5,2.463-5.5,5.5v25.731c-0.304-0.055-0.609-0.104-0.913-0.168h0
		c-10.307-2.172-18.771-9.335-22.642-19.161c-3.856-9.79-2.625-20.304,3.379-28.845c7.691-10.942,16.81-16.968,25.676-16.968
		s17.985,6.025,25.676,16.968C265.168,322.338,266.399,332.852,262.543,342.642z M390.807,390.807
		c-5.359,5.359-10.947,10.407-16.735,15.144c-15.868-26.825-39.326-48.774-67.103-62.839c17.358-16.233,30.954-38.066,38.921-63.239
		c0.44,0.02,0.881,0.044,1.319,0.044c14.275-0.001,26.748-10.582,28.71-25.112c1.036-7.674-0.978-15.292-5.671-21.451
		c-4.15-5.446-9.957-9.171-16.551-10.677c-0.295-9.482-1.388-18.575-3.228-27.186h48.021c3.038,0,5.5-2.463,5.5-5.5
		s-2.462-5.5-5.5-5.5h-51.882l-13.458-84.366c-0.426-2.67-2.728-4.634-5.431-4.634H139.257c-2.703,0-5.005,1.964-5.431,4.634
		l-13.458,84.366h-51.88c-3.038,0-5.5,2.463-5.5,5.5s2.462,5.5,5.5,5.5h48.019c-1.84,8.612-2.933,17.705-3.229,27.186
		c-6.594,1.507-12.4,5.231-16.55,10.677c-4.694,6.159-6.708,13.777-5.671,21.451c1.037,7.674,5,14.484,11.159,19.178
		c5.102,3.888,11.204,5.938,17.511,5.938c0.452,0,0.905-0.025,1.359-0.046c7.956,25.139,21.524,46.947,38.848,63.173
		c-27.771,14.047-51.221,36.008-67.078,62.869c-5.773-4.726-11.345-9.762-16.691-15.108C34.143,348.784,11,292.913,11,233.486
		s23.143-115.299,65.165-157.32C118.187,34.143,174.058,11,233.485,11c59.428,0,115.299,23.143,157.321,65.165
		c42.022,42.021,65.165,97.893,65.165,157.32S432.829,348.784,390.807,390.807z"/>
	<path d="M233.49,311.543c-8.56,0-16.472,2.355-21.164,6.302c-2.325,1.955-2.625,5.425-0.669,7.749
		c1.955,2.325,5.424,2.624,7.75,0.669c2.041-1.716,6.953-3.72,14.083-3.72c7.124,0,12.034,2.004,14.075,3.72
		c1.031,0.867,2.288,1.291,3.537,1.291c1.567,0,3.125-0.666,4.212-1.96c1.955-2.324,1.655-5.794-0.669-7.749
		C249.953,313.899,242.045,311.543,233.49,311.543z"/>
</g>
<g>
</g>
<g>
</g>
<g>
</g>
<g>
</g>
<g>
</g>
<g>
</g>
<g>
</g>
<g>
</g>
<g>
</g>
<g>
</g>
<g>
</g>
<g>
</g>
<g>
</g>
<g>
</g>
<g>
</g>
</svg>
