<?xml version="1.0" encoding="utf-8"?>
<!-- Generator: Adobe Illustrator 21.0.0, SVG Export Plug-In . SVG Version: 6.00 Build 0)  -->
<svg version="1.1" id="Calque_1" xmlns="http://www.w3.org/2000/svg" xmlns:xlink="http://www.w3.org/1999/xlink" x="0px" y="0px"
	 viewBox="0 0 512 512" style="enable-background:new 0 0 512 512;" xml:space="preserve">
<style type="text/css">
	.st0{fill:none;stroke:#231F20;stroke-width:12;stroke-miterlimit:10;}
</style>
<path class="st0" d="M179.3,38.9c-23.3,36.7-31.7,78.1-19.9,127.6l0.4-0.2c2.2,6.7,5,13.3,8.5,19.6l-16.3,9.2
	c-6.7-11.9-11.2-24.4-13.8-37.2c-34.5-6.3-69.4-7.5-105-2.2c34.1,10.2,52.8,23.8,76.7,46.7c-26.8,9.8-60.3,30.3-92.9,70.2
	c35.5-8.9,64.8-11.5,89.4-6.3c-36.9,22.5-64.1,56.1-88.3,114.1C54,363.3,83,361.7,121,361.7c-23.1,32.8-35.3,77.3-36.3,112.8
	c24.5-26,57.6-60.2,87.2-79c3,29.9,15,58.3,35.9,85.2c-0.2-43.8,10.3-88.3,31.6-133.3c-10.4,4.9-20.7,10.6-30.8,17.1l-19.1,12.2
	l4.9-22.1l13.8-61.6c-12,0.3-24.3,4.3-37.9,9.7l-22.6,8.8l10.8-21.7l38.4-77.5l16.8,8.3L185.2,278c11.5-3.1,23.3-4.9,36-2.8l9.8,1.6
	l-2.2,9.7l-11.5,51.4c16.6-9,33.7-16.2,50.9-21.7l0.1,0l0.7-0.2c8-2.5,16.1-4.7,24.2-6.5c0.1,0,0.2,0,0.3-0.1
	c43.1-10.9,89.6-19,150.6-21.7c7.6-12.9,13.8-24.2,18.8-34.8l-6.3-24.4l-24.4,30.8l-7.9-27.5L401.8,261l-7.5-26.1l-23.8,31.4
	l-7.7-28.2l-23.8,31.5l1.2-41.2l22.6-42.6l7.7,28.2l23.9-31.4l7.7,28.2l23.4-30l6.6,26.9l24.4-30.8l7.9,27.5l24.6-32
	c2.3-10.8,4.6-22.5,7.4-35.8c-55.5-3.7-106.3,4.8-154.1,9.9c-26.6-14.9-58.7-22-88.6-21.9c-11.5,0.1-22.8,1.2-33.2,3.3L179.3,38.9
	L179.3,38.9z M279.9,147.4c15.7,0.1,30.7,5.3,45.7,10.8c-4.6,14.3-13.1,18.4-24.7,20.7c-16.1-4.4-28.3-15.6-34.4-30.2
	C271,147.8,275.5,147.4,279.9,147.4L279.9,147.4z"/>
</svg>
