<?xml version="1.0" encoding="iso-8859-1"?>
<!-- Generator: Adobe Illustrator 19.0.0, SVG Export Plug-In . SVG Version: 6.00 Build 0)  -->
<svg version="1.1" id="Layer_1" xmlns="http://www.w3.org/2000/svg" xmlns:xlink="http://www.w3.org/1999/xlink" x="0px" y="0px"
	 viewBox="0 0 512.001 512.001" style="enable-background:new 0 0 512.001 512.001;" xml:space="preserve">
<g>
	<g>
		<g>
			<path d="M448.435,300.244c-0.001-0.015-0.001-0.031-0.002-0.046c-2.118-26.618-8.444-57.709-18.296-89.911
				c-0.001-0.003-0.002-0.006-0.003-0.009c-5.669-18.534-12.325-36.849-19.784-54.434c0-0.001-0.001-0.003-0.001-0.005
				c-18.372-43.418-40.64-80.426-64.398-107.021C317.014,16.423,286.749,0,256.002,0c-30.749,0-61.011,16.423-89.949,48.816
				c-23.758,26.594-46.027,63.602-64.398,107.021c0,0.001-0.001,0.002-0.001,0.003c-7.461,17.593-14.12,35.911-19.789,54.446
				c0,0.001,0,0.002-0.001,0.005c-9.85,32.198-16.175,63.291-18.294,89.918c0,0.002,0,0.003,0,0.006c0,0.001,0,0.002,0,0.003
				c-0.516,6.557-0.779,12.807-0.779,18.574c0,106.537,86.673,193.209,193.209,193.209S449.21,425.329,449.21,318.792
				C449.211,313.027,448.95,306.787,448.435,300.244z M256.002,23.208c43.872,0,91.409,48.755,128.346,131.054
				c-4.211,2.636-7.554,5.723-10.506,8.447c-5.759,5.315-9.236,8.523-17.266,8.523c-8.037,0-11.515-3.21-17.276-8.528
				c-6.713-6.195-15.907-14.68-33.016-14.68c-17.109,0-26.303,8.486-33.016,14.68c-5.761,5.318-9.239,8.528-17.276,8.528
				c-8.029,0-11.504-3.209-17.262-8.524c-6.713-6.198-15.907-14.684-33.018-14.684c-17.112,0-26.305,8.486-33.018,14.684
				c-5.758,5.316-9.235,8.524-17.262,8.524c-8.039,0-11.517-3.21-17.279-8.528c-2.95-2.722-6.288-5.804-10.495-8.44
				C164.591,71.956,212.128,23.208,256.002,23.208z M118.388,176.193c1.237,1.023,2.537,2.196,4.021,3.566
				c6.713,6.195,15.907,14.682,33.02,14.682c17.103,0,26.294-8.485,33.006-14.679c5.76-5.318,9.238-8.529,17.275-8.529
				s11.515,3.211,17.276,8.529c6.711,6.195,15.902,14.679,33.005,14.679c17.109,0,26.303-8.486,33.016-14.68
				c5.761-5.318,9.239-8.528,17.276-8.528s11.515,3.21,17.276,8.528c6.713,6.195,15.907,14.68,33.016,14.68
				c17.102,0,26.294-8.483,33.005-14.676c1.49-1.375,2.793-2.549,4.034-3.576c3.763,9.486,7.279,19.155,10.518,28.926
				c-7.494,2.907-12.794,7.356-17.368,11.193c-6.374,5.35-10.585,8.884-20.175,8.884c-9.601,0-13.814-3.536-20.191-8.888
				c-7.602-6.38-17.062-14.321-35.113-14.321c-18.044,0-27.502,7.94-35.101,14.318c-6.376,5.353-10.59,8.89-20.192,8.89
				c-9.594,0-13.805-3.535-20.18-8.885c-7.602-6.381-17.062-14.323-35.114-14.323c-18.046,0-27.504,7.941-35.103,14.322
				c-6.374,5.351-10.584,8.886-20.18,8.886c-9.601,0-13.815-3.536-20.191-8.886c-4.57-3.835-9.867-8.281-17.353-11.188
				C111.109,195.35,114.625,185.681,118.388,176.193z M101.008,227.424c3.199,1.544,5.925,3.831,9.296,6.658
				c7.601,6.379,17.062,14.317,35.11,14.317c18.046,0,27.504-7.941,35.103-14.322c6.374-5.351,10.584-8.886,20.18-8.886
				c9.602,0,13.816,3.537,20.192,8.89c7.6,6.379,17.057,14.318,35.101,14.318c18.053,0,27.513-7.942,35.114-14.323
				c6.374-5.351,10.585-8.885,20.181-8.885c9.601,0,13.815,3.536,20.192,8.889c7.602,6.379,17.062,14.32,35.112,14.32
				c18.039,0,27.496-7.938,35.094-14.316c3.376-2.834,6.104-5.122,9.31-6.667c6.909,24.352,11.597,47.673,13.727,68.313
				l-29.479,22.099l-39.455-29.592c-4.125-3.094-9.8-3.094-13.925,0l-39.454,29.591l-39.454-29.591c-4.125-3.094-9.8-3.094-13.925,0
				l-39.454,29.591l-39.454-29.591c-4.126-3.094-9.8-3.095-13.926,0.001l-39.443,29.589l-29.465-22.095
				C89.415,275.089,94.1,251.77,101.008,227.424z M256.002,488.792c-92.051,0-167.248-73.545-169.928-164.959l23.715,17.783
				c4.126,3.096,9.8,3.095,13.925-0.001l39.443-29.588l39.453,29.589c4.126,3.094,9.799,3.094,13.925,0l39.454-29.591l39.454,29.591
				c4.125,3.094,9.8,3.094,13.925,0l39.454-29.591l39.454,29.591c4.126,3.092,9.796,3.096,13.923,0.001l23.728-17.788
				C423.251,415.243,348.054,488.792,256.002,488.792z"/>
			<path d="M322.828,422.703c-19.934,12.869-43.042,19.67-66.826,19.67c-28.106,0-55.635-9.732-77.517-27.404
				c-4.986-4.027-12.291-3.248-16.319,1.736c-4.027,4.986-3.249,12.292,1.737,16.319c25.996,20.997,58.704,32.559,92.099,32.559
				c28.26,0,55.721-8.085,79.414-23.38c5.384-3.475,6.931-10.66,3.456-16.043C335.394,420.773,328.213,419.224,322.828,422.703z"/>
			<path d="M256.002,69.62c10.844,0,32.383,13.374,57.398,51.066c2.234,3.366,5.922,5.189,9.679,5.189
				c2.204,0,4.433-0.627,6.407-1.937c5.34-3.544,6.795-10.745,3.253-16.085c-15.228-22.946-45.448-61.442-76.735-61.442
				c-6.409,0-11.604,5.196-11.604,11.604S249.593,69.62,256.002,69.62z"/>
			<path d="M127.996,275.866c0-3.063-1.23-6.046-3.388-8.204c-2.158-2.17-5.152-3.4-8.216-3.4c-3.052,0-6.046,1.23-8.204,3.4
				c-2.158,2.158-3.4,5.142-3.4,8.204c0,3.052,1.242,6.046,3.4,8.204c2.158,2.157,5.152,3.4,8.204,3.4
				c3.063,0,6.046-1.242,8.216-3.4C126.766,281.911,127.996,278.918,127.996,275.866z"/>
			<path d="M209.469,287.47c6.406,0,11.604-5.199,11.604-11.604c0-6.417-5.199-11.604-11.604-11.604s-11.604,5.187-11.604,11.604
				C197.865,282.271,203.064,287.47,209.469,287.47z"/>
			<path d="M298.171,287.47c6.407,0,11.604-5.199,11.604-11.604c0-6.417-5.198-11.604-11.604-11.604
				c-6.405,0-11.604,5.187-11.604,11.604C286.567,282.271,291.767,287.47,298.171,287.47z"/>
			<path d="M395.611,287.47c3.053,0,6.034-1.242,8.204-3.4c2.158-2.158,3.4-5.152,3.4-8.204c0-3.063-1.24-6.046-3.4-8.204
				c-2.158-2.17-5.151-3.4-8.204-3.4c-3.064,0-6.057,1.23-8.216,3.4c-2.157,2.158-3.388,5.142-3.388,8.204
				c0,3.052,1.231,6.046,3.388,8.204C389.566,286.228,392.548,287.47,395.611,287.47z"/>
			<path d="M171.384,368.386c2.158-2.157,3.4-5.151,3.4-8.203s-1.242-6.046-3.4-8.204c-2.17-2.158-5.152-3.4-8.204-3.4
				s-6.046,1.24-8.216,3.4c-2.158,2.158-3.388,5.152-3.388,8.204c0,3.064,1.23,6.046,3.388,8.203c2.17,2.17,5.164,3.401,8.216,3.401
				S169.214,370.556,171.384,368.386z"/>
			<path d="M256.002,371.787c6.405,0,11.604-5.188,11.604-11.604c0-6.407-5.199-11.604-11.604-11.604
				c-6.406,0-11.604,5.198-11.604,11.604C244.398,366.599,249.596,371.787,256.002,371.787z"/>
			<path d="M348.825,348.579c-3.052,0-6.046,1.24-8.204,3.4c-2.158,2.16-3.4,5.152-3.4,8.204c0,3.064,1.24,6.046,3.4,8.203
				c2.17,2.17,5.152,3.401,8.204,3.401c3.052,0,6.046-1.231,8.203-3.401c2.17-2.157,3.401-5.151,3.401-8.203
				s-1.231-6.046-3.401-8.204C354.87,349.819,351.875,348.579,348.825,348.579z"/>
		</g>
	</g>
</g>
<g>
</g>
<g>
</g>
<g>
</g>
<g>
</g>
<g>
</g>
<g>
</g>
<g>
</g>
<g>
</g>
<g>
</g>
<g>
</g>
<g>
</g>
<g>
</g>
<g>
</g>
<g>
</g>
<g>
</g>
</svg>
