<?xml version="1.0" encoding="iso-8859-1"?>
<!-- Generator: Adobe Illustrator 21.0.0, SVG Export Plug-In . SVG Version: 6.00 Build 0)  -->
<svg version="1.1" id="Capa_1" xmlns="http://www.w3.org/2000/svg" xmlns:xlink="http://www.w3.org/1999/xlink" x="0px" y="0px"
	 viewBox="0 0 459.58 459.58" style="enable-background:new 0 0 459.58 459.58;" xml:space="preserve">
<g>
	<path style="fill:#020202;" d="M-0.1,349.646c0-2.301,0-4.602,0-6.903c0.184-0.184,0.46-0.368,0.552-0.644
		c1.565-7.272,5.339-13.439,9.757-19.33c9.021-12.15,19.882-22.551,31.204-32.4c26.509-23.196,55.228-43.354,84.591-62.592
		c0.828-0.552,1.933-0.828,2.393-2.025c-10.401-9.481-20.526-19.238-30.283-29.363c-16.937-17.673-33.045-35.898-45.747-56.977
		c-5.615-9.389-10.493-19.146-11.874-30.191c-1.933-13.439,5.799-23.932,19.146-26.325c6.996-1.197,13.899-0.828,20.895,0.368
		c13.715,2.301,26.786,6.811,39.672,12.15c1.933,0.828,2.945,0.552,4.326-0.92c4.786-5.155,10.861-8.008,17.949-8.652
		c18.685-1.565,33.505,15.096,30.007,33.321c-0.184,0.828-0.368,1.749,0.552,2.301c4.142,2.393,8.192,4.694,12.518,7.18
		c0.46-1.289,0.736-2.209,1.105-3.222c8.1-25.037,17.489-49.521,30.651-72.441c3.866-6.627,8.1-12.979,12.886-18.962
		c6.996-8.652,15.096-15.556,25.957-18.87c2.669,0,5.339,0,8.008,0c12.794,3.222,19.33,12.794,24.116,24.024
		c1.933,4.51,3.498,9.113,4.694,13.807c5.523,21.263,7.18,42.986,7.456,64.801c0.092,4.786,0,9.665,0,14.727
		c5.983-2.577,11.414-4.971,16.937-7.272c28.534-11.966,57.345-23.104,87.72-29.823c11.322-2.485,22.735-4.51,34.425-3.222
		c5.523,0.552,10.677,2.117,14.912,5.983c2.761,2.485,3.774,5.799,5.155,9.021c0,2.301,0,4.602,0,6.903
		c-0.184,0.184-0.46,0.368-0.552,0.552c-1.657,7.272-5.431,13.439-9.757,19.33c-8.284,11.138-18.133,20.71-28.442,29.915
		c-1.841,1.657-2.025,2.853-1.289,5.063c6.811,19.882-10.217,39.948-30.928,36.727c-4.878-0.736-9.113-2.761-13.071-5.523
		c-15.832,11.598-32.032,22.459-48.416,33.045c-0.092,0.092-0.184,0.276-0.276,0.46c0.736,0.828,1.473,1.749,2.301,2.485
		c9.113,8.468,18.041,17.121,26.693,26.141c16.292,17.029,31.848,34.702,44.274,54.86c5.891,9.573,10.954,19.514,12.794,30.743
		c2.117,13.531-4.694,24.024-17.857,27.062c-3.682,0.828-7.364,1.013-11.138,0.92c-11.046-0.184-21.539-2.945-31.94-6.259
		c-25.773-8.376-49.705-20.526-73.269-33.781c-3.406-1.933-6.719-3.866-10.309-5.891c-1.657,5.063-3.13,9.757-4.786,14.451
		c-8.008,23.196-16.937,45.931-30.007,66.826c-9.021,14.543-18.87,28.442-36.634,33.505c-2.853,0-5.707,0-8.652,0
		c-0.092-0.46-0.46-0.552-0.828-0.644c-8.008-2.117-13.347-7.456-17.673-14.267c-3.774-5.983-6.351-12.426-8.284-19.146
		c-0.552-1.749-1.289-2.485-3.038-2.761c-12.058-1.749-21.999-11.414-23.656-23.012c-1.933-13.255,4.418-25.313,16.292-30.467
		c1.749-0.736,2.209-1.657,2.117-3.406c-0.184-4.05-0.276-8.008-0.276-12.058c-0.092-3.866,0-7.732,0-11.506
		c-1.381-0.276-2.117,0.276-2.853,0.644c-8.468,3.498-16.844,7.18-25.405,10.585c-26.049,10.217-52.374,19.79-80.08,24.668
		c-9.205,1.565-18.409,2.577-27.706,0.92c-6.351-1.105-11.782-3.774-15.188-9.757C1.097,352.776,1.097,350.935-0.1,349.646z
		 M314.331,241.124c-8.928,5.431-17.581,10.677-26.325,15.832c-1.197,0.736-1.749,1.565-2.025,2.853
		c-3.59,17.949-7.824,35.622-12.794,53.203c-0.644,2.209-0.276,3.222,1.565,4.326c14.635,8.56,29.363,16.752,44.735,23.932
		c17.581,8.284,35.438,15.924,54.676,19.422c6.075,1.105,12.15,1.657,18.225,0.276c4.878-1.197,6.811-3.774,6.811-8.836
		c0-3.498-0.92-6.811-2.025-10.033c-3.498-9.849-8.929-18.593-14.912-27.062c-15.648-22.275-34.333-41.881-53.847-60.659
		C323.811,249.868,319.025,245.542,314.331,241.124z M139.535,235.877c-0.276,0.092-0.552,0.092-0.644,0.184
		c-2.209,1.381-4.326,2.761-6.535,4.142c-30.375,19.882-60.014,40.777-86.984,65.169c-9.941,9.021-19.514,18.409-26.97,29.731
		c-1.933,2.945-3.59,6.075-4.418,9.573c-0.644,2.577,0.368,4.05,2.669,4.878c2.117,0.736,4.234,1.105,6.443,1.289
		c11.506,0.552,22.643-1.657,33.689-4.418c32.769-8.1,63.88-20.802,94.716-34.241c1.473-0.644,1.841-1.565,1.933-3.038
		c0.552-8.652,1.105-17.397,1.841-26.049c0.828-9.481,2.025-19.054,3.038-28.534c0.092-1.197,0.46-2.301-0.828-3.406
		C151.593,246.094,145.518,240.94,139.535,235.877z M409.967,154.968c10.769-9.757,21.263-19.514,29.639-31.296
		c1.749-2.393,3.222-4.971,4.51-7.64c3.13-6.903,1.657-9.297-5.891-10.125c-7.732-0.828-15.28,0.184-22.827,1.565
		c-18.962,3.406-37.187,9.389-55.32,15.832c-19.606,7.088-38.844,15.096-57.805,23.656c-1.197,0.552-2.301,0.92-2.393,2.761
		c-0.552,16.66-1.933,33.229-4.234,49.705c-0.736,5.155,0.46,8.192,4.602,11.23c5.431,3.958,10.401,8.652,15.556,13.071
		c15.004-9.573,29.639-19.33,43.998-29.455c2.393-1.749,4.786-3.498,7.18-5.155c-4.51-13.255-2.117-24.668,8.836-33.597
		C383.365,149.169,396.436,146.132,409.967,154.968z M286.625,117.413c-0.092-10.401-0.644-20.895-1.749-31.204
		c-1.473-13.531-3.59-26.878-8.468-39.672c-2.025-5.155-4.418-10.217-8.468-14.175c-3.774-3.682-7.548-4.326-12.334-2.117
		c-2.393,1.105-4.51,2.485-6.443,4.234c-6.535,5.615-11.69,12.426-16.2,19.606c-15.648,25.037-25.589,52.466-34.517,80.357
		c-0.46,1.381,0,2.025,1.105,2.761c12.61,7.824,24.945,16.016,37.095,24.576c1.197,0.828,2.025,0.828,3.314,0.184
		c14.727-7.64,29.639-15.004,44.735-21.999c1.565-0.736,2.117-1.565,2.117-3.222C286.625,130.208,286.625,123.856,286.625,117.413z
		 M116.983,109.037c-12.058-4.971-24.116-9.389-36.819-11.782c-6.351-1.197-12.702-1.933-19.054-0.46
		c-5.063,1.105-7.272,4.05-7.088,9.297c0.092,2.577,0.644,5.155,1.473,7.548c3.406,10.769,9.297,20.342,15.74,29.455
		c19.514,27.614,43.354,51.178,68.206,74.005c1.197,1.105,2.025,0.92,3.222,0.184c7.548-4.694,15.096-9.389,22.735-13.899
		c1.289-0.736,1.933-1.749,2.209-3.13c3.774-19.422,8.468-38.567,13.991-57.897c-5.247-3.038-10.493-6.167-15.74-9.205
		c-12.979,9.941-24.116,11.598-34.886,5.247C120.481,132.325,115.234,121.371,116.983,109.037z M174.604,405.703
		c1.105,3.682,2.301,7.088,3.774,10.401c1.933,4.234,4.05,8.192,7.548,11.414c3.314,3.13,7.088,3.958,11.322,2.209
		c2.761-1.197,5.247-2.761,7.456-4.694c6.903-5.891,12.15-13.255,16.844-20.895c11.506-18.685,19.79-38.752,27.062-59.278
		c2.669-7.456,5.063-14.912,7.548-22.459c-13.163-8.192-25.773-16.476-38.107-25.129c-1.013-0.736-1.749-0.736-2.853-0.184
		c-15.372,7.916-30.928,15.464-46.668,22.643c-1.105,0.552-1.565,1.105-1.657,2.301c-0.368,9.941-0.276,19.882,0.184,30.007
		c13.163,3.13,21.723,11.046,23.38,24.668C192.185,389.687,186.202,399.259,174.604,405.703z M173.684,244.99
		c-0.368,1.565,0.92,2.117,1.749,2.761c13.347,10.769,26.97,21.079,40.869,31.112c1.197,0.92,2.117,1.013,3.59,0.276
		c17.673-9.297,35.162-18.962,52.466-28.903c1.381-0.828,2.025-1.841,2.301-3.314c1.841-11.046,3.866-21.999,5.431-33.137
		c0.184-1.473-0.184-2.301-1.289-3.13c-13.163-10.493-26.509-20.802-40.132-30.651c-1.197-0.828-2.025-0.92-3.314-0.184
		c-18.317,9.757-36.45,19.79-54.307,30.283c-0.828,0.46-1.565,0.92-1.749,2.117C177.366,223.175,175.525,234.036,173.684,244.99z
		 M224.217,169.972c-10.125-6.996-20.066-13.623-30.467-20.066c-4.05,14.267-7.456,28.258-10.585,42.802
		C196.879,184.883,210.318,177.428,224.217,169.972z M204.151,287.147c-11.23-8.008-21.723-16.2-32.584-24.668
		c-1.657,14.359-2.945,28.074-3.774,42.341C180.127,299.113,191.909,293.222,204.151,287.147z M260.207,308.41
		c3.774-13.715,7.18-27.062,10.033-40.961c-13.347,7.272-26.325,14.451-39.396,21.631
		C240.509,295.707,250.082,302.058,260.207,308.41z M250.819,171.813c10.861,7.824,21.079,15.74,31.572,23.932
		c1.565-13.899,2.853-27.338,3.59-41.145C273.922,160.215,262.509,165.83,250.819,171.813z M289.938,239.743
		c4.786-2.945,9.021-5.523,13.531-8.284c-3.59-3.13-7.088-5.983-10.769-9.205C291.779,228.145,290.951,233.484,289.938,239.743z
		 M163.651,220.505c-4.142,2.577-7.916,4.878-11.966,7.364c3.314,2.853,6.259,5.339,9.481,8.1
		C161.994,230.722,162.73,225.844,163.651,220.505z"/>
	<path style="fill:#020202;" d="M230.845,204.765c6.535,0.184,12.058,1.289,17.121,4.418c9.113,5.615,12.426,15.74,7.824,25.405
		c-5.523,11.782-15.556,17.489-27.89,19.698c-7.088,1.289-13.899,0.368-20.342-2.853c-10.677-5.431-14.451-16.844-8.928-27.522
		c5.615-10.861,15.28-16.2,26.878-18.409C227.531,205.041,229.556,204.949,230.845,204.765z"/>
</g>
</svg>
