<?xml version="1.0" encoding="utf-8"?>
<!-- Generator: Adobe Illustrator 21.0.0, SVG Export Plug-In . SVG Version: 6.00 Build 0)  -->
<svg version="1.1" xmlns="http://www.w3.org/2000/svg" xmlns:xlink="http://www.w3.org/1999/xlink" x="0px" y="0px"
	 viewBox="0 0 52.3 52.3" style="enable-background:new 0 0 52.3 52.3;" xml:space="preserve">
<g id="Capa_1">
	<path d="M49.6,0.2c-0.5-0.3-1.1-0.2-1.4,0.3l-3.6,5.4c-3.7-1.6-9.9-2.5-15.9-2.5c-4,0-7.8,0.4-11.1,1.1c-1.5-2.1-4-3.5-6.8-3.5
		c-4.7,0-8.4,3.8-8.4,8.4s3.8,8.4,8.4,8.4c0.9,0,1.9-0.2,2.7-0.5c0.8,1.1,1.6,2.2,2.5,3.4c0.1,0.2,0.2,0.4,0.4,0.5
		c3.4,4.4,7.1,9,9.4,11.7c0.6,0.7,1.4,1.2,2.3,1.4v11c-3.2,0.1-11,0.5-11,3.5c0,3.3,10,3.5,12,3.5s12-0.2,12-3.5
		c0-2.9-7.8-3.4-11-3.5v-11c0.9-0.2,1.7-0.7,2.3-1.5c3.5-4.4,6.5-8.2,8.8-11.5c0.3-0.2,0.4-0.5,0.5-0.7c3.9-5.4,6-9.1,6.3-10.9
		c0-0.1,0.1-0.3,0.1-0.4c0-1-0.7-1.8-1.8-2.6l3.5-5.2C50.2,1.1,50,0.5,49.6,0.2z M18.6,6.2c3-0.6,6.6-0.9,10.1-0.9
		c6.8,0,11.9,1.1,14.8,2.2l-2.6,3.9c-2.8,0.5-6.8,0.9-12.2,0.9c-3.6,0-7-0.2-9.9-0.6c0-0.1,0-0.1,0-0.2c0.1-0.3,0.1-0.5,0.2-0.8
		c0-0.1,0-0.2,0.1-0.3c0-0.4,0.1-0.7,0.1-1.1c0-0.3,0-0.5,0-0.8c0-0.2,0-0.3-0.1-0.5c0-0.1,0-0.2,0-0.3c0-0.2-0.1-0.4-0.1-0.6
		c0-0.1,0-0.1,0-0.2C18.8,6.7,18.7,6.5,18.6,6.2C18.6,6.3,18.6,6.2,18.6,6.2z M40.7,18.7c-0.5-0.2-1.1-0.5-1.9-0.7l3.3-4.9
		c1-0.2,1.9-0.5,2.8-0.8C43.9,14,42.6,16,40.7,18.7z M37.6,19.9c0.6,0.1,1.2,0.2,1.6,0.3c-0.5,0.2-1.2,0.3-2.1,0.5L37.6,19.9z
		 M34.4,21.1c-1.5,0.1-3.2,0.2-5.2,0.2c-4.6,0-8.6-0.6-10.5-1.1c1.7-0.5,5.5-0.9,10.5-0.9c2.4,0,4.5,0.1,6.2,0.3L34.4,21.1z
		 M36.6,17.7c-1.8-0.2-4.3-0.4-7.5-0.4c-7.2,0-10.6,0.7-12.1,1.5c-0.8-1.1-1.6-2.2-2.4-3.2l-0.1-0.1c-0.1-0.1-0.1-0.1-0.1-0.2
		c-0.2-0.3-0.4-0.5-0.5-0.8c-0.1-0.1-0.1-0.2-0.2-0.3c-0.2-0.3-0.3-0.5-0.5-0.8c0-0.1-0.1-0.1-0.1-0.2c-0.2-0.3-0.3-0.5-0.5-0.7
		c0.6,0.2,1.2,0.4,2,0.6c0.4,0.1,0.8,0.2,1.3,0.3l0,0l1.3,0.2l0.7,0.1l0,0c3.1,0.4,6.7,0.7,10.7,0.7c2.1,0,6.6-0.1,10.7-0.6
		L36.6,17.7z M10.7,15.7c-3.6,0-6.4-2.9-6.4-6.4s2.9-6.4,6.4-6.4c2.3,0,4.4,1.3,5.5,3.1c0.3,0.5,0.5,1,0.7,1.6c0,0,0,0.1,0,0.1
		C17,7.9,17,8.1,17.1,8.3c0,0.1,0,0.1,0,0.2c0,0.3,0.1,0.5,0.1,0.8c0,0.3,0,0.6-0.1,1c0,0.1,0,0.2,0,0.2c-0.1,0.3-0.1,0.6-0.2,0.9
		c-0.3-0.1-0.6-0.1-0.9-0.2c-0.2,0-0.3-0.1-0.5-0.1c-0.1,0-0.2,0-0.2-0.1c-0.2,0-0.4-0.1-0.5-0.1c0,0-0.1,0-0.1,0
		c-0.2,0-0.4-0.1-0.5-0.1c0,0,0,0-0.1,0c-0.2,0-0.3-0.1-0.5-0.1c0,0,0,0-0.1,0c-0.1,0-0.3-0.1-0.4-0.1c0,0-0.1,0-0.1,0
		c-0.1,0-0.2-0.1-0.3-0.1c-0.1,0-0.1-0.1-0.2-0.1c0,0-0.1,0-0.1-0.1c-1-0.5-1.1-0.9-1.1-0.9l0,0c0,0,0,0,0,0h0
		C11,8.8,10.5,8.5,10,8.6C9.7,8.7,9.4,9,9.3,9.3H9.2c0,0.7,0.3,1.9,2.3,5.1c0,0,0,0,0,0c0,0,0,0,0,0.1c0.2,0.3,0.4,0.7,0.7,1.1
		C11.8,15.7,11.2,15.7,10.7,15.7z M39,48.8c-0.9,0.6-4.3,1.5-9.8,1.5s-9-0.9-9.8-1.5c0.8-0.6,3.9-1.4,8.8-1.5v1.1c0,0.6,0.4,1,1,1
		s1-0.4,1-1v-1.1C35.2,47.4,38.2,48.3,39,48.8z M30.9,31.6c-0.4,0.5-1.1,0.8-1.8,0.9c0,0,0,0,0,0c-0.7,0-1.3-0.3-1.7-0.8
		c-1.8-2.2-4.6-5.6-7.4-9c3.4,0.7,7.9,0.7,9.2,0.7c1.3,0,2.6,0,3.8-0.1l-4.4,6.6c-0.3,0.5-0.2,1.1,0.3,1.4c0.2,0.1,0.4,0.2,0.6,0.2
		c0.3,0,0.6-0.2,0.8-0.4l5.3-7.9c0.7-0.1,1.3-0.2,1.9-0.3c0.2,0,0.3-0.1,0.5-0.1C35.9,25.2,33.6,28.2,30.9,31.6z M46.2,9.3
		c0,0.3-0.8,0.9-2.4,1.4l1.6-2.3C45.9,8.7,46.2,9,46.2,9.3z"/>
</g>
<g id="Calque_2">
	<g>
		<polygon points="19.5,34 19.5,34 19.5,34 		"/>
		<path d="M21.8,36.2l-8-15.7c-0.1-0.3-0.4-0.4-0.7-0.5l-3.6-0.2v-3.8C8.7,15.9,8.9,16,8,15.9v3.8l-2-0.1c-0.3,0-0.6,0.1-0.8,0.4
			l-3.8,6c-0.2,0.3-0.2,0.6,0,0.8l8,15.7c0.2,0.4,0.7,0.6,1.1,0.4l10.9-5.6C21.9,37.2,22,36.6,21.8,36.2z M19.9,36.2L19.9,36.2
			L10.6,41L3.2,26.5l3.2-5.2L8,21.4l-0.1,1.3c-0.2,0-0.5,0.1-0.7,0.2c-1,0.5-1.4,1.8-0.9,2.8s1.8,1.4,2.8,0.9c1-0.5,1.4-1.8,0.9-2.8
			c-0.1-0.2-0.3-0.4-0.5-0.6l0-1.7l3,0.2L19.9,36.2L19.9,36.2L19.9,36.2z"/>
		<path d="M16.5,31l-4.4,2.3c-0.4,0.2-0.6,0.7-0.4,1.1c0.2,0.4,0.7,0.6,1.1,0.4l4.4-2.3c0.4-0.2,0.6-0.7,0.4-1.1
			C17.4,30.9,16.9,30.8,16.5,31z"/>
		<path d="M17.7,33.4l-6.4,3.3c-0.4,0.2-0.6,0.7-0.4,1.1c0.2,0.4,0.7,0.6,1.1,0.4l6.4-3.3c0.4-0.2,0.6-0.7,0.4-1.1
			S18.1,33.2,17.7,33.4z"/>
		<path d="M15.4,28.9L11,31.1c-0.4,0.2-0.6,0.7-0.4,1.1c0.2,0.4,0.7,0.6,1.1,0.4l4.4-2.3c0.4-0.2,0.6-0.7,0.4-1.1
			C16.3,28.8,15.8,28.6,15.4,28.9z"/>
		<path d="M14.3,26.7L9.9,29c-0.4,0.2-0.6,0.7-0.4,1.1c0.2,0.4,0.7,0.6,1.1,0.4l4.4-2.3c0.4-0.2,0.6-0.7,0.4-1.1
			C15.2,26.7,14.7,26.5,14.3,26.7z"/>
		<path d="M13.2,24.6l-6.4,3.3c-0.4,0.2-0.6,0.7-0.4,1.1c0.2,0.4,0.7,0.6,1.1,0.4l6.4-3.3c0.4-0.2,0.6-0.7,0.4-1.1
			C14.1,24.5,13.6,24.4,13.2,24.6z"/>
	</g>
</g>
</svg>
