<?xml version="1.0" encoding="iso-8859-1"?>
<!-- Generator: Adobe Illustrator 19.0.0, SVG Export Plug-In . SVG Version: 6.00 Build 0)  -->
<svg version="1.1" id="Layer_1" xmlns="http://www.w3.org/2000/svg" xmlns:xlink="http://www.w3.org/1999/xlink" x="0px" y="0px"
	 viewBox="0 0 511.998 511.998" style="enable-background:new 0 0 511.998 511.998;" xml:space="preserve">
<g>
	<g>
		<path d="M511.986,52.336C511.985,23.478,488.508,0,459.65,0c-22.433,0-41.87,14.06-49.217,34.508
			c-18.727,0.861-35.761,11.609-44.757,27.876c-21.189,1.255-38.663,16.63-43.211,36.869h-36.428
			c-5.769,0-10.448,4.677-10.448,10.448c0,5.77,4.676,10.448,10.447,10.448h45.722c5.769,0,10.448-4.677,10.448-10.448
			c0-14.614,11.787-26.504,26.275-26.504c0.865,0,1.786,0.048,2.735,0.144c4.701,0.468,9.132-2.265,10.813-6.68
			c4.852-12.753,17.242-21.32,30.833-21.32c13.593,0,25.983,8.567,30.832,21.319c1.678,4.416,6.11,7.148,10.813,6.681
			c0.95-0.096,1.869-0.144,2.733-0.144c10.815,0,20.123,6.622,24.151,16.056h-90.406c-5.769,0-10.448,4.677-10.448,10.448
			s4.679,10.448,10.448,10.448h102.982c5.769,0,10.448-4.677,10.448-10.448c0-8.159-2.072-15.836-5.7-22.546
			C507.232,77.653,511.986,65.402,511.986,52.336z M484.774,71.239c-7.042-5.104-15.533-8.309-24.726-8.853
			c-6.265-11.33-16.43-19.978-28.349-24.48c5.256-10.237,15.88-17.01,27.951-17.01c17.336,0,31.44,14.104,31.44,31.441
			C491.091,59.289,488.845,65.859,484.774,71.239z"/>
	</g>
</g>
<g>
	<g>
		<path d="M121.715,69.008c-8.431-14.653-24.283-24.082-41.464-24.082c-17.179,0-33.03,9.429-41.461,24.081
			C17.153,70.703,0.064,88.935,0.064,111.1c0,5.77,4.679,10.448,10.448,10.448c5.769,0,10.448-4.677,10.448-10.448
			c0-11.759,9.478-21.326,21.13-21.326c0.695,0,1.438,0.04,2.207,0.117c4.715,0.477,9.132-2.266,10.812-6.68
			c3.957-10.402,14.061-17.389,25.143-17.389c11.084,0,21.189,6.987,25.145,17.389c1.678,4.414,6.102,7.15,10.813,6.681
			c0.768-0.077,1.51-0.117,2.202-0.117c7.894,0,14.791,4.39,18.419,10.878H61.44c-5.769,0-10.448,4.677-10.448,10.448
			s4.679,10.448,10.448,10.448h88.552c5.769,0,10.448-4.677,10.448-10.448C160.44,88.937,143.351,70.706,121.715,69.008z"/>
	</g>
</g>
<g>
	<g>
		<path d="M250.42,99.253h-0.123c-5.769,0-10.448,4.677-10.448,10.448c0,5.77,4.677,10.448,10.448,10.448h0.123
			c5.769,0,10.448-4.677,10.448-10.448C260.868,103.93,256.189,99.253,250.42,99.253z"/>
	</g>
</g>
<g>
	<g>
		<path d="M88.273,207.092H34.169c-5.769,0-10.448,4.677-10.448,10.448s4.679,10.448,10.448,10.448h54.104
			c5.769,0,10.448-4.677,10.448-10.448S94.043,207.092,88.273,207.092z"/>
	</g>
</g>
<g>
	<g>
		<path d="M75.946,245.523H10.459c-5.769,0-10.448,4.677-10.448,10.448s4.679,10.448,10.448,10.448h65.487
			c5.769,0,10.448-4.677,10.448-10.448S81.715,245.523,75.946,245.523z"/>
	</g>
</g>
<g>
	<g>
		<path d="M408.548,305.134c-4.412,0-8.762,0.279-13.029,0.818l-21.472-79.683c15.137-4.772,26.145-18.939,26.145-35.631
			c0-20.595-16.755-37.35-37.35-37.35h-25.856c-5.769,0-10.448,4.679-10.448,10.448s4.679,10.448,10.448,10.448h25.856
			c9.073,0,16.454,7.381,16.454,16.454c0,7.047-4.461,13.057-10.702,15.397l-3.971-14.738c-1.502-5.572-7.236-8.874-12.806-7.37
			c-5.572,1.501-8.871,7.235-7.37,12.806l2.792,10.36h-43.882c-5.769,0-10.448,4.679-10.448,10.448s4.679,10.448,10.448,10.448
			h49.513l6.664,24.727H191.129l-2.21-4.504h24.487c9.569,0,17.355-7.786,17.355-17.355c0-22.718-18.482-41.201-41.201-41.201
			h-59.026c-9.569,0-17.355,7.786-17.355,17.355v23.845c0,9.569,7.786,17.355,17.355,17.355h35.111l7.183,14.641l-28.323,50.784
			c-12.591-5.465-26.469-8.502-41.047-8.502c-57.033,0-103.433,46.4-103.433,103.433c0,57.033,46.4,103.433,103.433,103.433
			c53.467,0,97.589-40.778,102.897-92.867h15.702c4.472,14.505,17.999,25.075,33.952,25.075c19.588,0,35.523-15.935,35.523-35.522
			c0-7.362-2.252-14.207-6.102-19.884l82.993-103.086l6.724,24.955c-40.694,13.922-70.035,52.546-70.035,97.898
			c0,57.033,46.4,103.433,103.433,103.433s103.433-46.4,103.433-103.433C511.978,351.531,465.581,305.134,408.548,305.134z
			 M134.074,227.316v-16.765h55.486c9.989,0,18.316,7.25,19.996,16.765H134.074z M103.458,491.104
			c-45.512,0-82.538-37.026-82.538-82.537s37.026-82.538,82.538-82.538c10.884,0,21.275,2.138,30.798,5.983l-39.922,71.583
			c-1.805,3.237-1.761,7.186,0.115,10.381c1.876,3.195,5.304,5.157,9.009,5.157h81.837
			C180.09,459.669,145.387,491.104,103.458,491.104z M121.248,398.237l31.242-56.018c17.693,13.111,29.963,33.122,32.836,56.018
			H121.248z M222.057,398.236h-15.681c-3.06-30.722-19.62-57.524-43.644-74.385l21.292-38.176l47.664,97.154
			C227.259,386.997,223.893,392.283,222.057,398.236z M256.01,423.312c-3.974,0-7.579-1.599-10.217-4.179h10.217
			c3.163,0,6.155-1.432,8.138-3.896l6.417-7.971c0.045,0.467,0.072,0.94,0.072,1.419
			C270.637,416.751,264.076,423.312,256.01,423.312z M245.793,398.237c2.25-2.201,5.205-3.679,8.491-4.067l-3.275,4.067H245.793z
			 M269.157,375.695c-4.069-1.628-8.503-2.533-13.146-2.533c-1.896,0-3.757,0.154-5.574,0.441l-49.057-99.993h149.963
			L269.157,375.695z M408.548,491.104c-45.512,0-82.538-37.026-82.538-82.537c0-35.706,22.795-66.18,54.593-77.658l15.262,56.636
			c-7.112,4.307-11.876,12.118-11.876,21.022c0,13.541,11.017,24.559,24.559,24.559s24.559-11.017,24.559-24.559
			c0-10.591-6.74-19.637-16.154-23.076l-15.927-59.103c2.479-0.226,4.986-0.358,7.522-0.358c45.512,0,82.538,37.026,82.538,82.538
			S454.059,491.104,408.548,491.104z M404.884,408.567c0.001-2.012,1.631-3.648,3.64-3.661c0.005,0,0.011,0.001,0.017,0.001
			c0.007,0,0.015-0.001,0.022-0.001c2.012,0.009,3.647,1.647,3.647,3.661c0,2.021-1.642,3.663-3.663,3.663
			S404.884,410.588,404.884,408.567z"/>
	</g>
</g>
<g>
	<g>
		<path d="M118.398,470.341c-0.437-5.754-5.464-10.074-11.208-9.629c-15.24,1.158-30.168-4.371-40.963-15.167
			c-20.389-20.389-20.389-53.567,0.001-73.958c4.08-4.08,4.08-10.695,0-14.776c-4.081-4.079-10.694-4.079-14.776,0
			c-28.537,28.538-28.537,74.972,0,103.51c13.789,13.789,32.398,21.439,51.752,21.438c1.849,0,3.707-0.069,5.566-0.21
			C114.524,481.112,118.834,476.094,118.398,470.341z"/>
	</g>
</g>
<g>
	<g>
		<path d="M154.963,445.531c-4.081-4.079-10.694-4.079-14.776,0l-0.126,0.126c-4.08,4.08-4.08,10.695,0,14.776
			c2.042,2.039,4.715,3.06,7.389,3.06c2.675,0,5.347-1.021,7.388-3.06l0.126-0.126C159.042,456.228,159.042,449.612,154.963,445.531
			z"/>
	</g>
</g>
<g>
	<g>
		<path d="M423.487,470.339c-0.437-5.752-5.463-10.072-11.207-9.627c-15.249,1.16-30.168-4.372-40.962-15.167
			c-9.877-9.877-15.318-23.01-15.318-36.98s5.44-27.102,15.318-36.98c4.08-4.08,4.08-10.695,0-14.776
			c-4.081-4.079-10.694-4.079-14.776,0c-28.537,28.538-28.537,74.972,0,103.509c13.788,13.79,32.395,21.44,51.75,21.439
			c1.85,0,3.708-0.069,5.567-0.21C419.613,481.111,423.923,476.093,423.487,470.339z"/>
	</g>
</g>
<g>
	<g>
		<path d="M460.052,445.532c-4.081-4.08-10.694-4.08-14.775,0l-0.126,0.126c-4.08,4.08-4.08,10.695,0,14.776
			c2.04,2.039,4.714,3.06,7.388,3.06c2.674,0,5.347-1.021,7.388-3.06l0.126-0.126C464.131,456.229,464.131,449.613,460.052,445.532z
			"/>
	</g>
</g>
<g>
</g>
<g>
</g>
<g>
</g>
<g>
</g>
<g>
</g>
<g>
</g>
<g>
</g>
<g>
</g>
<g>
</g>
<g>
</g>
<g>
</g>
<g>
</g>
<g>
</g>
<g>
</g>
<g>
</g>
</svg>
