<?xml version="1.0" encoding="iso-8859-1"?>
<!-- Generator: Adobe Illustrator 19.0.0, SVG Export Plug-In . SVG Version: 6.00 Build 0)  -->
<svg version="1.1" id="Layer_1" xmlns="http://www.w3.org/2000/svg" xmlns:xlink="http://www.w3.org/1999/xlink" x="0px" y="0px"
	 viewBox="0 0 480 480" style="enable-background:new 0 0 480 480;" xml:space="preserve">
<g>
	<g>
		<path d="M472,312h-88c-7.064,0-13.36,3.128-17.76,8H320c-4.416,0-8,3.576-8,8v6.352l-65.224-15.248
			c-4.896-1.128-9.912-0.728-14.528,1.168l-62.64,25.6c-8.096,3.312-14.016,10.008-16.424,18.096l-122.24-36.936
			c-7.328-2.216-15.08-0.856-21.256,3.712C3.528,335.304,0,342.328,0,350v17.872c0,8.04,4,15.504,10.688,19.968l88.872,59.248
			c0.792,0.528,1.672,0.912,2.608,1.136l132.344,31.144c1.792,0.424,3.632,0.624,5.48,0.624c1.856,0,3.72-0.208,5.52-0.632
			L312,463.648V464c0,4.424,3.584,8,8,8h46.24c4.392,4.872,10.696,8,17.76,8h88c4.416,0,8-3.576,8-8V320
			C480,315.576,476.416,312,472,312z M311.496,447.328l-69.664,16.456c-1.2,0.304-2.48,0.296-3.672,0.008l-130.92-30.808
			l-87.68-58.456c-2.224-1.48-3.56-3.976-3.56-6.656V350c0-2.552,1.176-4.896,3.232-6.424c2.048-1.528,4.624-1.992,7.088-1.24
			l127.024,38.232C157.008,391.92,167.72,400,180.32,400H240c4.416,0,8-3.576,8-8s-3.584-8-8-8h-59.68
			c-6.792,0-12.32-5.32-12.32-12.064c0-5.024,3.008-9.432,7.664-11.328l62.648-25.56c1.536-0.64,3.216-0.752,4.84-0.368
			l68.824,16.096L311.496,447.328z M360,456h-32V336h32V456z M464,464h-80c-4.408,0-8-3.584-8-8V336c0-4.416,3.592-8,8-8h80V464z"/>
	</g>
</g>
<g>
	<g>
		<path d="M433.432,432h-24c-4.416,0-8,3.576-8,8s3.576,8,8,8h24c4.416,0,8-3.576,8-8S437.848,432,433.432,432z"/>
	</g>
</g>
<g>
	<g>
		<path d="M400.424,124.136l-39.768-72c-1.4-2.552-4.088-4.136-6.992-4.136c-0.008,0-0.016,0-0.024,0
			c-0.032,0-0.064,0.016-0.096,0.016c-0.048,0-0.08-0.016-0.112-0.016h-78.936c-0.144,0-0.28,0.048-0.424,0.056
			C273.928,48.048,273.8,48,273.664,48c-0.008,0-0.016,0-0.024,0c-0.032,0-0.064,0.016-0.096,0.016c-0.048,0-0.08-0.016-0.112-0.016
			h-78.936c-0.144,0-0.28,0.048-0.424,0.056C193.928,48.048,193.8,48,193.664,48c-0.008,0-0.016,0-0.024,0
			c-0.032,0-0.064,0.016-0.096,0.016c-0.048,0-0.08-0.016-0.112-0.016h-78.936c-0.144,0-0.28,0.048-0.424,0.056
			C113.928,48.048,113.8,48,113.664,48c-0.008,0-0.016,0-0.024,0c-2.92,0.008-5.608,1.608-7,4.176l-39.168,72
			c-0.08,0.152-0.112,0.328-0.184,0.48c-0.056,0.128-0.16,0.224-0.208,0.352c-0.064,0.16-0.064,0.328-0.112,0.48
			c-0.144,0.44-0.248,0.888-0.32,1.344c-0.04,0.288-0.088,0.568-0.096,0.864c-0.016,0.464,0.024,0.92,0.088,1.384
			c0.04,0.272,0.056,0.536,0.12,0.808c0.12,0.48,0.312,0.936,0.52,1.4c0.104,0.224,0.168,0.464,0.288,0.68
			c0.024,0.04,0.024,0.08,0.048,0.112c0.368,0.616,0.808,1.168,1.312,1.656c0.008,0.008,0.016,0.024,0.024,0.032L227.88,286.264
			c0.128,0.128,0.296,0.168,0.424,0.28c0.528,0.448,1.104,0.808,1.728,1.112c0.248,0.112,0.464,0.256,0.72,0.344
			c0.848,0.304,1.736,0.504,2.672,0.504c0.936,0,1.824-0.2,2.672-0.504c0.248-0.088,0.472-0.224,0.72-0.344
			c0.624-0.296,1.2-0.664,1.728-1.112c0.128-0.112,0.296-0.152,0.416-0.272l157.168-150.808c1.72-0.624,3.224-1.776,4.184-3.4
			C401.752,129.624,401.792,126.608,400.424,124.136z M339.872,64l-26.16,47.36L287.952,64H339.872z M273.712,72.64l26.16,47.36
			h-3.512h-48.408L273.712,72.64z M259.872,64l-26.16,47.36L207.952,64H259.872z M193.712,72.64l26.16,47.36h-49.376h-2.544
			L193.712,72.64z M179.872,64l-26.16,47.36L127.952,64H179.872z M113.712,72.64l26.16,47.36h-51.92L113.712,72.64z M94.384,136
			h59.04h0.2h0.024h0.832h10.648l46.384,112.4L94.384,136z M233.424,259.528L182.456,136h50.976h0.2h0.024h0.832h49.904
			L233.424,259.528z M255.328,248.4L301.712,136h11.72h0.2h0.024h0.832h57.976L255.328,248.4z M327.952,120l25.76-47.36l26.16,47.36
			H327.952z"/>
	</g>
</g>
<g>
	<g>
		<path d="M112,248H96v-16c0-4.424-3.584-8-8-8s-8,3.576-8,8v16H64c-4.416,0-8,3.576-8,8s3.584,8,8,8h16v16c0,4.424,3.584,8,8,8
			s8-3.576,8-8v-16h16c4.416,0,8-3.576,8-8S116.416,248,112,248z"/>
	</g>
</g>
<g>
	<g>
		<path d="M452.744,40l5.656-5.656c3.12-3.128,3.12-8.184,0-11.312c-3.128-3.128-8.184-3.128-11.312,0l-5.656,5.656l-5.656-5.656
			c-3.128-3.128-8.184-3.128-11.312,0c-3.128,3.128-3.128,8.184,0,11.312L430.112,40l-5.656,5.656
			c-3.128,3.128-3.128,8.184,0,11.312c1.56,1.56,3.608,2.344,5.656,2.344c2.048,0,4.096-0.784,5.656-2.344l5.656-5.656l5.656,5.656
			c1.56,1.56,3.608,2.344,5.656,2.344c2.048,0,4.096-0.784,5.656-2.344c3.128-3.128,3.128-8.184,0-11.312L452.744,40z"/>
	</g>
</g>
<g>
	<g>
		<path d="M408,224c-13.232,0-24,10.768-24,24s10.768,24,24,24s24-10.768,24-24S421.232,224,408,224z M408,256c-4.408,0-8-3.584-8-8
			c0-4.416,3.592-8,8-8c4.408,0,8,3.584,8,8C416,252.416,412.408,256,408,256z"/>
	</g>
</g>
<g>
	<g>
		<path d="M40,0C26.768,0,16,10.768,16,24s10.768,24,24,24s24-10.768,24-24S53.232,0,40,0z M40,32c-4.408,0-8-3.584-8-8s3.592-8,8-8
			s8,3.584,8,8S44.408,32,40,32z"/>
	</g>
</g>
<g>
</g>
<g>
</g>
<g>
</g>
<g>
</g>
<g>
</g>
<g>
</g>
<g>
</g>
<g>
</g>
<g>
</g>
<g>
</g>
<g>
</g>
<g>
</g>
<g>
</g>
<g>
</g>
<g>
</g>
</svg>
